<svg xmlns="http://www.w3.org/2000/svg" xmlns:xlink="http://www.w3.org/1999/xlink" width="265.6" height="326.644" viewBox="0 0 265.6 326.644">
  <defs>
    <filter id="Trazado_226718">
      <feOffset dy="19" input="SourceAlpha"/>
      <feGaussianBlur stdDeviation="6" result="blur"/>
      <feFlood flood-opacity="0.161" result="color"/>
      <feComposite operator="out" in="SourceGraphic" in2="blur"/>
      <feComposite operator="in" in="color"/>
      <feComposite operator="in" in2="SourceGraphic"/>
    </filter>
  </defs>
  <g id="Grupo_123913" data-name="Grupo 123913" transform="translate(5132.2 4455.17)">
    <g data-type="innerShadowGroup">
      <path id="Trazado_226718-2" data-name="Trazado 226718" d="M1698.3,239.44l-19.719,19.754a13.868,13.868,0,0,1-19.56,0L1639.3,239.475H1536V512.083h265.6V239.475Z" transform="translate(-6668.2 -4640.61)" fill="#905fdd"/>
      <g transform="matrix(1, 0, 0, 1, -5132.2, -4455.17)" filter="url(#Trazado_226718)">
        <path id="Trazado_226718-3" data-name="Trazado 226718" d="M1698.3,239.44l-19.719,19.754a13.868,13.868,0,0,1-19.56,0L1639.3,239.475H1536V512.083h265.6V239.475Z" transform="translate(-1536 -185.44)" fill="#fff"/>
      </g>
    </g>
    <path id="Trazado_226725" data-name="Trazado 226725" d="M44.119,19H42.432V6.2h1.688Zm4.368-9.51.053,1.2a3.465,3.465,0,0,1,2.848-1.371q3.015,0,3.041,3.4V19H52.8V12.707a2.189,2.189,0,0,0-.47-1.521,1.884,1.884,0,0,0-1.437-.492,2.347,2.347,0,0,0-1.389.422,2.865,2.865,0,0,0-.932,1.107V19H46.949V9.49ZM57.681,19V10.747h-1.5V9.49h1.5V8.515A3.238,3.238,0,0,1,58.5,6.15a3.088,3.088,0,0,1,2.312-.835,4.293,4.293,0,0,1,1.116.148l-.088,1.311a4.67,4.67,0,0,0-.879-.079,1.586,1.586,0,0,0-1.222.463,1.877,1.877,0,0,0-.431,1.327V9.49h2.03v1.257h-2.03V19Zm10.046-8.051a4.873,4.873,0,0,0-.8-.062,2.143,2.143,0,0,0-2.171,1.362V19H63.13V9.49h1.582l.026,1.1a2.532,2.532,0,0,1,2.268-1.274,1.661,1.661,0,0,1,.721.123ZM74.74,19a3.416,3.416,0,0,1-.229-1A3.628,3.628,0,0,1,71.8,19.176a3.357,3.357,0,0,1-2.307-.8,2.573,2.573,0,0,1-.9-2.017,2.688,2.688,0,0,1,1.129-2.307,5.325,5.325,0,0,1,3.177-.822h1.582v-.747a1.826,1.826,0,0,0-.51-1.358,2.049,2.049,0,0,0-1.5-.505,2.371,2.371,0,0,0-1.459.439,1.3,1.3,0,0,0-.589,1.063H68.79a2.244,2.244,0,0,1,.505-1.375A3.449,3.449,0,0,1,70.667,9.7a4.613,4.613,0,0,1,1.9-.387,3.759,3.759,0,0,1,2.575.822,2.964,2.964,0,0,1,.967,2.263v4.377a5.351,5.351,0,0,0,.334,2.083V19Zm-2.7-1.239a2.858,2.858,0,0,0,1.45-.4,2.392,2.392,0,0,0,.993-1.028V14.386H73.211q-2.988,0-2.988,1.749a1.48,1.48,0,0,0,.51,1.2A1.959,1.959,0,0,0,72.042,17.761Zm10.564,1.415a4.155,4.155,0,0,1-3.146-1.27,4.714,4.714,0,0,1-1.213-3.4v-.3a5.707,5.707,0,0,1,.541-2.527A4.217,4.217,0,0,1,80.3,9.943a3.8,3.8,0,0,1,2.1-.628,3.562,3.562,0,0,1,2.883,1.222,5.289,5.289,0,0,1,1.028,3.5v.677H79.873a3.38,3.38,0,0,0,.822,2.272,2.583,2.583,0,0,0,2,.866,2.832,2.832,0,0,0,1.459-.352,3.666,3.666,0,0,0,1.046-.932l.993.773A3.993,3.993,0,0,1,82.606,19.176Zm-.2-8.525a2.169,2.169,0,0,0-1.652.716,3.482,3.482,0,0,0-.826,2.008h4.764v-.123a3.1,3.1,0,0,0-.668-1.92A2.042,2.042,0,0,0,82.4,10.65Zm11.329,5.827a1.2,1.2,0,0,0-.5-1.024,4.78,4.78,0,0,0-1.731-.628,8.186,8.186,0,0,1-1.96-.633,2.788,2.788,0,0,1-1.072-.879,2.1,2.1,0,0,1-.347-1.213,2.467,2.467,0,0,1,.989-1.978,3.861,3.861,0,0,1,2.527-.809,3.974,3.974,0,0,1,2.624.835,2.652,2.652,0,0,1,1.006,2.136H93.637a1.468,1.468,0,0,0-.567-1.151,2.124,2.124,0,0,0-1.428-.483,2.223,2.223,0,0,0-1.389.387,1.217,1.217,0,0,0-.5,1.011.986.986,0,0,0,.466.888,5.731,5.731,0,0,0,1.683.571,8.77,8.77,0,0,1,1.973.65,2.878,2.878,0,0,1,1.121.91,2.237,2.237,0,0,1,.365,1.3,2.434,2.434,0,0,1-1.02,2.043,4.277,4.277,0,0,1-2.646.769,4.789,4.789,0,0,1-2.021-.4A3.288,3.288,0,0,1,88.3,17.642a2.722,2.722,0,0,1-.5-1.569h1.626a1.683,1.683,0,0,0,.655,1.3,2.54,2.54,0,0,0,1.613.479,2.622,2.622,0,0,0,1.481-.374A1.148,1.148,0,0,0,93.733,16.478Zm5.95-9.29v2.3h1.775v1.257H99.684v5.9a1.32,1.32,0,0,0,.237.858,1,1,0,0,0,.809.286,3.937,3.937,0,0,0,.773-.105V19a4.742,4.742,0,0,1-1.248.175,2.025,2.025,0,0,1-1.644-.659,2.832,2.832,0,0,1-.554-1.872v-5.9H96.326V9.49h1.731v-2.3Zm8.271,3.762a4.873,4.873,0,0,0-.8-.062,2.143,2.143,0,0,0-2.171,1.362V19h-1.626V9.49h1.582l.026,1.1a2.532,2.532,0,0,1,2.268-1.274,1.661,1.661,0,0,1,.721.123Zm7.365,7.11a3.454,3.454,0,0,1-2.786,1.116,2.956,2.956,0,0,1-2.316-.883,3.823,3.823,0,0,1-.8-2.615V9.49h1.626v6.144q0,2.162,1.758,2.162a2.434,2.434,0,0,0,2.479-1.389V9.49H116.9V19h-1.547Zm7.866-.211a2.342,2.342,0,0,0,1.521-.527A1.855,1.855,0,0,0,125.427,16h1.538a2.949,2.949,0,0,1-.562,1.556,3.7,3.7,0,0,1-1.384,1.178,3.994,3.994,0,0,1-1.833.439,3.918,3.918,0,0,1-3.089-1.3,5.163,5.163,0,0,1-1.147-3.546v-.272a5.725,5.725,0,0,1,.51-2.47,3.883,3.883,0,0,1,1.463-1.679,4.157,4.157,0,0,1,2.254-.6,3.814,3.814,0,0,1,2.659.958,3.424,3.424,0,0,1,1.129,2.487h-1.538a2.241,2.241,0,0,0-.7-1.516,2.174,2.174,0,0,0-1.551-.593,2.276,2.276,0,0,0-1.92.892,4.19,4.19,0,0,0-.681,2.58v.308a4.106,4.106,0,0,0,.677,2.531A2.287,2.287,0,0,0,123.186,17.849ZM131,7.188v2.3h1.775v1.257H131v5.9a1.32,1.32,0,0,0,.237.858,1,1,0,0,0,.809.286,3.937,3.937,0,0,0,.773-.105V19a4.742,4.742,0,0,1-1.248.175,2.025,2.025,0,0,1-1.644-.659,2.832,2.832,0,0,1-.554-1.872v-5.9h-1.731V9.49h1.731v-2.3Zm9.545,10.872a3.454,3.454,0,0,1-2.786,1.116,2.956,2.956,0,0,1-2.316-.883,3.823,3.823,0,0,1-.8-2.615V9.49h1.626v6.144q0,2.162,1.758,2.162a2.434,2.434,0,0,0,2.479-1.389V9.49h1.626V19h-1.547Zm8.648-7.11a4.873,4.873,0,0,0-.8-.062,2.143,2.143,0,0,0-2.171,1.362V19H144.6V9.49h1.582l.026,1.1a2.532,2.532,0,0,1,2.268-1.274,1.661,1.661,0,0,1,.721.123ZM156.206,19a3.416,3.416,0,0,1-.229-1,3.628,3.628,0,0,1-2.707,1.178,3.357,3.357,0,0,1-2.307-.8,2.573,2.573,0,0,1-.9-2.017,2.688,2.688,0,0,1,1.129-2.307,5.325,5.325,0,0,1,3.177-.822h1.582v-.747a1.826,1.826,0,0,0-.51-1.358,2.049,2.049,0,0,0-1.5-.505,2.371,2.371,0,0,0-1.459.439,1.3,1.3,0,0,0-.589,1.063h-1.635a2.244,2.244,0,0,1,.505-1.375,3.449,3.449,0,0,1,1.371-1.05,4.613,4.613,0,0,1,1.9-.387,3.759,3.759,0,0,1,2.575.822,2.964,2.964,0,0,1,.967,2.263v4.377a5.351,5.351,0,0,0,.334,2.083V19Zm-2.7-1.239a2.858,2.858,0,0,0,1.45-.4,2.392,2.392,0,0,0,.993-1.028V14.386h-1.274q-2.988,0-2.988,1.749a1.48,1.48,0,0,0,.51,1.2A1.959,1.959,0,0,0,153.508,17.761Zm12.155-1.283a1.2,1.2,0,0,0-.5-1.024,4.78,4.78,0,0,0-1.731-.628,8.186,8.186,0,0,1-1.96-.633,2.788,2.788,0,0,1-1.072-.879,2.1,2.1,0,0,1-.347-1.213,2.467,2.467,0,0,1,.989-1.978,3.861,3.861,0,0,1,2.527-.809,3.974,3.974,0,0,1,2.624.835,2.652,2.652,0,0,1,1.006,2.136h-1.635A1.468,1.468,0,0,0,165,11.134a2.124,2.124,0,0,0-1.428-.483,2.223,2.223,0,0,0-1.389.387,1.217,1.217,0,0,0-.5,1.011.986.986,0,0,0,.466.888,5.731,5.731,0,0,0,1.683.571,8.77,8.77,0,0,1,1.973.65,2.878,2.878,0,0,1,1.121.91,2.237,2.237,0,0,1,.365,1.3,2.434,2.434,0,0,1-1.02,2.043,4.277,4.277,0,0,1-2.646.769,4.789,4.789,0,0,1-2.021-.4,3.288,3.288,0,0,1-1.375-1.129,2.722,2.722,0,0,1-.5-1.569h1.626a1.683,1.683,0,0,0,.655,1.3,2.54,2.54,0,0,0,1.613.479,2.622,2.622,0,0,0,1.481-.374A1.148,1.148,0,0,0,165.663,16.478ZM27.121,32.188v2.3H28.9v1.257H27.121v5.9a1.32,1.32,0,0,0,.237.858,1,1,0,0,0,.809.286,3.937,3.937,0,0,0,.773-.105V44a4.742,4.742,0,0,1-1.248.175,2.025,2.025,0,0,1-1.644-.659,2.832,2.832,0,0,1-.554-1.872v-5.9H23.764V34.49H25.5v-2.3Zm7.62,11.988a4.155,4.155,0,0,1-3.146-1.27,4.714,4.714,0,0,1-1.213-3.4v-.3a5.707,5.707,0,0,1,.541-2.527,4.217,4.217,0,0,1,1.512-1.74,3.8,3.8,0,0,1,2.1-.628,3.562,3.562,0,0,1,2.883,1.222,5.289,5.289,0,0,1,1.028,3.5v.677H32.008a3.38,3.38,0,0,0,.822,2.272,2.583,2.583,0,0,0,2,.866,2.832,2.832,0,0,0,1.459-.352,3.666,3.666,0,0,0,1.046-.932l.993.773A3.993,3.993,0,0,1,34.741,44.176Zm-.2-8.525a2.169,2.169,0,0,0-1.652.716,3.482,3.482,0,0,0-.826,2.008h4.764v-.123a3.1,3.1,0,0,0-.668-1.92A2.042,2.042,0,0,0,34.539,35.65Zm10.389.3a4.873,4.873,0,0,0-.8-.062,2.143,2.143,0,0,0-2.171,1.362V44H40.331V34.49h1.582l.026,1.1a2.532,2.532,0,0,1,2.268-1.274,1.661,1.661,0,0,1,.721.123Zm6.091,0a4.873,4.873,0,0,0-.8-.062,2.143,2.143,0,0,0-2.171,1.362V44H46.422V34.49H48l.026,1.1A2.532,2.532,0,0,1,50.3,34.314a1.661,1.661,0,0,1,.721.123Zm5.44,8.227a4.155,4.155,0,0,1-3.146-1.27,4.714,4.714,0,0,1-1.213-3.4v-.3a5.707,5.707,0,0,1,.541-2.527,4.217,4.217,0,0,1,1.512-1.74,3.8,3.8,0,0,1,2.1-.628,3.562,3.562,0,0,1,2.883,1.222,5.289,5.289,0,0,1,1.028,3.5v.677H53.726a3.38,3.38,0,0,0,.822,2.272,2.583,2.583,0,0,0,2,.866,2.832,2.832,0,0,0,1.459-.352,3.666,3.666,0,0,0,1.046-.932l.993.773A3.993,3.993,0,0,1,56.459,44.176Zm-.2-8.525a2.169,2.169,0,0,0-1.652.716,3.482,3.482,0,0,0-.826,2.008h4.764v-.123a3.1,3.1,0,0,0-.668-1.92A2.042,2.042,0,0,0,56.257,35.65Zm11.329,5.827a1.2,1.2,0,0,0-.5-1.024,4.78,4.78,0,0,0-1.731-.628,8.186,8.186,0,0,1-1.96-.633,2.788,2.788,0,0,1-1.072-.879,2.1,2.1,0,0,1-.347-1.213,2.467,2.467,0,0,1,.989-1.978,3.861,3.861,0,0,1,2.527-.809,3.974,3.974,0,0,1,2.624.835,2.652,2.652,0,0,1,1.006,2.136H67.489a1.468,1.468,0,0,0-.567-1.151,2.124,2.124,0,0,0-1.428-.483,2.223,2.223,0,0,0-1.389.387,1.217,1.217,0,0,0-.5,1.011.986.986,0,0,0,.466.888,5.731,5.731,0,0,0,1.683.571,8.77,8.77,0,0,1,1.973.65,2.878,2.878,0,0,1,1.121.91,2.237,2.237,0,0,1,.365,1.3,2.434,2.434,0,0,1-1.02,2.043,4.277,4.277,0,0,1-2.646.769,4.789,4.789,0,0,1-2.021-.4,3.288,3.288,0,0,1-1.375-1.129,2.722,2.722,0,0,1-.5-1.569h1.626a1.683,1.683,0,0,0,.655,1.3,2.54,2.54,0,0,0,1.613.479,2.622,2.622,0,0,0,1.481-.374A1.148,1.148,0,0,0,67.586,41.478Zm5.95-9.29v2.3h1.775v1.257H73.536v5.9a1.32,1.32,0,0,0,.237.858,1,1,0,0,0,.809.286,3.937,3.937,0,0,0,.773-.105V44a4.742,4.742,0,0,1-1.248.175,2.025,2.025,0,0,1-1.644-.659,2.832,2.832,0,0,1-.554-1.872v-5.9H70.179V34.49H71.91v-2.3Zm8.271,3.762a4.873,4.873,0,0,0-.8-.062,2.143,2.143,0,0,0-2.171,1.362V44H77.21V34.49h1.582l.026,1.1a2.532,2.532,0,0,1,2.268-1.274,1.661,1.661,0,0,1,.721.123Zm5.44,8.227a4.155,4.155,0,0,1-3.146-1.27,4.714,4.714,0,0,1-1.213-3.4v-.3a5.707,5.707,0,0,1,.541-2.527,4.217,4.217,0,0,1,1.512-1.74,3.8,3.8,0,0,1,2.1-.628,3.562,3.562,0,0,1,2.883,1.222,5.289,5.289,0,0,1,1.028,3.5v.677H84.514a3.38,3.38,0,0,0,.822,2.272,2.583,2.583,0,0,0,2,.866,2.832,2.832,0,0,0,1.459-.352,3.666,3.666,0,0,0,1.046-.932l.993.773A3.993,3.993,0,0,1,87.247,44.176Zm-.2-8.525a2.169,2.169,0,0,0-1.652.716,3.482,3.482,0,0,0-.826,2.008H89.33v-.123a3.1,3.1,0,0,0-.668-1.92A2.042,2.042,0,0,0,87.045,35.65Zm11.329,5.827a1.2,1.2,0,0,0-.5-1.024,4.78,4.78,0,0,0-1.731-.628,8.186,8.186,0,0,1-1.96-.633,2.788,2.788,0,0,1-1.072-.879,2.1,2.1,0,0,1-.347-1.213,2.467,2.467,0,0,1,.989-1.978,3.861,3.861,0,0,1,2.527-.809,3.974,3.974,0,0,1,2.624.835,2.652,2.652,0,0,1,1.006,2.136H98.277a1.468,1.468,0,0,0-.567-1.151,2.124,2.124,0,0,0-1.428-.483,2.223,2.223,0,0,0-1.389.387,1.217,1.217,0,0,0-.5,1.011.986.986,0,0,0,.466.888,5.731,5.731,0,0,0,1.683.571,8.77,8.77,0,0,1,1.973.65,2.878,2.878,0,0,1,1.121.91,2.237,2.237,0,0,1,.365,1.3,2.434,2.434,0,0,1-1.02,2.043,4.277,4.277,0,0,1-2.646.769,4.789,4.789,0,0,1-2.021-.4,3.288,3.288,0,0,1-1.375-1.129,2.722,2.722,0,0,1-.5-1.569h1.626a1.683,1.683,0,0,0,.655,1.3,2.54,2.54,0,0,0,1.613.479,2.622,2.622,0,0,0,1.481-.374A1.148,1.148,0,0,0,98.374,41.478Zm11.312.141L111.9,34.49h1.74l-3.823,10.978q-.888,2.373-2.821,2.373l-.308-.026-.606-.114V46.382l.439.035a2.164,2.164,0,0,0,1.288-.334,2.417,2.417,0,0,0,.76-1.222l.36-.967-3.393-9.4h1.775ZM125.418,44a3.416,3.416,0,0,1-.229-1,3.628,3.628,0,0,1-2.707,1.178,3.357,3.357,0,0,1-2.307-.8,2.573,2.573,0,0,1-.9-2.017,2.688,2.688,0,0,1,1.129-2.307,5.325,5.325,0,0,1,3.177-.822h1.582v-.747a1.826,1.826,0,0,0-.51-1.358,2.049,2.049,0,0,0-1.5-.505,2.371,2.371,0,0,0-1.459.439,1.3,1.3,0,0,0-.589,1.063h-1.635a2.244,2.244,0,0,1,.505-1.375,3.449,3.449,0,0,1,1.371-1.05,4.613,4.613,0,0,1,1.9-.387,3.759,3.759,0,0,1,2.575.822,2.964,2.964,0,0,1,.967,2.263v4.377a5.351,5.351,0,0,0,.334,2.083V44Zm-2.7-1.239a2.858,2.858,0,0,0,1.45-.4,2.392,2.392,0,0,0,.993-1.028V39.386h-1.274q-2.988,0-2.988,1.749a1.48,1.48,0,0,0,.51,1.2A1.959,1.959,0,0,0,122.72,42.761Zm10.433.088a2.342,2.342,0,0,0,1.521-.527A1.855,1.855,0,0,0,135.394,41h1.538a2.949,2.949,0,0,1-.562,1.556,3.7,3.7,0,0,1-1.384,1.178,3.994,3.994,0,0,1-1.833.439,3.918,3.918,0,0,1-3.089-1.3,5.163,5.163,0,0,1-1.147-3.546v-.272a5.725,5.725,0,0,1,.51-2.47,3.883,3.883,0,0,1,1.463-1.679,4.157,4.157,0,0,1,2.254-.6,3.814,3.814,0,0,1,2.659.958,3.424,3.424,0,0,1,1.129,2.487h-1.538a2.241,2.241,0,0,0-.7-1.516,2.174,2.174,0,0,0-1.551-.593,2.276,2.276,0,0,0-1.92.892,4.19,4.19,0,0,0-.681,2.58v.308a4.106,4.106,0,0,0,.677,2.531A2.287,2.287,0,0,0,133.152,42.849Zm9.422,0a2.342,2.342,0,0,0,1.521-.527A1.855,1.855,0,0,0,144.815,41h1.538a2.949,2.949,0,0,1-.562,1.556,3.7,3.7,0,0,1-1.384,1.178,3.994,3.994,0,0,1-1.833.439,3.918,3.918,0,0,1-3.089-1.3,5.163,5.163,0,0,1-1.147-3.546v-.272a5.725,5.725,0,0,1,.51-2.47,3.883,3.883,0,0,1,1.463-1.679,4.157,4.157,0,0,1,2.254-.6,3.814,3.814,0,0,1,2.659.958,3.424,3.424,0,0,1,1.129,2.487h-1.538a2.241,2.241,0,0,0-.7-1.516,2.174,2.174,0,0,0-1.551-.593,2.276,2.276,0,0,0-1.92.892,4.19,4.19,0,0,0-.681,2.58v.308a4.106,4.106,0,0,0,.677,2.531A2.287,2.287,0,0,0,142.574,42.849Zm9.554,1.327a4.155,4.155,0,0,1-3.146-1.27,4.714,4.714,0,0,1-1.213-3.4v-.3a5.707,5.707,0,0,1,.541-2.527,4.217,4.217,0,0,1,1.512-1.74,3.8,3.8,0,0,1,2.1-.628,3.562,3.562,0,0,1,2.883,1.222,5.289,5.289,0,0,1,1.028,3.5v.677h-6.442a3.38,3.38,0,0,0,.822,2.272,2.583,2.583,0,0,0,2,.866,2.832,2.832,0,0,0,1.459-.352,3.666,3.666,0,0,0,1.046-.932l.993.773A3.993,3.993,0,0,1,152.128,44.176Zm-.2-8.525a2.169,2.169,0,0,0-1.652.716,3.482,3.482,0,0,0-.826,2.008h4.764v-.123a3.1,3.1,0,0,0-.668-1.92A2.042,2.042,0,0,0,151.926,35.65Zm11.329,5.827a1.2,1.2,0,0,0-.5-1.024,4.78,4.78,0,0,0-1.731-.628,8.186,8.186,0,0,1-1.96-.633,2.788,2.788,0,0,1-1.072-.879,2.1,2.1,0,0,1-.347-1.213,2.467,2.467,0,0,1,.989-1.978,3.861,3.861,0,0,1,2.527-.809,3.974,3.974,0,0,1,2.624.835,2.652,2.652,0,0,1,1.006,2.136h-1.635a1.468,1.468,0,0,0-.567-1.151,2.124,2.124,0,0,0-1.428-.483,2.223,2.223,0,0,0-1.389.387,1.217,1.217,0,0,0-.5,1.011.986.986,0,0,0,.466.888,5.731,5.731,0,0,0,1.683.571,8.77,8.77,0,0,1,1.973.65,2.878,2.878,0,0,1,1.121.91,2.237,2.237,0,0,1,.365,1.3,2.434,2.434,0,0,1-1.02,2.043,4.277,4.277,0,0,1-2.646.769,4.789,4.789,0,0,1-2.021-.4,3.288,3.288,0,0,1-1.375-1.129,2.722,2.722,0,0,1-.5-1.569h1.626a1.683,1.683,0,0,0,.655,1.3,2.54,2.54,0,0,0,1.613.479,2.622,2.622,0,0,0,1.481-.374A1.148,1.148,0,0,0,163.255,41.478Zm3.313-2.32a5.617,5.617,0,0,1,.549-2.514,4.1,4.1,0,0,1,1.529-1.723,4.163,4.163,0,0,1,2.237-.606,4.01,4.01,0,0,1,3.142,1.345,5.174,5.174,0,0,1,1.2,3.577v.114a5.666,5.666,0,0,1-.532,2.492,4.038,4.038,0,0,1-1.521,1.718,4.211,4.211,0,0,1-2.272.615,4,4,0,0,1-3.133-1.345,5.147,5.147,0,0,1-1.2-3.56Zm1.635.193a4.068,4.068,0,0,0,.734,2.54,2.487,2.487,0,0,0,3.933-.013,4.449,4.449,0,0,0,.729-2.72,4.061,4.061,0,0,0-.743-2.536,2.361,2.361,0,0,0-1.973-.971,2.335,2.335,0,0,0-1.942.958A4.416,4.416,0,0,0,168.2,39.351Zm14.6,2.127a1.2,1.2,0,0,0-.5-1.024,4.78,4.78,0,0,0-1.731-.628,8.186,8.186,0,0,1-1.96-.633,2.788,2.788,0,0,1-1.072-.879,2.1,2.1,0,0,1-.347-1.213,2.467,2.467,0,0,1,.989-1.978,3.861,3.861,0,0,1,2.527-.809,3.974,3.974,0,0,1,2.624.835,2.652,2.652,0,0,1,1.006,2.136h-1.635a1.468,1.468,0,0,0-.567-1.151,2.124,2.124,0,0,0-1.428-.483,2.223,2.223,0,0,0-1.389.387,1.217,1.217,0,0,0-.5,1.011.986.986,0,0,0,.466.888,5.731,5.731,0,0,0,1.683.571,8.77,8.77,0,0,1,1.973.65,2.878,2.878,0,0,1,1.121.91,2.237,2.237,0,0,1,.365,1.3,2.434,2.434,0,0,1-1.02,2.043,4.277,4.277,0,0,1-2.646.769,4.789,4.789,0,0,1-2.021-.4,3.288,3.288,0,0,1-1.375-1.129,2.722,2.722,0,0,1-.5-1.569H178.5a1.683,1.683,0,0,0,.655,1.3,2.54,2.54,0,0,0,1.613.479,2.622,2.622,0,0,0,1.481-.374A1.148,1.148,0,0,0,182.8,41.478ZM35.677,69a3.416,3.416,0,0,1-.229-1,3.628,3.628,0,0,1-2.707,1.178,3.357,3.357,0,0,1-2.307-.8,2.573,2.573,0,0,1-.9-2.017,2.688,2.688,0,0,1,1.129-2.307,5.325,5.325,0,0,1,3.177-.822h1.582v-.747a1.826,1.826,0,0,0-.51-1.358,2.049,2.049,0,0,0-1.5-.505,2.371,2.371,0,0,0-1.459.439,1.3,1.3,0,0,0-.589,1.063H29.727a2.244,2.244,0,0,1,.505-1.375A3.449,3.449,0,0,1,31.6,59.7a4.613,4.613,0,0,1,1.9-.387,3.759,3.759,0,0,1,2.575.822,2.964,2.964,0,0,1,.967,2.263v4.377a5.351,5.351,0,0,0,.334,2.083V69Zm-2.7-1.239a2.858,2.858,0,0,0,1.45-.4,2.392,2.392,0,0,0,.993-1.028V64.386H34.148q-2.988,0-2.988,1.749a1.48,1.48,0,0,0,.51,1.2A1.959,1.959,0,0,0,32.979,67.761ZM39.2,64.166a5.571,5.571,0,0,1,1.037-3.52,3.529,3.529,0,0,1,5.361-.189V55.5h1.626V69H45.732l-.079-1.02a3.311,3.311,0,0,1-2.716,1.2,3.248,3.248,0,0,1-2.694-1.354A5.634,5.634,0,0,1,39.2,64.289Zm1.626.185a4.218,4.218,0,0,0,.668,2.531,2.159,2.159,0,0,0,1.846.914A2.372,2.372,0,0,0,45.6,66.407V62.039a2.39,2.39,0,0,0-2.241-1.345,2.17,2.17,0,0,0-1.863.923A4.644,4.644,0,0,0,40.828,64.351Zm12.867,4.825a4.155,4.155,0,0,1-3.146-1.27,4.714,4.714,0,0,1-1.213-3.4v-.3a5.707,5.707,0,0,1,.541-2.527,4.217,4.217,0,0,1,1.512-1.74,3.8,3.8,0,0,1,2.1-.628,3.562,3.562,0,0,1,2.883,1.222,5.289,5.289,0,0,1,1.028,3.5v.677H50.961a3.38,3.38,0,0,0,.822,2.272,2.583,2.583,0,0,0,2,.866,2.832,2.832,0,0,0,1.459-.352,3.666,3.666,0,0,0,1.046-.932l.993.773A3.993,3.993,0,0,1,53.695,69.176Zm-.2-8.525a2.169,2.169,0,0,0-1.652.716,3.482,3.482,0,0,0-.826,2.008h4.764v-.123a3.1,3.1,0,0,0-.668-1.92A2.042,2.042,0,0,0,53.493,60.65Zm9.606,7.2a2.342,2.342,0,0,0,1.521-.527A1.855,1.855,0,0,0,65.34,66h1.538a2.949,2.949,0,0,1-.562,1.556,3.7,3.7,0,0,1-1.384,1.178,3.994,3.994,0,0,1-1.833.439,3.918,3.918,0,0,1-3.089-1.3,5.163,5.163,0,0,1-1.147-3.546v-.272a5.725,5.725,0,0,1,.51-2.47,3.883,3.883,0,0,1,1.463-1.679,4.157,4.157,0,0,1,2.254-.6,3.814,3.814,0,0,1,2.659.958,3.424,3.424,0,0,1,1.129,2.487H65.34a2.241,2.241,0,0,0-.7-1.516,2.174,2.174,0,0,0-1.551-.593,2.276,2.276,0,0,0-1.92.892,4.19,4.19,0,0,0-.681,2.58v.308a4.106,4.106,0,0,0,.677,2.531A2.287,2.287,0,0,0,63.1,67.849Zm11.479.211a3.454,3.454,0,0,1-2.786,1.116,2.956,2.956,0,0,1-2.316-.883,3.823,3.823,0,0,1-.8-2.615V59.49H70.3v6.144q0,2.162,1.758,2.162a2.434,2.434,0,0,0,2.479-1.389V59.49H76.16V69H74.613ZM84.5,69a3.416,3.416,0,0,1-.229-1,3.628,3.628,0,0,1-2.707,1.178,3.357,3.357,0,0,1-2.307-.8,2.573,2.573,0,0,1-.9-2.017,2.688,2.688,0,0,1,1.129-2.307,5.325,5.325,0,0,1,3.177-.822h1.582v-.747a1.826,1.826,0,0,0-.51-1.358,2.049,2.049,0,0,0-1.5-.505,2.371,2.371,0,0,0-1.459.439,1.3,1.3,0,0,0-.589,1.063H78.55a2.244,2.244,0,0,1,.505-1.375,3.449,3.449,0,0,1,1.371-1.05,4.613,4.613,0,0,1,1.9-.387,3.759,3.759,0,0,1,2.575.822,2.964,2.964,0,0,1,.967,2.263v4.377a5.351,5.351,0,0,0,.334,2.083V69Zm-2.7-1.239a2.858,2.858,0,0,0,1.45-.4,2.392,2.392,0,0,0,.993-1.028V64.386H82.971q-2.988,0-2.988,1.749a1.48,1.48,0,0,0,.51,1.2A1.959,1.959,0,0,0,81.8,67.761Zm6.223-3.595a5.571,5.571,0,0,1,1.037-3.52,3.529,3.529,0,0,1,5.361-.189V55.5h1.626V69H94.555l-.079-1.02a3.311,3.311,0,0,1-2.716,1.2,3.248,3.248,0,0,1-2.694-1.354,5.634,5.634,0,0,1-1.042-3.533Zm1.626.185a4.218,4.218,0,0,0,.668,2.531,2.159,2.159,0,0,0,1.846.914,2.372,2.372,0,0,0,2.259-1.389V62.039a2.39,2.39,0,0,0-2.241-1.345,2.17,2.17,0,0,0-1.863.923A4.644,4.644,0,0,0,89.651,64.351Zm8.49-.193a5.617,5.617,0,0,1,.549-2.514,4.1,4.1,0,0,1,1.529-1.723,4.163,4.163,0,0,1,2.237-.606,4.01,4.01,0,0,1,3.142,1.345,5.174,5.174,0,0,1,1.2,3.577v.114a5.666,5.666,0,0,1-.532,2.492,4.038,4.038,0,0,1-1.521,1.718,4.211,4.211,0,0,1-2.272.615,4,4,0,0,1-3.133-1.345,5.147,5.147,0,0,1-1.2-3.56Zm1.635.193a4.068,4.068,0,0,0,.734,2.54,2.487,2.487,0,0,0,3.933-.013,4.449,4.449,0,0,0,.729-2.72,4.061,4.061,0,0,0-.743-2.536,2.361,2.361,0,0,0-1.973-.971,2.335,2.335,0,0,0-1.942.958A4.416,4.416,0,0,0,99.776,64.351Zm14.6,2.127a1.2,1.2,0,0,0-.5-1.024,4.78,4.78,0,0,0-1.731-.628,8.186,8.186,0,0,1-1.96-.633,2.788,2.788,0,0,1-1.072-.879,2.1,2.1,0,0,1-.347-1.213,2.467,2.467,0,0,1,.989-1.978,3.861,3.861,0,0,1,2.527-.809,3.974,3.974,0,0,1,2.624.835,2.652,2.652,0,0,1,1.006,2.136h-1.635a1.468,1.468,0,0,0-.567-1.151,2.124,2.124,0,0,0-1.428-.483,2.223,2.223,0,0,0-1.389.387,1.217,1.217,0,0,0-.5,1.011.986.986,0,0,0,.466.888,5.731,5.731,0,0,0,1.683.571,8.77,8.77,0,0,1,1.973.65,2.878,2.878,0,0,1,1.121.91,2.237,2.237,0,0,1,.365,1.3,2.434,2.434,0,0,1-1.02,2.043,4.277,4.277,0,0,1-2.646.769,4.789,4.789,0,0,1-2.021-.4,3.288,3.288,0,0,1-1.375-1.129,2.722,2.722,0,0,1-.5-1.569h1.626a1.683,1.683,0,0,0,.655,1.3,2.54,2.54,0,0,0,1.613.479,2.622,2.622,0,0,0,1.481-.374A1.148,1.148,0,0,0,114.375,66.478Zm16.233-2.127a5.694,5.694,0,0,1-.993,3.5,3.183,3.183,0,0,1-2.689,1.327,3.488,3.488,0,0,1-2.725-1.1v4.579h-1.626V59.49h1.485l.079,1.055a3.35,3.35,0,0,1,2.76-1.23,3.243,3.243,0,0,1,2.711,1.292,5.756,5.756,0,0,1,1,3.595Zm-1.626-.185a4.2,4.2,0,0,0-.686-2.54,2.208,2.208,0,0,0-1.881-.932A2.39,2.39,0,0,0,124.2,62v4.544a2.4,2.4,0,0,0,2.232,1.3,2.2,2.2,0,0,0,1.859-.927A4.587,4.587,0,0,0,128.982,64.166ZM138.544,69a3.416,3.416,0,0,1-.229-1,3.628,3.628,0,0,1-2.707,1.178,3.357,3.357,0,0,1-2.307-.8,2.573,2.573,0,0,1-.9-2.017,2.688,2.688,0,0,1,1.129-2.307,5.325,5.325,0,0,1,3.177-.822h1.582v-.747a1.826,1.826,0,0,0-.51-1.358,2.049,2.049,0,0,0-1.5-.505,2.371,2.371,0,0,0-1.459.439,1.3,1.3,0,0,0-.589,1.063h-1.635a2.244,2.244,0,0,1,.505-1.375,3.449,3.449,0,0,1,1.371-1.05,4.613,4.613,0,0,1,1.9-.387,3.759,3.759,0,0,1,2.575.822,2.964,2.964,0,0,1,.967,2.263v4.377a5.351,5.351,0,0,0,.334,2.083V69Zm-2.7-1.239a2.858,2.858,0,0,0,1.45-.4,2.392,2.392,0,0,0,.993-1.028V64.386h-1.274q-2.988,0-2.988,1.749a1.48,1.48,0,0,0,.51,1.2A1.959,1.959,0,0,0,135.846,67.761Zm11.215-6.812a4.873,4.873,0,0,0-.8-.062,2.143,2.143,0,0,0-2.171,1.362V69h-1.626V59.49h1.582l.026,1.1a2.532,2.532,0,0,1,2.268-1.274,1.661,1.661,0,0,1,.721.123ZM154.075,69a3.416,3.416,0,0,1-.229-1,3.628,3.628,0,0,1-2.707,1.178,3.357,3.357,0,0,1-2.307-.8,2.573,2.573,0,0,1-.9-2.017,2.688,2.688,0,0,1,1.129-2.307,5.325,5.325,0,0,1,3.177-.822h1.582v-.747a1.826,1.826,0,0,0-.51-1.358,2.049,2.049,0,0,0-1.5-.505,2.371,2.371,0,0,0-1.459.439,1.3,1.3,0,0,0-.589,1.063h-1.635a2.244,2.244,0,0,1,.505-1.375A3.449,3.449,0,0,1,150,59.7a4.613,4.613,0,0,1,1.9-.387,3.759,3.759,0,0,1,2.575.822,2.964,2.964,0,0,1,.967,2.263v4.377a5.351,5.351,0,0,0,.334,2.083V69Zm-2.7-1.239a2.858,2.858,0,0,0,1.45-.4,2.392,2.392,0,0,0,.993-1.028V64.386h-1.274q-2.988,0-2.988,1.749a1.48,1.48,0,0,0,.51,1.2A1.959,1.959,0,0,0,151.376,67.761Zm16.611-1.283a1.2,1.2,0,0,0-.5-1.024,4.78,4.78,0,0,0-1.731-.628,8.186,8.186,0,0,1-1.96-.633,2.788,2.788,0,0,1-1.072-.879,2.1,2.1,0,0,1-.347-1.213,2.467,2.467,0,0,1,.989-1.978,3.861,3.861,0,0,1,2.527-.809,3.974,3.974,0,0,1,2.624.835,2.652,2.652,0,0,1,1.006,2.136h-1.635a1.468,1.468,0,0,0-.567-1.151,2.124,2.124,0,0,0-1.428-.483,2.223,2.223,0,0,0-1.389.387,1.217,1.217,0,0,0-.5,1.011.986.986,0,0,0,.466.888,5.731,5.731,0,0,0,1.683.571,8.77,8.77,0,0,1,1.973.65,2.878,2.878,0,0,1,1.121.91,2.237,2.237,0,0,1,.365,1.3,2.434,2.434,0,0,1-1.02,2.043,4.277,4.277,0,0,1-2.646.769,4.789,4.789,0,0,1-2.021-.4,3.288,3.288,0,0,1-1.375-1.129,2.722,2.722,0,0,1-.5-1.569h1.626a1.683,1.683,0,0,0,.655,1.3,2.54,2.54,0,0,0,1.613.479,2.622,2.622,0,0,0,1.481-.374A1.148,1.148,0,0,0,167.988,66.478ZM177.6,68.06a3.454,3.454,0,0,1-2.786,1.116,2.956,2.956,0,0,1-2.316-.883,3.823,3.823,0,0,1-.8-2.615V59.49h1.626v6.144q0,2.162,1.758,2.162a2.434,2.434,0,0,0,2.479-1.389V59.49h1.626V69h-1.547ZM17.251,82.188v2.3h1.775v1.257H17.251v5.9a1.32,1.32,0,0,0,.237.858,1,1,0,0,0,.809.286,3.937,3.937,0,0,0,.773-.105V94a4.742,4.742,0,0,1-1.248.175,2.025,2.025,0,0,1-1.644-.659,2.832,2.832,0,0,1-.554-1.872v-5.9H13.894V84.49h1.731v-2.3Zm8.271,3.762a4.873,4.873,0,0,0-.8-.062,2.143,2.143,0,0,0-2.171,1.362V94H20.925V84.49h1.582l.026,1.1A2.532,2.532,0,0,1,24.8,84.314a1.661,1.661,0,0,1,.721.123ZM32.887,94a3.416,3.416,0,0,1-.229-1,3.628,3.628,0,0,1-2.707,1.178,3.357,3.357,0,0,1-2.307-.8,2.573,2.573,0,0,1-.9-2.017,2.688,2.688,0,0,1,1.129-2.307,5.325,5.325,0,0,1,3.177-.822h1.582v-.747a1.826,1.826,0,0,0-.51-1.358,2.049,2.049,0,0,0-1.5-.505,2.371,2.371,0,0,0-1.459.439,1.3,1.3,0,0,0-.589,1.063H26.937a2.244,2.244,0,0,1,.505-1.375,3.449,3.449,0,0,1,1.371-1.05,4.613,4.613,0,0,1,1.9-.387,3.759,3.759,0,0,1,2.575.822,2.964,2.964,0,0,1,.967,2.263v4.377a5.351,5.351,0,0,0,.334,2.083V94Zm-2.7-1.239a2.858,2.858,0,0,0,1.45-.4,2.392,2.392,0,0,0,.993-1.028V89.386H31.357q-2.988,0-2.988,1.749a1.48,1.48,0,0,0,.51,1.2A1.959,1.959,0,0,0,30.188,92.761Zm1.5-12.261H33.66L31.3,83.084l-1.31,0ZM37.352,94V85.747h-1.5V84.49h1.5v-.809a3.3,3.3,0,0,1,.91-2.479,3.528,3.528,0,0,1,2.571-.888,7.741,7.741,0,0,1,2.487.536l-.272,1.371a5.633,5.633,0,0,0-2.092-.439,2.047,2.047,0,0,0-1.507.47,1.938,1.938,0,0,0-.461,1.411v.826h1.942v1.257H38.986V94Zm6.776,0H42.493V84.49h1.635Zm6.46-1.151a2.342,2.342,0,0,0,1.521-.527A1.855,1.855,0,0,0,52.829,91h1.538a2.949,2.949,0,0,1-.562,1.556,3.7,3.7,0,0,1-1.384,1.178,3.994,3.994,0,0,1-1.833.439,3.918,3.918,0,0,1-3.089-1.3,5.163,5.163,0,0,1-1.147-3.546v-.272a5.725,5.725,0,0,1,.51-2.47,3.883,3.883,0,0,1,1.463-1.679,4.157,4.157,0,0,1,2.254-.6,3.814,3.814,0,0,1,2.659.958,3.424,3.424,0,0,1,1.129,2.487H52.829a2.241,2.241,0,0,0-.7-1.516,2.174,2.174,0,0,0-1.551-.593,2.276,2.276,0,0,0-1.92.892,4.19,4.19,0,0,0-.681,2.58v.308a4.106,4.106,0,0,0,.677,2.531A2.287,2.287,0,0,0,50.588,92.849Zm5.177-3.691a5.617,5.617,0,0,1,.549-2.514,4.1,4.1,0,0,1,1.529-1.723,4.163,4.163,0,0,1,2.237-.606,4.01,4.01,0,0,1,3.142,1.345,5.174,5.174,0,0,1,1.2,3.577v.114a5.666,5.666,0,0,1-.532,2.492,4.038,4.038,0,0,1-1.521,1.718,4.211,4.211,0,0,1-2.272.615,4,4,0,0,1-3.133-1.345,5.147,5.147,0,0,1-1.2-3.56Zm1.635.193a4.068,4.068,0,0,0,.734,2.54,2.487,2.487,0,0,0,3.933-.013,4.449,4.449,0,0,0,.729-2.72,4.061,4.061,0,0,0-.743-2.536,2.361,2.361,0,0,0-1.973-.971,2.335,2.335,0,0,0-1.942.958A4.416,4.416,0,0,0,57.4,89.351Zm9.009,7.2-.923-.633a4.241,4.241,0,0,0,.861-2.373V92.075h1.591V93.35a4,4,0,0,1-.435,1.775A4.156,4.156,0,0,1,66.408,96.549Zm7.646-7.383a5.582,5.582,0,0,1,1.028-3.546,3.629,3.629,0,0,1,5.423-.171l.07-.958H82.07V97.656H80.444V93.121a3.412,3.412,0,0,1-2.619,1.055,3.28,3.28,0,0,1-2.747-1.34,5.706,5.706,0,0,1-1.024-3.555Zm1.626.185a4.231,4.231,0,0,0,.69,2.566,2.195,2.195,0,0,0,1.859.932,2.435,2.435,0,0,0,2.215-1.283V86.907a2.442,2.442,0,0,0-2.2-1.257,2.211,2.211,0,0,0-1.872.936A4.606,4.606,0,0,0,75.681,89.351ZM90.552,93.06a3.454,3.454,0,0,1-2.786,1.116,2.956,2.956,0,0,1-2.316-.883,3.823,3.823,0,0,1-.8-2.615V84.49h1.626v6.144q0,2.162,1.758,2.162a2.434,2.434,0,0,0,2.479-1.389V84.49h1.626V94H90.587Zm8,1.116a4.155,4.155,0,0,1-3.146-1.27,4.714,4.714,0,0,1-1.213-3.4v-.3a5.707,5.707,0,0,1,.541-2.527,4.217,4.217,0,0,1,1.512-1.74,3.8,3.8,0,0,1,2.1-.628,3.562,3.562,0,0,1,2.883,1.222,5.289,5.289,0,0,1,1.028,3.5v.677H95.816a3.38,3.38,0,0,0,.822,2.272,2.583,2.583,0,0,0,2,.866A2.832,2.832,0,0,0,100.1,92.5a3.666,3.666,0,0,0,1.046-.932l.993.773A3.993,3.993,0,0,1,98.55,94.176Zm-.2-8.525a2.169,2.169,0,0,0-1.652.716,3.482,3.482,0,0,0-.826,2.008h4.764v-.123a3.1,3.1,0,0,0-.668-1.92A2.042,2.042,0,0,0,98.348,85.65ZM114.467,94a3.416,3.416,0,0,1-.229-1,3.628,3.628,0,0,1-2.707,1.178,3.357,3.357,0,0,1-2.307-.8,2.573,2.573,0,0,1-.9-2.017,2.688,2.688,0,0,1,1.129-2.307,5.325,5.325,0,0,1,3.177-.822h1.582v-.747a1.826,1.826,0,0,0-.51-1.358,2.049,2.049,0,0,0-1.5-.505,2.371,2.371,0,0,0-1.459.439,1.3,1.3,0,0,0-.589,1.063h-1.635a2.244,2.244,0,0,1,.505-1.375,3.449,3.449,0,0,1,1.371-1.05,4.613,4.613,0,0,1,1.9-.387,3.759,3.759,0,0,1,2.575.822,2.964,2.964,0,0,1,.967,2.263v4.377a5.351,5.351,0,0,0,.334,2.083V94Zm-2.7-1.239a2.858,2.858,0,0,0,1.45-.4,2.392,2.392,0,0,0,.993-1.028V89.386h-1.274q-2.988,0-2.988,1.749a1.48,1.48,0,0,0,.51,1.2A1.959,1.959,0,0,0,111.769,92.761Zm12.155-1.283a1.2,1.2,0,0,0-.5-1.024,4.78,4.78,0,0,0-1.731-.628,8.186,8.186,0,0,1-1.96-.633,2.788,2.788,0,0,1-1.072-.879,2.1,2.1,0,0,1-.347-1.213,2.467,2.467,0,0,1,.989-1.978,3.861,3.861,0,0,1,2.527-.809,3.974,3.974,0,0,1,2.624.835,2.652,2.652,0,0,1,1.006,2.136h-1.635a1.468,1.468,0,0,0-.567-1.151,2.124,2.124,0,0,0-1.428-.483,2.223,2.223,0,0,0-1.389.387,1.217,1.217,0,0,0-.5,1.011.986.986,0,0,0,.466.888,5.731,5.731,0,0,0,1.683.571,8.77,8.77,0,0,1,1.973.65,2.878,2.878,0,0,1,1.121.91,2.237,2.237,0,0,1,.365,1.3,2.434,2.434,0,0,1-1.02,2.043,4.277,4.277,0,0,1-2.646.769,4.789,4.789,0,0,1-2.021-.4,3.288,3.288,0,0,1-1.375-1.129,2.722,2.722,0,0,1-.5-1.569h1.626a1.683,1.683,0,0,0,.655,1.3,2.54,2.54,0,0,0,1.613.479,2.622,2.622,0,0,0,1.481-.374A1.148,1.148,0,0,0,123.924,91.478Zm7.69,2.7a4.155,4.155,0,0,1-3.146-1.27,4.714,4.714,0,0,1-1.213-3.4v-.3a5.707,5.707,0,0,1,.541-2.527,4.217,4.217,0,0,1,1.512-1.74,3.8,3.8,0,0,1,2.1-.628,3.562,3.562,0,0,1,2.883,1.222,5.289,5.289,0,0,1,1.028,3.5v.677h-6.442a3.38,3.38,0,0,0,.822,2.272,2.583,2.583,0,0,0,2,.866,2.832,2.832,0,0,0,1.459-.352,3.666,3.666,0,0,0,1.046-.932l.993.773A3.993,3.993,0,0,1,131.614,94.176Zm-.2-8.525a2.169,2.169,0,0,0-1.652.716,3.482,3.482,0,0,0-.826,2.008H133.7v-.123a3.1,3.1,0,0,0-.668-1.92A2.042,2.042,0,0,0,131.412,85.65Zm5.405,3.516a5.589,5.589,0,0,1,1.028-3.538,3.545,3.545,0,0,1,5.44-.083l.079-1.055h1.485v9.281a3.869,3.869,0,0,1-1.094,2.909,4.038,4.038,0,0,1-2.94,1.063A4.891,4.891,0,0,1,138.8,97.3a3.465,3.465,0,0,1-1.5-1.2l.844-.976a3.18,3.18,0,0,0,2.558,1.292,2.491,2.491,0,0,0,1.85-.668,2.553,2.553,0,0,0,.664-1.881v-.817a3.342,3.342,0,0,1-2.663,1.125,3.248,3.248,0,0,1-2.7-1.345A5.876,5.876,0,0,1,136.817,89.166Zm1.635.185a4.264,4.264,0,0,0,.659,2.527,2.142,2.142,0,0,0,1.846.918,2.382,2.382,0,0,0,2.259-1.4V87.057a2.41,2.41,0,0,0-2.241-1.362,2.161,2.161,0,0,0-1.854.923A4.644,4.644,0,0,0,138.452,89.351Zm14.722,3.709a3.454,3.454,0,0,1-2.786,1.116,2.956,2.956,0,0,1-2.316-.883,3.823,3.823,0,0,1-.8-2.615V84.49h1.626v6.144q0,2.162,1.758,2.162a2.434,2.434,0,0,0,2.479-1.389V84.49h1.626V94h-1.547Zm8.648-7.11a4.873,4.873,0,0,0-.8-.062,2.143,2.143,0,0,0-2.171,1.362V94h-1.626V84.49h1.582l.026,1.1a2.532,2.532,0,0,1,2.268-1.274,1.661,1.661,0,0,1,.721.123ZM168.836,94a3.416,3.416,0,0,1-.229-1,3.628,3.628,0,0,1-2.707,1.178,3.357,3.357,0,0,1-2.307-.8,2.573,2.573,0,0,1-.9-2.017,2.688,2.688,0,0,1,1.129-2.307A5.325,5.325,0,0,1,167,88.234h1.582v-.747a1.826,1.826,0,0,0-.51-1.358,2.049,2.049,0,0,0-1.5-.505,2.371,2.371,0,0,0-1.459.439,1.3,1.3,0,0,0-.589,1.063h-1.635a2.244,2.244,0,0,1,.505-1.375,3.449,3.449,0,0,1,1.371-1.05,4.613,4.613,0,0,1,1.9-.387,3.759,3.759,0,0,1,2.575.822,2.964,2.964,0,0,1,.967,2.263v4.377a5.351,5.351,0,0,0,.334,2.083V94Zm-2.7-1.239a2.858,2.858,0,0,0,1.45-.4,2.392,2.392,0,0,0,.993-1.028V89.386h-1.274q-2.988,0-2.988,1.749a1.48,1.48,0,0,0,.51,1.2A1.959,1.959,0,0,0,166.138,92.761Zm16.611-1.283a1.2,1.2,0,0,0-.5-1.024,4.78,4.78,0,0,0-1.731-.628,8.186,8.186,0,0,1-1.96-.633,2.788,2.788,0,0,1-1.072-.879,2.1,2.1,0,0,1-.347-1.213,2.467,2.467,0,0,1,.989-1.978,3.861,3.861,0,0,1,2.527-.809,3.974,3.974,0,0,1,2.624.835,2.652,2.652,0,0,1,1.006,2.136h-1.635a1.468,1.468,0,0,0-.567-1.151,2.124,2.124,0,0,0-1.428-.483,2.223,2.223,0,0,0-1.389.387,1.217,1.217,0,0,0-.5,1.011.986.986,0,0,0,.466.888,5.731,5.731,0,0,0,1.683.571,8.77,8.77,0,0,1,1.973.65,2.878,2.878,0,0,1,1.121.91,2.237,2.237,0,0,1,.365,1.3,2.434,2.434,0,0,1-1.02,2.043,4.277,4.277,0,0,1-2.646.769,4.789,4.789,0,0,1-2.021-.4,3.288,3.288,0,0,1-1.375-1.129,2.722,2.722,0,0,1-.5-1.569h1.626a1.683,1.683,0,0,0,.655,1.3,2.54,2.54,0,0,0,1.613.479,2.622,2.622,0,0,0,1.481-.374A1.148,1.148,0,0,0,182.749,91.478Zm9.615,1.582a3.454,3.454,0,0,1-2.786,1.116,2.956,2.956,0,0,1-2.316-.883,3.823,3.823,0,0,1-.8-2.615V84.49h1.626v6.144q0,2.162,1.758,2.162a2.434,2.434,0,0,0,2.479-1.389V84.49h1.626V94H192.4ZM6.493,119.176a4.155,4.155,0,0,1-3.146-1.27,4.714,4.714,0,0,1-1.213-3.4v-.3a5.707,5.707,0,0,1,.541-2.527,4.217,4.217,0,0,1,1.512-1.74,3.8,3.8,0,0,1,2.1-.628,3.562,3.562,0,0,1,2.883,1.222,5.289,5.289,0,0,1,1.028,3.5v.677H3.76a3.38,3.38,0,0,0,.822,2.272,2.583,2.583,0,0,0,2,.866A2.832,2.832,0,0,0,8.04,117.5a3.666,3.666,0,0,0,1.046-.932l.993.773A3.993,3.993,0,0,1,6.493,119.176Zm-.2-8.525a2.169,2.169,0,0,0-1.652.716,3.482,3.482,0,0,0-.826,2.008H8.576v-.123a3.1,3.1,0,0,0-.668-1.92A2.042,2.042,0,0,0,6.291,110.65Zm7.33-1.16.053,1.2a3.465,3.465,0,0,1,2.848-1.371q3.015,0,3.041,3.4V119H17.937v-6.293a2.189,2.189,0,0,0-.47-1.521,1.884,1.884,0,0,0-1.437-.492,2.347,2.347,0,0,0-1.389.422,2.865,2.865,0,0,0-.932,1.107V119H12.083v-9.51ZM23.781,119H22.155V105.5h1.626Zm8.473,0a3.416,3.416,0,0,1-.229-1,3.628,3.628,0,0,1-2.707,1.178,3.357,3.357,0,0,1-2.307-.8,2.573,2.573,0,0,1-.9-2.017,2.688,2.688,0,0,1,1.129-2.307,5.325,5.325,0,0,1,3.177-.822H32v-.747a1.826,1.826,0,0,0-.51-1.358,2.049,2.049,0,0,0-1.5-.505,2.371,2.371,0,0,0-1.459.439,1.3,1.3,0,0,0-.589,1.063H26.3a2.244,2.244,0,0,1,.505-1.375,3.449,3.449,0,0,1,1.371-1.05,4.613,4.613,0,0,1,1.9-.387,3.759,3.759,0,0,1,2.575.822,2.964,2.964,0,0,1,.967,2.263v4.377a5.351,5.351,0,0,0,.334,2.083V119Zm-2.7-1.239a2.858,2.858,0,0,0,1.45-.4A2.392,2.392,0,0,0,32,116.337v-1.951H30.725q-2.988,0-2.988,1.749a1.48,1.48,0,0,0,.51,1.2A1.959,1.959,0,0,0,29.556,117.761Zm10.433.088a2.342,2.342,0,0,0,1.521-.527A1.855,1.855,0,0,0,42.229,116h1.538a2.949,2.949,0,0,1-.562,1.556,3.7,3.7,0,0,1-1.384,1.178,3.994,3.994,0,0,1-1.833.439,3.918,3.918,0,0,1-3.089-1.3,5.163,5.163,0,0,1-1.147-3.546v-.272a5.725,5.725,0,0,1,.51-2.47,3.883,3.883,0,0,1,1.463-1.679,4.157,4.157,0,0,1,2.254-.6,3.814,3.814,0,0,1,2.659.958,3.424,3.424,0,0,1,1.129,2.487H42.229a2.241,2.241,0,0,0-.7-1.516,2.174,2.174,0,0,0-1.551-.593,2.276,2.276,0,0,0-1.92.892,4.19,4.19,0,0,0-.681,2.58v.308a4.106,4.106,0,0,0,.677,2.531A2.287,2.287,0,0,0,39.988,117.849Zm9.554,1.327a4.155,4.155,0,0,1-3.146-1.27,4.714,4.714,0,0,1-1.213-3.4v-.3a5.707,5.707,0,0,1,.541-2.527,4.217,4.217,0,0,1,1.512-1.74,3.8,3.8,0,0,1,2.1-.628,3.562,3.562,0,0,1,2.883,1.222,5.289,5.289,0,0,1,1.028,3.5v.677H46.809a3.38,3.38,0,0,0,.822,2.272,2.583,2.583,0,0,0,2,.866,2.832,2.832,0,0,0,1.459-.352,3.666,3.666,0,0,0,1.046-.932l.993.773A3.993,3.993,0,0,1,49.542,119.176Zm-.2-8.525a2.169,2.169,0,0,0-1.652.716,3.482,3.482,0,0,0-.826,2.008h4.764v-.123a3.1,3.1,0,0,0-.668-1.92A2.042,2.042,0,0,0,49.34,110.65Zm14.063,7.2a2.342,2.342,0,0,0,1.521-.527A1.855,1.855,0,0,0,65.644,116h1.538a2.949,2.949,0,0,1-.562,1.556,3.7,3.7,0,0,1-1.384,1.178,3.994,3.994,0,0,1-1.833.439,3.918,3.918,0,0,1-3.089-1.3,5.163,5.163,0,0,1-1.147-3.546v-.272a5.725,5.725,0,0,1,.51-2.47,3.883,3.883,0,0,1,1.463-1.679,4.157,4.157,0,0,1,2.254-.6,3.814,3.814,0,0,1,2.659.958,3.424,3.424,0,0,1,1.129,2.487H65.644a2.241,2.241,0,0,0-.7-1.516,2.174,2.174,0,0,0-1.551-.593,2.276,2.276,0,0,0-1.92.892,4.19,4.19,0,0,0-.681,2.58v.308a4.106,4.106,0,0,0,.677,2.531A2.287,2.287,0,0,0,63.4,117.849Zm5.177-3.691a5.617,5.617,0,0,1,.549-2.514,4.1,4.1,0,0,1,1.529-1.723,4.163,4.163,0,0,1,2.237-.606,4.01,4.01,0,0,1,3.142,1.345,5.174,5.174,0,0,1,1.2,3.577v.114a5.666,5.666,0,0,1-.532,2.492,4.038,4.038,0,0,1-1.521,1.718,4.211,4.211,0,0,1-2.272.615,4,4,0,0,1-3.133-1.345,5.147,5.147,0,0,1-1.2-3.56Zm1.635.193a4.068,4.068,0,0,0,.734,2.54,2.487,2.487,0,0,0,3.933-.013,4.449,4.449,0,0,0,.729-2.72,4.061,4.061,0,0,0-.743-2.536,2.361,2.361,0,0,0-1.973-.971,2.335,2.335,0,0,0-1.942.958A4.416,4.416,0,0,0,70.214,114.351Zm10.6-4.86.053,1.2a3.465,3.465,0,0,1,2.848-1.371q3.015,0,3.041,3.4V119H85.129v-6.293a2.189,2.189,0,0,0-.47-1.521,1.884,1.884,0,0,0-1.437-.492,2.347,2.347,0,0,0-1.389.422,2.865,2.865,0,0,0-.932,1.107V119H79.275v-9.51ZM95.43,119H93.8V105.5H95.43Zm8.473,0a3.416,3.416,0,0,1-.229-1,3.628,3.628,0,0,1-2.707,1.178,3.357,3.357,0,0,1-2.307-.8,2.573,2.573,0,0,1-.9-2.017,2.688,2.688,0,0,1,1.129-2.307,5.325,5.325,0,0,1,3.177-.822h1.582v-.747a1.826,1.826,0,0,0-.51-1.358,2.049,2.049,0,0,0-1.5-.505,2.371,2.371,0,0,0-1.459.439,1.3,1.3,0,0,0-.589,1.063H97.952a2.244,2.244,0,0,1,.505-1.375,3.449,3.449,0,0,1,1.371-1.05,4.613,4.613,0,0,1,1.9-.387,3.759,3.759,0,0,1,2.575.822,2.964,2.964,0,0,1,.967,2.263v4.377a5.351,5.351,0,0,0,.334,2.083V119Zm-2.7-1.239a2.858,2.858,0,0,0,1.45-.4,2.392,2.392,0,0,0,.993-1.028v-1.951h-1.274q-2.988,0-2.988,1.749a1.48,1.48,0,0,0,.51,1.2A1.959,1.959,0,0,0,101.2,117.761Zm12.155-1.283a1.2,1.2,0,0,0-.5-1.024,4.78,4.78,0,0,0-1.731-.628,8.186,8.186,0,0,1-1.96-.633,2.788,2.788,0,0,1-1.072-.879,2.1,2.1,0,0,1-.347-1.213,2.467,2.467,0,0,1,.989-1.978,3.861,3.861,0,0,1,2.527-.809,3.974,3.974,0,0,1,2.624.835,2.652,2.652,0,0,1,1.006,2.136h-1.635a1.468,1.468,0,0,0-.567-1.151,2.124,2.124,0,0,0-1.428-.483,2.223,2.223,0,0,0-1.389.387,1.217,1.217,0,0,0-.5,1.011.986.986,0,0,0,.466.888,5.731,5.731,0,0,0,1.683.571,8.77,8.77,0,0,1,1.973.65,2.878,2.878,0,0,1,1.121.91,2.237,2.237,0,0,1,.365,1.3,2.434,2.434,0,0,1-1.02,2.043,4.277,4.277,0,0,1-2.646.769,4.789,4.789,0,0,1-2.021-.4,3.288,3.288,0,0,1-1.375-1.129,2.722,2.722,0,0,1-.5-1.569h1.626a1.683,1.683,0,0,0,.655,1.3,2.54,2.54,0,0,0,1.613.479,2.622,2.622,0,0,0,1.481-.374A1.148,1.148,0,0,0,113.359,116.478Zm16.233-2.127a5.694,5.694,0,0,1-.993,3.5,3.183,3.183,0,0,1-2.689,1.327,3.488,3.488,0,0,1-2.725-1.1v4.579H121.56V109.49h1.485l.079,1.055a3.35,3.35,0,0,1,2.76-1.23,3.243,3.243,0,0,1,2.711,1.292,5.756,5.756,0,0,1,1,3.595Zm-1.626-.185a4.2,4.2,0,0,0-.686-2.54,2.208,2.208,0,0,0-1.881-.932,2.39,2.39,0,0,0-2.215,1.31v4.544a2.4,2.4,0,0,0,2.232,1.3,2.2,2.2,0,0,0,1.859-.927A4.587,4.587,0,0,0,127.967,114.166Zm8.288-3.217a4.873,4.873,0,0,0-.8-.062,2.143,2.143,0,0,0-2.171,1.362V119h-1.626v-9.51h1.582l.026,1.1a2.532,2.532,0,0,1,2.268-1.274,1.661,1.661,0,0,1,.721.123ZM139.516,119H137.89v-9.51h1.626Zm-1.758-12.032A.971.971,0,0,1,138,106.3a.907.907,0,0,1,.716-.272.922.922,0,0,1,.721.272.96.96,0,0,1,.246.668.929.929,0,0,1-.246.659.938.938,0,0,1-.721.264.924.924,0,0,1-.716-.264A.938.938,0,0,1,137.758,106.968Zm5.9,2.522.053,1.2a3.465,3.465,0,0,1,2.848-1.371q3.015,0,3.041,3.4V119h-1.626v-6.293a2.189,2.189,0,0,0-.47-1.521,1.884,1.884,0,0,0-1.437-.492,2.347,2.347,0,0,0-1.389.422,2.865,2.865,0,0,0-.932,1.107V119h-1.626v-9.51Zm12.208,8.358a2.342,2.342,0,0,0,1.521-.527A1.855,1.855,0,0,0,158.1,116h1.538a2.949,2.949,0,0,1-.562,1.556,3.7,3.7,0,0,1-1.384,1.178,3.994,3.994,0,0,1-1.833.439,3.918,3.918,0,0,1-3.089-1.3,5.163,5.163,0,0,1-1.147-3.546v-.272a5.725,5.725,0,0,1,.51-2.47,3.883,3.883,0,0,1,1.463-1.679,4.157,4.157,0,0,1,2.254-.6,3.814,3.814,0,0,1,2.659.958,3.424,3.424,0,0,1,1.129,2.487H158.1a2.241,2.241,0,0,0-.7-1.516,2.174,2.174,0,0,0-1.551-.593,2.276,2.276,0,0,0-1.92.892,4.19,4.19,0,0,0-.681,2.58v.308a4.106,4.106,0,0,0,.677,2.531A2.287,2.287,0,0,0,155.863,117.849ZM163.237,119h-1.626v-9.51h1.626Zm-1.758-12.032a.971.971,0,0,1,.242-.668.907.907,0,0,1,.716-.272.922.922,0,0,1,.721.272.96.96,0,0,1,.246.668.929.929,0,0,1-.246.659.938.938,0,0,1-.721.264.924.924,0,0,1-.716-.264A.938.938,0,0,1,161.479,106.968Zm12.393,7.383a5.694,5.694,0,0,1-.993,3.5,3.183,3.183,0,0,1-2.689,1.327,3.488,3.488,0,0,1-2.725-1.1v4.579h-1.626V109.49h1.485l.079,1.055a3.35,3.35,0,0,1,2.76-1.23,3.243,3.243,0,0,1,2.711,1.292,5.756,5.756,0,0,1,1,3.595Zm-1.626-.185a4.2,4.2,0,0,0-.686-2.54,2.208,2.208,0,0,0-1.881-.932,2.39,2.39,0,0,0-2.215,1.31v4.544a2.4,2.4,0,0,0,2.232,1.3,2.2,2.2,0,0,0,1.859-.927A4.587,4.587,0,0,0,172.246,114.166ZM181.809,119a3.416,3.416,0,0,1-.229-1,3.628,3.628,0,0,1-2.707,1.178,3.357,3.357,0,0,1-2.307-.8,2.573,2.573,0,0,1-.9-2.017,2.688,2.688,0,0,1,1.129-2.307,5.325,5.325,0,0,1,3.177-.822h1.582v-.747a1.826,1.826,0,0,0-.51-1.358,2.049,2.049,0,0,0-1.5-.505,2.371,2.371,0,0,0-1.459.439,1.3,1.3,0,0,0-.589,1.063h-1.635a2.244,2.244,0,0,1,.505-1.375,3.449,3.449,0,0,1,1.371-1.05,4.613,4.613,0,0,1,1.9-.387,3.759,3.759,0,0,1,2.575.822,2.964,2.964,0,0,1,.967,2.263v4.377a5.351,5.351,0,0,0,.334,2.083V119Zm-2.7-1.239a2.858,2.858,0,0,0,1.45-.4,2.392,2.392,0,0,0,.993-1.028v-1.951h-1.274q-2.988,0-2.988,1.749a1.48,1.48,0,0,0,.51,1.2A1.959,1.959,0,0,0,179.11,117.761ZM187.5,119h-1.626V105.5H187.5Zm6.548.176a4.155,4.155,0,0,1-3.146-1.27,4.714,4.714,0,0,1-1.213-3.4v-.3a5.707,5.707,0,0,1,.541-2.527,4.217,4.217,0,0,1,1.512-1.74,3.8,3.8,0,0,1,2.1-.628,3.562,3.562,0,0,1,2.883,1.222,5.289,5.289,0,0,1,1.028,3.5v.677H191.31a3.38,3.38,0,0,0,.822,2.272,2.583,2.583,0,0,0,2,.866,2.832,2.832,0,0,0,1.459-.352,3.666,3.666,0,0,0,1.046-.932l.993.773A3.993,3.993,0,0,1,194.043,119.176Zm-.2-8.525a2.169,2.169,0,0,0-1.652.716,3.482,3.482,0,0,0-.826,2.008h4.764v-.123a3.1,3.1,0,0,0-.668-1.92A2.042,2.042,0,0,0,193.841,110.65Zm11.329,5.827a1.2,1.2,0,0,0-.5-1.024,4.78,4.78,0,0,0-1.731-.628,8.186,8.186,0,0,1-1.96-.633,2.788,2.788,0,0,1-1.072-.879,2.1,2.1,0,0,1-.347-1.213,2.467,2.467,0,0,1,.989-1.978,3.861,3.861,0,0,1,2.527-.809,3.974,3.974,0,0,1,2.624.835,2.652,2.652,0,0,1,1.006,2.136h-1.635a1.468,1.468,0,0,0-.567-1.151,2.124,2.124,0,0,0-1.428-.483,2.223,2.223,0,0,0-1.389.387,1.217,1.217,0,0,0-.5,1.011.986.986,0,0,0,.466.888,5.731,5.731,0,0,0,1.683.571,8.77,8.77,0,0,1,1.973.65,2.878,2.878,0,0,1,1.121.91,2.237,2.237,0,0,1,.365,1.3,2.434,2.434,0,0,1-1.02,2.043,4.277,4.277,0,0,1-2.646.769,4.789,4.789,0,0,1-2.021-.4,3.288,3.288,0,0,1-1.375-1.129,2.722,2.722,0,0,1-.5-1.569h1.626a1.683,1.683,0,0,0,.655,1.3,2.54,2.54,0,0,0,1.613.479,2.622,2.622,0,0,0,1.481-.374A1.148,1.148,0,0,0,205.17,116.478ZM29.894,135.949a4.873,4.873,0,0,0-.8-.062,2.143,2.143,0,0,0-2.171,1.362V144H25.3v-9.51h1.582l.026,1.1a2.532,2.532,0,0,1,2.268-1.274,1.661,1.661,0,0,1,.721.123Zm5.44,8.227a4.155,4.155,0,0,1-3.146-1.27,4.714,4.714,0,0,1-1.213-3.4v-.3a5.707,5.707,0,0,1,.541-2.527,4.217,4.217,0,0,1,1.512-1.74,3.8,3.8,0,0,1,2.1-.628,3.562,3.562,0,0,1,2.883,1.222,5.289,5.289,0,0,1,1.028,3.5v.677H32.6a3.38,3.38,0,0,0,.822,2.272,2.583,2.583,0,0,0,2,.866,2.832,2.832,0,0,0,1.459-.352,3.666,3.666,0,0,0,1.046-.932l.993.773A3.993,3.993,0,0,1,35.334,144.176Zm-.2-8.525a2.169,2.169,0,0,0-1.652.716,3.482,3.482,0,0,0-.826,2.008h4.764v-.123a3.1,3.1,0,0,0-.668-1.92A2.042,2.042,0,0,0,35.132,135.65Zm5.4,3.516a5.571,5.571,0,0,1,1.037-3.52,3.529,3.529,0,0,1,5.361-.189V130.5h1.626V144H47.059l-.079-1.02a3.311,3.311,0,0,1-2.716,1.2,3.248,3.248,0,0,1-2.694-1.354,5.634,5.634,0,0,1-1.042-3.533Zm1.626.185a4.218,4.218,0,0,0,.668,2.531,2.159,2.159,0,0,0,1.846.914,2.372,2.372,0,0,0,2.259-1.389v-4.368a2.39,2.39,0,0,0-2.241-1.345,2.17,2.17,0,0,0-1.863.923A4.644,4.644,0,0,0,42.155,139.351Zm12.867,4.825a4.155,4.155,0,0,1-3.146-1.27,4.714,4.714,0,0,1-1.213-3.4v-.3a5.707,5.707,0,0,1,.541-2.527,4.217,4.217,0,0,1,1.512-1.74,3.8,3.8,0,0,1,2.1-.628,3.562,3.562,0,0,1,2.883,1.222,5.289,5.289,0,0,1,1.028,3.5v.677H52.289a3.38,3.38,0,0,0,.822,2.272,2.583,2.583,0,0,0,2,.866,2.832,2.832,0,0,0,1.459-.352,3.666,3.666,0,0,0,1.046-.932l.993.773A3.993,3.993,0,0,1,55.022,144.176Zm-.2-8.525a2.169,2.169,0,0,0-1.652.716,3.482,3.482,0,0,0-.826,2.008H57.1v-.123a3.1,3.1,0,0,0-.668-1.92A2.042,2.042,0,0,0,54.82,135.65Zm11.329,5.827a1.2,1.2,0,0,0-.5-1.024,4.78,4.78,0,0,0-1.731-.628,8.186,8.186,0,0,1-1.96-.633,2.788,2.788,0,0,1-1.072-.879,2.1,2.1,0,0,1-.347-1.213,2.467,2.467,0,0,1,.989-1.978,3.861,3.861,0,0,1,2.527-.809,3.974,3.974,0,0,1,2.624.835,2.652,2.652,0,0,1,1.006,2.136H66.052a1.468,1.468,0,0,0-.567-1.151,2.124,2.124,0,0,0-1.428-.483,2.223,2.223,0,0,0-1.389.387,1.217,1.217,0,0,0-.5,1.011.986.986,0,0,0,.466.888,5.731,5.731,0,0,0,1.683.571,8.77,8.77,0,0,1,1.973.65,2.878,2.878,0,0,1,1.121.91,2.237,2.237,0,0,1,.365,1.3,2.434,2.434,0,0,1-1.02,2.043,4.277,4.277,0,0,1-2.646.769,4.789,4.789,0,0,1-2.021-.4,3.288,3.288,0,0,1-1.375-1.129,2.722,2.722,0,0,1-.5-1.569h1.626a1.683,1.683,0,0,0,.655,1.3,2.54,2.54,0,0,0,1.613.479,2.622,2.622,0,0,0,1.481-.374A1.148,1.148,0,0,0,66.149,141.478Zm7.8-2.312a5.571,5.571,0,0,1,1.037-3.52,3.529,3.529,0,0,1,5.361-.189V130.5h1.626V144H80.484l-.079-1.02a3.311,3.311,0,0,1-2.716,1.2A3.248,3.248,0,0,1,75,142.822a5.634,5.634,0,0,1-1.042-3.533Zm1.626.185a4.218,4.218,0,0,0,.668,2.531,2.159,2.159,0,0,0,1.846.914,2.372,2.372,0,0,0,2.259-1.389v-4.368a2.39,2.39,0,0,0-2.241-1.345,2.17,2.17,0,0,0-1.863.923A4.644,4.644,0,0,0,75.58,139.351Zm12.867,4.825a4.155,4.155,0,0,1-3.146-1.27,4.714,4.714,0,0,1-1.213-3.4v-.3a5.707,5.707,0,0,1,.541-2.527,4.217,4.217,0,0,1,1.512-1.74,3.8,3.8,0,0,1,2.1-.628,3.562,3.562,0,0,1,2.883,1.222,5.289,5.289,0,0,1,1.028,3.5v.677H85.713a3.38,3.38,0,0,0,.822,2.272,2.583,2.583,0,0,0,2,.866,2.832,2.832,0,0,0,1.459-.352,3.666,3.666,0,0,0,1.046-.932l.993.773A3.993,3.993,0,0,1,88.447,144.176Zm-.2-8.525a2.169,2.169,0,0,0-1.652.716,3.482,3.482,0,0,0-.826,2.008H90.53v-.123a3.1,3.1,0,0,0-.668-1.92A2.042,2.042,0,0,0,88.245,135.65Zm12.454-3.463v2.3h1.775v1.257H100.7v5.9a1.32,1.32,0,0,0,.237.858,1,1,0,0,0,.809.286,3.937,3.937,0,0,0,.773-.105V144a4.742,4.742,0,0,1-1.248.175,2.025,2.025,0,0,1-1.644-.659,2.832,2.832,0,0,1-.554-1.872v-5.9H97.341V134.49h1.731v-2.3Zm8.271,3.762a4.873,4.873,0,0,0-.8-.062A2.143,2.143,0,0,0,106,137.25V144h-1.626v-9.51h1.582l.026,1.1a2.532,2.532,0,0,1,2.268-1.274,1.661,1.661,0,0,1,.721.123ZM115.983,144a3.416,3.416,0,0,1-.229-1,3.628,3.628,0,0,1-2.707,1.178,3.357,3.357,0,0,1-2.307-.8,2.573,2.573,0,0,1-.9-2.017,2.688,2.688,0,0,1,1.129-2.307,5.325,5.325,0,0,1,3.177-.822h1.582v-.747a1.826,1.826,0,0,0-.51-1.358,2.049,2.049,0,0,0-1.5-.505,2.371,2.371,0,0,0-1.459.439,1.3,1.3,0,0,0-.589,1.063h-1.635a2.244,2.244,0,0,1,.505-1.375,3.449,3.449,0,0,1,1.371-1.05,4.613,4.613,0,0,1,1.9-.387,3.759,3.759,0,0,1,2.575.822,2.964,2.964,0,0,1,.967,2.263v4.377a5.351,5.351,0,0,0,.334,2.083V144Zm-2.7-1.239a2.858,2.858,0,0,0,1.45-.4,2.392,2.392,0,0,0,.993-1.028v-1.951h-1.274q-2.988,0-2.988,1.749a1.48,1.48,0,0,0,.51,1.2A1.959,1.959,0,0,0,113.285,142.761Zm8.156-8.271.053,1.2a3.465,3.465,0,0,1,2.848-1.371q3.015,0,3.041,3.4V144h-1.626v-6.293a2.189,2.189,0,0,0-.47-1.521,1.884,1.884,0,0,0-1.437-.492,2.347,2.347,0,0,0-1.389.422,2.865,2.865,0,0,0-.932,1.107V144H119.9v-9.51Zm13.931,6.987a1.2,1.2,0,0,0-.5-1.024,4.78,4.78,0,0,0-1.731-.628,8.186,8.186,0,0,1-1.96-.633,2.788,2.788,0,0,1-1.072-.879,2.1,2.1,0,0,1-.347-1.213,2.467,2.467,0,0,1,.989-1.978,3.861,3.861,0,0,1,2.527-.809,3.974,3.974,0,0,1,2.624.835,2.652,2.652,0,0,1,1.006,2.136h-1.635a1.468,1.468,0,0,0-.567-1.151,2.124,2.124,0,0,0-1.428-.483,2.223,2.223,0,0,0-1.389.387,1.217,1.217,0,0,0-.5,1.011.986.986,0,0,0,.466.888,5.731,5.731,0,0,0,1.683.571,8.77,8.77,0,0,1,1.973.65,2.878,2.878,0,0,1,1.121.91,2.237,2.237,0,0,1,.365,1.3,2.434,2.434,0,0,1-1.02,2.043,4.277,4.277,0,0,1-2.646.769,4.789,4.789,0,0,1-2.021-.4,3.288,3.288,0,0,1-1.375-1.129,2.722,2.722,0,0,1-.5-1.569h1.626a1.683,1.683,0,0,0,.655,1.3,2.54,2.54,0,0,0,1.613.479,2.622,2.622,0,0,0,1.481-.374A1.148,1.148,0,0,0,135.372,141.478Zm11.777-2.127a5.694,5.694,0,0,1-.993,3.5,3.183,3.183,0,0,1-2.689,1.327,3.488,3.488,0,0,1-2.725-1.1v4.579h-1.626V134.49H140.6l.079,1.055a3.35,3.35,0,0,1,2.76-1.23,3.243,3.243,0,0,1,2.711,1.292,5.756,5.756,0,0,1,1,3.595Zm-1.626-.185a4.2,4.2,0,0,0-.686-2.54,2.208,2.208,0,0,0-1.881-.932,2.39,2.39,0,0,0-2.215,1.31v4.544a2.4,2.4,0,0,0,2.232,1.3,2.2,2.2,0,0,0,1.859-.927A4.587,4.587,0,0,0,145.523,139.166Zm3.261-.009a5.617,5.617,0,0,1,.549-2.514,4.1,4.1,0,0,1,1.529-1.723,4.163,4.163,0,0,1,2.237-.606,4.01,4.01,0,0,1,3.142,1.345,5.174,5.174,0,0,1,1.2,3.577v.114a5.666,5.666,0,0,1-.532,2.492,4.038,4.038,0,0,1-1.521,1.718,4.211,4.211,0,0,1-2.272.615,4,4,0,0,1-3.133-1.345,5.147,5.147,0,0,1-1.2-3.56Zm1.635.193a4.068,4.068,0,0,0,.734,2.54,2.487,2.487,0,0,0,3.933-.013,4.449,4.449,0,0,0,.729-2.72,4.061,4.061,0,0,0-.743-2.536,2.361,2.361,0,0,0-1.973-.971,2.335,2.335,0,0,0-1.942.958A4.416,4.416,0,0,0,150.418,139.351Zm13.658-3.4a4.873,4.873,0,0,0-.8-.062,2.143,2.143,0,0,0-2.171,1.362V144H159.48v-9.51h1.582l.026,1.1a2.532,2.532,0,0,1,2.268-1.274,1.661,1.661,0,0,1,.721.123Zm4.14-3.762v2.3h1.775v1.257h-1.775v5.9a1.32,1.32,0,0,0,.237.858,1,1,0,0,0,.809.286,3.937,3.937,0,0,0,.773-.105V144a4.742,4.742,0,0,1-1.248.175,2.025,2.025,0,0,1-1.644-.659,2.832,2.832,0,0,1-.554-1.872v-5.9h-1.731V134.49h1.731v-2.3Zm7.62,11.988a4.155,4.155,0,0,1-3.146-1.27,4.714,4.714,0,0,1-1.213-3.4v-.3a5.707,5.707,0,0,1,.541-2.527,4.217,4.217,0,0,1,1.512-1.74,3.8,3.8,0,0,1,2.1-.628,3.562,3.562,0,0,1,2.883,1.222,5.289,5.289,0,0,1,1.028,3.5v.677H173.1a3.38,3.38,0,0,0,.822,2.272,2.583,2.583,0,0,0,2,.866,2.832,2.832,0,0,0,1.459-.352,3.666,3.666,0,0,0,1.046-.932l.993.773A3.993,3.993,0,0,1,175.836,144.176Zm-.2-8.525a2.169,2.169,0,0,0-1.652.716,3.482,3.482,0,0,0-.826,2.008h4.764v-.123a3.1,3.1,0,0,0-.668-1.92A2.042,2.042,0,0,0,175.634,135.65Zm5.827,7.5a1.018,1.018,0,0,1,.25-.7.954.954,0,0,1,.751-.281.983.983,0,0,1,.76.281,1,1,0,0,1,.259.7.944.944,0,0,1-.259.677,1,1,0,0,1-.76.272.9.9,0,0,1-1-.949Z" transform="translate(-5104 -4316.393)" fill="#fff"/>
    <path id="Trazado_226726" data-name="Trazado 226726" d="M0,0H54V54H0Z" transform="translate(-5026.538 -4455.17)" fill="none" opacity="0.45"/>
    <path id="Trazado_226498" data-name="Trazado 226498" d="M116.187,256.028c5.263.007,5.14,5.273,9.355,5.273-.279,3.257-.928,8.438-.928,8.438H81l.817-8.439H110.9l.459-5.272h4.824Z" transform="translate(-5098.723 -4684.094)" fill="#ccd1d9"/>
    <path id="Trazado_226499" data-name="Trazado 226499" d="M465.514,293.654l-1.026,9.743h3.164s.649-5.181.928-8.438a4.2,4.2,0,0,1-3.066-1.305Z" transform="translate(-5441.761 -4717.752)" fill="#aab2bc"/>
    <g id="Grupo_123875" data-name="Grupo 123875" transform="translate(-5013.458 -4419.588)">
      <path id="Trazado_226500" data-name="Trazado 226500" d="M126.635,336.418a5.232,5.232,0,1,1-5.231,5.232A5.232,5.232,0,0,1,126.635,336.418Z" transform="translate(-121.404 -336.418)" fill="#656d78"/>
      <path id="Trazado_226501" data-name="Trazado 226501" d="M360.121,336.418a5.232,5.232,0,1,1-5.231,5.232A5.232,5.232,0,0,1,360.121,336.418Z" transform="translate(-330.264 -336.418)" fill="#656d78"/>
    </g>
    <g id="Grupo_123876" data-name="Grupo 123876" transform="translate(-5010.336 -4416.465)">
      <path id="Trazado_226502" data-name="Trazado 226502" d="M153.113,366.028A2.109,2.109,0,1,1,151,368.137,2.109,2.109,0,0,1,153.113,366.028Z" transform="translate(-151.004 -366.028)" fill="#ccd1d9"/>
      <path id="Trazado_226503" data-name="Trazado 226503" d="M386.6,366.028a2.109,2.109,0,1,1-2.109,2.109A2.109,2.109,0,0,1,386.6,366.028Z" transform="translate(-359.864 -366.028)" fill="#ccd1d9"/>
    </g>
    <path id="Trazado_226504" data-name="Trazado 226504" d="M374.224,196.045c-.185-.012-.371-.017-.559-.017H369.4l-.552,6.328h4.824c5.263.007,5.14,5.273,9.355,5.273.078-.9.128-1.653.128-2.109A9.486,9.486,0,0,0,374.224,196.045Z" transform="translate(-5356.21 -4630.423)" fill="#5d9cec"/>
    <path id="Trazado_226505" data-name="Trazado 226505" d="M388.22,196.045c-.185-.012-.371-.017-.559-.017H384.5c.188,0,.374.005.559.017a9.485,9.485,0,0,1,8.933,9.475c0,.21-.011.483-.03.8a4.2,4.2,0,0,0,3.066,1.305c.078-.9.128-1.653.128-2.109A9.486,9.486,0,0,0,388.22,196.045Z" transform="translate(-5370.207 -4630.423)" fill="#4a89dc"/>
    <path id="Trazado_226506" data-name="Trazado 226506" d="M90.491,82.66l.61-6.292h28.845l-1.1,12.62-.551,6.328-.459,5.272H88.754l.613-6.327Z" transform="translate(-5105.655 -4523.383)" fill="#61b3e0"/>
    <path id="Trazado_226507" data-name="Trazado 226507" d="M338.579,76.368l-2.127,12.62-1.067,6.328-.888,5.272h7.348l.888-5.272,1.067-6.328.9-12.62Z" transform="translate(-5330.411 -4523.383)" fill="#468faf"/>
    <path id="Trazado_226508" data-name="Trazado 226508" d="M52.8,102.774l.011-.015c.013-.019.025-.039.036-.06l0,0c.012-.022.023-.044.033-.068l.007-.02c.006-.016.013-.033.018-.05s.006-.022.009-.033.007-.026.01-.04,0-.024.006-.036,0-.021.005-.032c.034-.269.653-5.238.93-8.452v-.009c.08-.926.131-1.706.131-2.184A10.3,10.3,0,0,0,43.717,81.488h-3.4l1.024-11.761c0-.021,0-.042,0-.063,0,0,0,0,0-.005h0a.791.791,0,0,0-.477-.725l-.007,0-.054-.02-.02-.007-.046-.012-.032-.008-.041-.006-.038-.005h-.006l-.041,0H24.365a.791.791,0,1,0,0,1.582H39.691L38.116,88.525v0l-.4,4.561H10.232l.46-4.746h5.234a.791.791,0,1,0,0-1.582h-5.08l.971-10.019h8.329a.791.791,0,1,0,0-1.582H11.97l.456-4.71H21.2a.791.791,0,0,0,0-1.582H11.707a.791.791,0,0,0-.772.624l0,.008c0,.02-.007.04-.009.06s0,.013,0,.019v0l-.54,5.578H.791a.791.791,0,1,0,0,1.582h9.436L9.256,86.762H6.434a.791.791,0,1,0,0,1.582H9.1L8.574,93.8v0l-.817,8.435v.006c0,.011,0,.022,0,.033s0,.029,0,.044v0c0,.02,0,.04,0,.06s0,.013,0,.019.006.041.009.061,0,.012,0,.018.007.03.011.045,0,.021.008.031l0,.009a.791.791,0,0,0,.188.31l0,0,.026.024a.785.785,0,0,0,.184.126l.042.02.013,0c.02.008.04.016.06.022h.006c.023.007.047.013.071.018H8.4c.023,0,.046.008.07.01h0q.039,0,.077,0h3.523a6.021,6.021,0,0,0,11.938,0H36.693a6.021,6.021,0,0,0,11.939,0h3.524c.026,0,.052,0,.078,0l.014,0,.061-.009.026-.006.046-.012.03-.01.039-.014.032-.014.034-.017.031-.017.032-.02.029-.02.031-.023.026-.021.031-.029.022-.021.032-.035.017-.019C52.779,102.8,52.79,102.789,52.8,102.774Zm-.382-11c0,.3-.022.727-.06,1.246a5.176,5.176,0,0,1-2.775-2.073,7.429,7.429,0,0,0-5-3.081l.409-4.7A8.714,8.714,0,0,1,52.418,91.772Zm-9-8.7L43,87.816H39.766l.413-4.746Zm-4.972,11.6h0a.777.777,0,0,0,.079,0l.014,0,.061-.009.026-.006.047-.012.031-.011.039-.014.032-.015.035-.017.032-.018.032-.02.03-.021.031-.023.027-.022.029-.027.024-.024.028-.031.021-.025.025-.034.018-.026.022-.037.016-.028c.007-.012.012-.025.018-.038l.014-.031c.005-.012.009-.025.014-.038s.008-.023.011-.034.006-.025.009-.037.006-.025.009-.038,0-.025.006-.038,0-.026.005-.039,0,0,0-.006l.4-4.551h4.088c2.424,0,3.517,1.256,4.674,2.585a6.49,6.49,0,0,0,3.833,2.62c-.23,2.433-.6,5.557-.769,6.924H48.632a6.021,6.021,0,0,0-11.939,0H24.005a6.021,6.021,0,0,0-11.939,0H9.415l.664-6.856H38.444ZM18.036,106.759a4.441,4.441,0,1,1,4.441-4.441A4.446,4.446,0,0,1,18.036,106.759Zm24.626,0a4.441,4.441,0,1,1,4.441-4.441A4.446,4.446,0,0,1,42.662,106.759Z" transform="translate(-5026.262 -4516.674)"/>
    <path id="Trazado_226509" data-name="Trazado 226509" d="M146.408,358.524a2.9,2.9,0,1,0,2.9,2.9A2.9,2.9,0,0,0,146.408,358.524Zm0,4.219a1.318,1.318,0,1,1,1.318-1.318A1.32,1.32,0,0,1,146.408,362.743Z" transform="translate(-5154.634 -4775.78)"/>
    <path id="Trazado_226510" data-name="Trazado 226510" d="M379.9,358.524a2.9,2.9,0,1,0,2.9,2.9A2.9,2.9,0,0,0,379.9,358.524Zm0,4.219a1.318,1.318,0,1,1,1.318-1.318A1.32,1.32,0,0,1,379.9,362.743Z" transform="translate(-5363.497 -4775.78)"/>
    <path id="Trazado_226511" data-name="Trazado 226511" d="M32.283,189.318a.791.791,0,0,0-.791-.791H27.625a.791.791,0,0,0,0,1.582h3.867A.791.791,0,0,0,32.283,189.318Z" transform="translate(-5050.266 -4623.713)"/>
  </g>
</svg>
