<svg xmlns="http://www.w3.org/2000/svg" xmlns:xlink="http://www.w3.org/1999/xlink" width="728" height="661.6" viewBox="0 0 728 661.6">
  <defs>
    <linearGradient id="linear-gradient" x1="0.187" y1="0.097" x2="0.806" y2="0.894" gradientUnits="objectBoundingBox">
      <stop offset="0.32" stop-color="#fff"/>
      <stop offset="0.6" stop-color="#fdfdfd"/>
      <stop offset="0.76" stop-color="#f5f5f6"/>
      <stop offset="0.88" stop-color="#e7e9e9"/>
      <stop offset="0.98" stop-color="#d4d7d8"/>
      <stop offset="1" stop-color="#d0d3d4"/>
    </linearGradient>
    <linearGradient id="linear-gradient-2" x1="0.814" y1="0.882" x2="0.189" y2="0.121" xlink:href="#linear-gradient"/>
    <linearGradient id="linear-gradient-3" x1="0.187" y1="0.097" x2="0.806" y2="0.894" xlink:href="#linear-gradient"/>
    <linearGradient id="linear-gradient-4" x1="0.787" y1="0.877" x2="-0.148" y2="-0.353" gradientUnits="objectBoundingBox">
      <stop offset="0" stop-color="#66dada"/>
      <stop offset="1" stop-color="#1c8fda"/>
    </linearGradient>
    <linearGradient id="linear-gradient-5" x1="0.166" y1="0.118" x2="0.836" y2="0.883" xlink:href="#linear-gradient"/>
    <linearGradient id="linear-gradient-6" x1="0.802" y1="0.898" x2="-0.077" y2="-0.26" gradientUnits="objectBoundingBox">
      <stop offset="0" stop-color="#5994ce"/>
      <stop offset="1" stop-color="#2a5bce"/>
    </linearGradient>
    <linearGradient id="linear-gradient-7" x1="0.155" y1="0.129" x2="0.844" y2="0.869" xlink:href="#linear-gradient"/>
    <linearGradient id="linear-gradient-8" x1="0.863" y1="0.971" x2="-0.267" y2="-0.495" gradientUnits="objectBoundingBox">
      <stop offset="0" stop-color="#395da4"/>
      <stop offset="1" stop-color="#173486"/>
    </linearGradient>
    <linearGradient id="linear-gradient-9" x1="0.194" y1="0.098" x2="0.803" y2="0.897" xlink:href="#linear-gradient"/>
    <linearGradient id="linear-gradient-10" x1="0.909" y1="0.944" x2="-0.222" y2="-0.284" gradientUnits="objectBoundingBox">
      <stop offset="0" stop-color="#a67ab7"/>
      <stop offset="1" stop-color="#7f62c3"/>
    </linearGradient>
    <linearGradient id="linear-gradient-11" x1="0.155" y1="0.129" x2="0.844" y2="0.869" xlink:href="#linear-gradient"/>
    <linearGradient id="linear-gradient-12" x1="0.905" y1="1.008" x2="-0.086" y2="-0.234" gradientUnits="objectBoundingBox">
      <stop offset="0" stop-color="#ff007d"/>
      <stop offset="1" stop-color="#f739a8"/>
    </linearGradient>
  </defs>
  <g id="Grupo_123885" data-name="Grupo 123885" transform="translate(-409 -5320)">
    <g id="Grupo_123883" data-name="Grupo 123883" transform="translate(409 5320)" opacity="0.7">
      <rect id="Rectángulo_35497" data-name="Rectángulo 35497" width="728" height="661.6" rx="22" transform="translate(0 0)" fill="#40d3e2" opacity="0.1"/>
    </g>
    <g id="Grupo_123884" data-name="Grupo 123884" transform="translate(3.438 -2.24)">
      <g id="a3-01" transform="translate(327.28 5302.371)">
        <g id="Layer_1" data-name="Layer 1" transform="translate(46.72 43.87)">
          <line id="Línea_371" data-name="Línea 371" x1="1.989" transform="translate(368.115 65.429)" fill="none" stroke="#231f20" stroke-linecap="round" stroke-miterlimit="10" stroke-width="4"/>
          <path id="Trazado_226524" data-name="Trazado 226524" d="M659.137,208.37H585.78A58.227,58.227,0,0,0,530.644,247.9L463.7,445.427" transform="translate(-297.848 -142.941)" fill="none" stroke="#231f20" stroke-linecap="round" stroke-miterlimit="10" stroke-width="4" stroke-dasharray="10.1 17.16"/>
          <line id="Línea_372" data-name="Línea 372" x1="0.636" y2="1.885" transform="translate(164.118 305.72)" fill="none" stroke="#231f20" stroke-linecap="round" stroke-miterlimit="10" stroke-width="4"/>
          <line id="Línea_373" data-name="Línea 373" x2="0.636" y2="1.881" transform="translate(164.118 307.605)" fill="none" stroke="#231f20" stroke-linecap="round" stroke-miterlimit="10" stroke-width="4"/>
          <path id="Trazado_226525" data-name="Trazado 226525" d="M466.45,838.22,532.3,1032.5a58.23,58.23,0,0,0,55.152,39.544h76.765" transform="translate(-299.504 -522.27)" fill="none" stroke="#231f20" stroke-linecap="round" stroke-miterlimit="10" stroke-width="4" stroke-dasharray="10.1 17.16"/>
          <line id="Línea_374" data-name="Línea 374" x2="1.989" transform="translate(368.115 549.777)" fill="none" stroke="#231f20" stroke-linecap="round" stroke-miterlimit="10" stroke-width="4"/>
          <line id="Línea_375" data-name="Línea 375" x1="1.989" transform="translate(443.173 186.515)" fill="none" stroke="#231f20" stroke-linecap="round" stroke-miterlimit="10" stroke-width="4"/>
          <path id="Trazado_226526" data-name="Trazado 226526" d="M738.344,512.8h-80.07A58.253,58.253,0,0,0,625,523.229L470.33,630.847" transform="translate(-301.84 -326.285)" fill="none" stroke="#231f20" stroke-linecap="round" stroke-miterlimit="10" stroke-width="4" stroke-dasharray="9.87 16.77"/>
          <line id="Línea_376" data-name="Línea 376" x1="1.631" y2="1.138" transform="translate(164.118 306.468)" fill="none" stroke="#231f20" stroke-linecap="round" stroke-miterlimit="10" stroke-width="4"/>
          <line id="Línea_377" data-name="Línea 377" x2="1.631" y2="1.134" transform="translate(164.118 307.605)" fill="none" stroke="#231f20" stroke-linecap="round" stroke-miterlimit="10" stroke-width="4"/>
          <path id="Trazado_226527" data-name="Trazado 226527" d="M477.21,829.67,629.149,935.383a58.243,58.243,0,0,0,33.26,10.429h83.4" transform="translate(-305.984 -517.121)" fill="none" stroke="#231f20" stroke-linecap="round" stroke-miterlimit="10" stroke-width="4" stroke-dasharray="9.87 16.77"/>
          <line id="Línea_378" data-name="Línea 378" x2="1.989" transform="translate(443.173 428.691)" fill="none" stroke="#231f20" stroke-linecap="round" stroke-miterlimit="10" stroke-width="4"/>
          <line id="Línea_379" data-name="Línea 379" x1="1.989" transform="translate(470.463 307.259)" fill="none" stroke="#231f20" stroke-linecap="round" stroke-miterlimit="10" stroke-width="4"/>
          <line id="Línea_380" data-name="Línea 380" x1="294.317" y2="0.33" transform="translate(169.452 307.267)" fill="none" stroke="#231f20" stroke-linecap="round" stroke-miterlimit="10" stroke-width="4" stroke-dasharray="9.9 16.83"/>
          <line id="Línea_381" data-name="Línea 381" x1="1.989" y2="0.004" transform="translate(164.118 307.601)" fill="none" stroke="#231f20" stroke-linecap="round" stroke-miterlimit="10" stroke-width="4"/>
          <path id="Trazado_226533" data-name="Trazado 226533" d="M455.78,816.78l.541.744.875-.286h0Z" transform="translate(-293.078 -509.358)" fill="#ced3d6"/>
          <path id="Trazado_226534" data-name="Trazado 226534" d="M457.474,818.682l.541-.752h0l-.875.286Z" transform="translate(-293.897 -510.05)" fill="#ced3d6"/>
          <path id="Trazado_226535" data-name="Trazado 226535" d="M458.521,819.43v-1.5l-.541.752Z" transform="translate(-294.403 -510.05)" fill="#ced3d6"/>
          <path id="Trazado_226537" data-name="Trazado 226537" d="M1510.3,357.814h55.14a55.486,55.486,0,1,1,0,110.971h-44.305q.621,4.956,1.142,9.944h43.163a65.429,65.429,0,0,0,0-130.859H1491.1q1.881,4.948,3.655,9.944Z" transform="translate(-916.603 -226.955)" fill="#5994ce"/>
          <path id="Trazado_226538" data-name="Trazado 226538" d="M1565.439,955.87h-43.164q-.525,4.98-1.141,9.944h44.305a55.486,55.486,0,0,1,0,110.971h-70.684q-1.786,5-3.655,9.944h74.339a65.429,65.429,0,0,0,0-130.859Z" transform="translate(-916.603 -593.125)" fill="#a67ab7"/>
          <path id="Trazado_226539" data-name="Trazado 226539" d="M1032.54,109.3a65.5,65.5,0,0,0,65.429,65.429h120.617q-1.786-5-3.655-9.944H1097.953a55.486,55.486,0,0,1,0-110.971h58.632q-3.46-5.02-7.032-9.944h-51.6A65.5,65.5,0,0,0,1032.54,109.3Z" transform="translate(-640.433 -43.87)" fill="#66dada"/>
          <path id="Trazado_226540" data-name="Trazado 226540" d="M1153.1,1259.87h-55.167a65.429,65.429,0,0,0,0,130.859h51.6q3.58-4.932,7.032-9.944h-58.632a55.486,55.486,0,1,1,0-110.971h116.977q1.881-4.944,3.655-9.944Z" transform="translate(-640.409 -776.21)" fill="#f739a8"/>
          <path id="Trazado_226541" data-name="Trazado 226541" d="M1353.929,651.87a65.429,65.429,0,1,0,0,130.859H1399.1q.621-4.96,1.141-9.944h-46.314a55.486,55.486,0,1,1,0-110.971h46.314q-.525-4.988-1.141-9.944Z" transform="translate(-794.586 -410.04)" fill="#395da4"/>
          <path id="Trazado_226542" data-name="Trazado 226542" d="M1353.89,1284.87H1416.5a55.486,55.486,0,0,1,55.486,55.486h0a55.486,55.486,0,0,1-55.486,55.486h-62.482" transform="translate(-833.967 -791.266)" fill="none"/>
          <path id="Trazado_226547" data-name="Trazado 226547" d="M1611.14,676.87h62.482a55.486,55.486,0,0,1,55.486,55.486h0a55.486,55.486,0,0,1-55.486,55.486H1611.14" transform="translate(-988.897 -425.096)" fill="none"/>
          <path id="Trazado_226548" data-name="Trazado 226548" d="M1341.268,483.841h-62.482a55.486,55.486,0,0,1-55.486-55.486h0a55.486,55.486,0,0,1,55.486-55.486h62.482" transform="translate(-755.319 -242.011)" fill="none"/>
          <path id="Trazado_226551" data-name="Trazado 226551" d="M1355.2,68.87h62.482a55.486,55.486,0,0,1,55.486,55.486h0a55.486,55.486,0,0,1-55.486,55.486H1355.2" transform="translate(-834.756 -58.926)" fill="none"/>
          <g id="Grupo_123882" data-name="Grupo 123882">
            <path id="Trazado_226528" data-name="Trazado 226528" d="M498.932,396.148l.208-13.048-7.773,10.486a111.584,111.584,0,0,0-32.027-4.671v111.1h0v.7l65.48-90.575A111.246,111.246,0,0,0,498.932,396.148Z" transform="translate(-297.174 -191.921)" fill="#66dada"/>
            <path id="Trazado_226529" data-name="Trazado 226529" d="M499.008,924.833a111.41,111.41,0,0,0,25.154-13.483L459.34,821.7V932.1a111.627,111.627,0,0,0,31.949-4.647l7.922,10.689Z" transform="translate(-297.174 -511.89)" fill="#f739a8"/>
            <path id="Trazado_226530" data-name="Trazado 226530" d="M553.228,878.1a111.131,111.131,0,0,0,12.236-25.717L459.34,817.93h0v1.02l64.823,89.658A111.98,111.98,0,0,0,548.6,884.757l12.642,3.892Z" transform="translate(-297.174 -509.139)" fill="#a67ab7"/>
            <path id="Trazado_226531" data-name="Trazado 226531" d="M583.592,723.654l-12.731-4.1a111.377,111.377,0,0,0-5.4-30.4L459.34,723.989l106.124,34.453a111.292,111.292,0,0,0,5.409-30.7Z" transform="translate(-297.174 -415.199)" fill="#395da4"/>
            <path id="Trazado_226532" data-name="Trazado 226532" d="M92.363,426.173A111.369,111.369,0,0,0,46.72,515.7c0,.17,0,.341,0,.514A111.6,111.6,0,0,0,158.34,627.822l-.014-110.406-.365-.509-.227-.316-.368-.506.963.311v-.7h0V404.6A111.1,111.1,0,0,0,92.363,426.173Z" transform="translate(3.842 -207.605)" fill="#ced3d6"/>
            <path id="Trazado_226536" data-name="Trazado 226536" d="M459.34,573.635l106.124-34.829A111.959,111.959,0,0,0,524.82,483.06Z" transform="translate(-297.174 -264.844)" fill="#5994ce"/>
            <ellipse id="Elipse_5173" data-name="Elipse 5173" cx="101.394" cy="101.394" rx="101.394" ry="101.394" transform="translate(60.772 207.21)" fill="url(#linear-gradient)"/>
            <ellipse id="Elipse_5174" data-name="Elipse 5174" cx="98.621" cy="98.621" rx="98.621" ry="98.621" transform="translate(63.544 209.982)" fill="url(#linear-gradient-2)"/>
            <path id="Trazado_226552" data-name="Trazado 226552" d="M793.5,565.809,788.81,559.1,801.6,555.16Z" transform="translate(-537.53 -317.443)" fill="#5994ce"/>
          </g>
          <circle id="Elipse_5175" data-name="Elipse 5175" cx="7.334" cy="7.334" r="7.334" transform="translate(362.769 58.095)" fill="#66dada"/>
          <circle id="Elipse_5176" data-name="Elipse 5176" cx="7.334" cy="7.334" r="7.334" transform="translate(362.769 542.443)" fill="#f739a8"/>
          <circle id="Elipse_5177" data-name="Elipse 5177" cx="7.334" cy="7.334" r="7.334" transform="translate(437.828 421.357)" fill="#a67ab7"/>
          <circle id="Elipse_5178" data-name="Elipse 5178" cx="7.334" cy="7.334" r="7.334" transform="translate(464.84 310.98) rotate(-66.75)" fill="#395da4"/>
          <circle id="Elipse_5179" data-name="Elipse 5179" cx="7.334" cy="7.334" r="7.334" transform="translate(437.828 178.835)" fill="#5994ce"/>
          <circle id="Elipse_5180" data-name="Elipse 5180" cx="50.713" cy="50.713" r="50.713" transform="translate(532.802 14.796)" fill="#66dada"/>
          <circle id="Elipse_5181" data-name="Elipse 5181" cx="45.765" cy="45.765" r="45.765" transform="translate(537.75 19.744)" fill="url(#linear-gradient-3)"/>
          <circle id="Elipse_5182" data-name="Elipse 5182" cx="42.758" cy="42.758" r="42.758" transform="translate(540.757 22.751)" fill="url(#linear-gradient-4)"/>
          <circle id="Elipse_5183" data-name="Elipse 5183" cx="50.713" cy="50.713" r="50.713" transform="translate(472.452 135.616)" fill="#5994ce"/>
          <circle id="Elipse_5184" data-name="Elipse 5184" cx="45.765" cy="45.765" r="45.765" transform="translate(477.399 140.564)" fill="url(#linear-gradient-5)"/>
          <circle id="Elipse_5185" data-name="Elipse 5185" cx="42.758" cy="42.758" r="42.758" transform="translate(480.406 143.571)" fill="url(#linear-gradient-6)"/>
          <circle id="Elipse_5186" data-name="Elipse 5186" cx="50.713" cy="50.713" r="50.713" transform="translate(635.003 256.431)" fill="#5994ce"/>
          <circle id="Elipse_5187" data-name="Elipse 5187" cx="50.713" cy="50.713" r="50.713" transform="translate(633.412 257.227)" fill="#395da4"/>
          <circle id="Elipse_5188" data-name="Elipse 5188" cx="45.765" cy="45.765" r="45.765" transform="translate(638.98 261.379)" fill="url(#linear-gradient-7)"/>
          <circle id="Elipse_5189" data-name="Elipse 5189" cx="42.758" cy="42.758" r="42.758" transform="translate(641.987 264.386)" fill="url(#linear-gradient-8)"/>
          <circle id="Elipse_5190" data-name="Elipse 5190" cx="50.713" cy="50.713" r="50.713" transform="translate(472.452 377.462)" fill="#a67ab7"/>
          <g id="Grupo_123881" data-name="Grupo 123881" transform="translate(458.448 363.241)" opacity="0.55">
            <circle id="Elipse_5247" data-name="Elipse 5247" cx="45.765" cy="45.765" r="45.765" transform="translate(0 64.721) rotate(-45)" fill="#46494a"/>
          </g>
          <circle id="Elipse_5248" data-name="Elipse 5248" cx="45.765" cy="45.765" r="45.765" transform="translate(458.448 427.963) rotate(-45)" fill="url(#linear-gradient-9)"/>
          <circle id="Elipse_5249" data-name="Elipse 5249" cx="42.758" cy="42.758" r="42.758" transform="translate(480.406 385.206)" fill="url(#linear-gradient-10)"/>
          <circle id="Elipse_5250" data-name="Elipse 5250" cx="50.713" cy="50.713" r="50.713" transform="translate(531.644 497.963)" fill="#ff007d"/>
          <circle id="Elipse_5251" data-name="Elipse 5251" cx="50.713" cy="50.713" r="50.713" transform="translate(531.644 497.693)" fill="#f739a8"/>
          <circle id="Elipse_5252" data-name="Elipse 5252" cx="45.765" cy="45.765" r="45.765" transform="translate(536.592 502.911)" fill="url(#linear-gradient-11)"/>
          <circle id="Elipse_5253" data-name="Elipse 5253" cx="42.758" cy="42.758" r="42.758" transform="translate(539.599 505.918)" fill="url(#linear-gradient-12)"/>
          <rect id="Rectángulo_35905" data-name="Rectángulo 35905" width="108.597" height="57.279" transform="translate(416.158 44.21)" fill="none"/>
          <rect id="Rectángulo_35906" data-name="Rectángulo 35906" width="108.597" height="57.279" transform="translate(514.72 287.869)" fill="none"/>
          <rect id="Rectángulo_35907" data-name="Rectángulo 35907" width="108.597" height="57.279" transform="translate(416.158 528.088)" fill="none"/>
          <rect id="Rectángulo_35908" data-name="Rectángulo 35908" width="108.597" height="57.279" transform="translate(581.78 165.252)" fill="none"/>
          <rect id="Rectángulo_35909" data-name="Rectángulo 35909" width="108.597" height="57.279" transform="translate(581.78 407.241)" fill="none"/>
        </g>
      </g>
      <text id="Rapidez_y_puntualidad" data-name="Rapidez y puntualidad" transform="translate(784.276 5383.5)" fill="#12263f" font-size="18" font-family="Roboto-Regular, Roboto"><tspan x="-38.461" y="19">Rapidez y </tspan><tspan x="-47.188" y="44">puntualidad</tspan></text>
      <text id="Agilidad_administrativa" data-name="Agilidad administrativa" transform="translate(947.276 5506.077)" fill="#12263f" font-size="18" font-family="Roboto-Regular, Roboto"><tspan x="-32.52" y="19">Agilidad </tspan><tspan x="-56.852" y="44">administrativa</tspan></text>
      <text id="Seguridad" transform="translate(879.276 5642.077)" fill="#12263f" font-size="18" font-family="Roboto-Regular, Roboto"><tspan x="-40.395" y="19">Seguridad</tspan></text>
      <text id="Amplia_cobertura" data-name="Amplia cobertura" transform="translate(957.276 5748.077)" fill="#12263f" font-size="18" font-family="Roboto-Regular, Roboto"><tspan x="-28.072" y="19">Amplia </tspan><tspan x="-38.593" y="44">cobertura</tspan></text>
      <text id="Flexibilidad" transform="translate(784.276 5885.077)" fill="#12263f" font-size="18" font-family="Roboto-Regular, Roboto"><tspan x="-45.22" y="19">Flexibilidad</tspan></text>
      <text id="Características_del_transporte_aéreo" data-name="Características 
del 
transporte 
aéreo" transform="translate(537 5629)" fill="#12263f" font-size="20" font-family="Roboto-Black, Roboto" font-weight="800"><tspan x="-70.952" y="0">Características </tspan><tspan x="-16.309" y="27">del </tspan><tspan x="-49.79" y="54">transporte </tspan><tspan x="-25.601" y="81">aéreo</tspan></text>
      <g id="Outline" transform="translate(932.964 5872.353)">
        <path id="Trazado_226576" data-name="Trazado 226576" d="M328.128,62.1a4.832,4.832,0,0,1,1.506,1.506,2.478,2.478,0,0,0,1.831,1.152,2.546,2.546,0,0,0,.287.016,2.507,2.507,0,0,0,2.384-3.27,6.274,6.274,0,0,0-3.908-3.908,2.5,2.5,0,0,0-2.1,4.5Zm.731-2.722a.848.848,0,0,1,.864-.212,4.629,4.629,0,0,1,2.844,2.844.859.859,0,0,1-.917,1.111.839.839,0,0,1-.62-.389A6.48,6.48,0,0,0,329,60.706a.838.838,0,0,1-.389-.62.855.855,0,0,1,.246-.705Z" transform="translate(-294.924 -53.206)" fill="#fff"/>
        <path id="Trazado_226577" data-name="Trazado 226577" d="M45.911,48.239l1.166-1.166L42.12,42.117l4.628-4.073-1.089-1.237L27.5,52.785l-4.015,1-1.671-1.671,1-4.015L46.681,20.988a5.623,5.623,0,1,1,7.936,7.936l-3.339,2.938L52.367,33.1l3.339-2.938A7.272,7.272,0,1,0,45.443,19.9l-6.271,7.126L36.619,25l.019-.019a3.3,3.3,0,1,0-4.662-4.662l-.556.556-5.924-4.7a.824.824,0,0,0-1.095.063L19.739,20.9a.824.824,0,0,0,0,1.166l5.245,5.246L23.235,29.06a.824.824,0,0,0,0,1.165l3.5,3.5a.824.824,0,0,0,1.165,0l1.748-1.748L32.4,34.725l-5.562,6.321L20,38.767a.824.824,0,0,0-.843.2L16.242,41.88a.824.824,0,0,0,0,1.165l4.915,4.915L20.1,52.17a.824.824,0,0,0,.216.783l2.331,2.331a.825.825,0,0,0,.783.217l4.209-1.052,4.915,4.915a.824.824,0,0,0,1.166,0l2.914-2.914a.824.824,0,0,0,.2-.843l-2.278-6.835,6.321-5.563,2.751,2.751-1.748,1.748a.824.824,0,0,0,0,1.166l3.5,3.5L46.545,51.2l-2.914-2.914L44.8,47.125ZM33.142,21.484a1.648,1.648,0,0,1,2.331,2.331l-.153.153-2.6-2.062Zm-8.095-3.56,1.3,1.031-3.694,3.694-1.166-1.166Zm2.267,14.05-2.331-2.331,1.165-1.165,2.331,2.331Zm-3.5-8.159,3.829-3.829,10.436,8.278-4.6,5.222ZM22.031,46.5l-1.71-1.71,3.136-3.136,2.194.731Zm-2.07-6.012,1.748.583-2.554,2.554L17.99,42.463ZM33.142,57.615l-1.166-1.166L34.53,53.9l.583,1.748Zm.805-5.467-3.136,3.136-1.71-1.71,4.115-3.621Z" transform="translate(-16 -15.997)" fill="#fff"/>
        <path id="Trazado_226578" data-name="Trazado 226578" d="M0,0H7.417V1.648H0Z" transform="translate(8.395 34.039) rotate(-45)" fill="#fff"/>
        <path id="Trazado_226579" data-name="Trazado 226579" d="M343.659,192H328.824a.824.824,0,0,0-.824.824v29.669a.824.824,0,0,0,.824.824h14.835a.824.824,0,0,0,.824-.824V192.824A.824.824,0,0,0,343.659,192Zm-9.065,1.648h3.3v3.3h-3.3Zm-1.648,0v4.121a.824.824,0,0,0,.824.824h4.945a.824.824,0,0,0,.824-.824v-4.121h3.3v13.186H329.648V193.648Zm1.648,14.835h3.3v3.3h-3.3Zm-4.945,13.186V208.483h3.3V212.6a.824.824,0,0,0,.824.824h4.945a.824.824,0,0,0,.824-.824v-4.121h3.3v13.186Z" transform="translate(-295.858 -173.869)" fill="#fff"/>
        <path id="Trazado_226580" data-name="Trazado 226580" d="M440,304h1.648v1.648H440Z" transform="translate(-396.321 -274.331)" fill="#fff"/>
        <path id="Trazado_226581" data-name="Trazado 226581" d="M440,448h1.648v1.648H440Z" transform="translate(-396.321 -403.496)" fill="#fff"/>
      </g>
      <g id="b2" transform="translate(932.964 5387.428)">
        <path id="Trazado_226582" data-name="Trazado 226582" d="M38.086,17.483H49.624A2.475,2.475,0,0,0,52.1,15.01V3.472A2.475,2.475,0,0,0,49.624,1H38.086a2.475,2.475,0,0,0-2.472,2.472v9.89H29.272l-.33-3.3H24.154l-.33,3.3h-7.99v2.073l4.806,3.433a7.713,7.713,0,0,0-2.227,4.3L3.247,21.735A2.053,2.053,0,0,0,1,23.778a4.1,4.1,0,0,0,3.493,4.072L16.7,29.734a5.778,5.778,0,0,0,5.725,5.055h8.241a5.778,5.778,0,0,0,5.725-5.055L48.6,27.851A4.1,4.1,0,0,0,52.1,23.778a2.053,2.053,0,0,0-2.247-2.044L34.682,23.169a7.718,7.718,0,0,0-2.227-4.3L36,16.333A2.467,2.467,0,0,0,38.086,17.483ZM42.207,2.648h3.3v3.3h-3.3Zm-4.945.824a.825.825,0,0,1,.824-.824h2.472V7.593h6.593V2.648h2.472a.825.825,0,0,1,.824.824V15.01a.825.825,0,0,1-.824.824H38.086a.825.825,0,0,1-.824-.824Zm-9.811,8.241.5,5a7.838,7.838,0,0,0-.9-.056H26.042a7.838,7.838,0,0,0-.9.056l.5-5Zm-9.374,3.3H23.66l-.21,2.1a7.68,7.68,0,0,0-1.45.7Zm.23,14.01v-.706L4.743,26.222a2.459,2.459,0,0,1-2.095-2.444.4.4,0,0,1,.133-.3.422.422,0,0,1,.31-.1l15.236,1.44a7.676,7.676,0,0,0,.533,2.45l1.272,3.18a6.906,6.906,0,0,0,1.9,2.656,4.111,4.111,0,0,1-3.723-4.08Zm31.7-5.646a.408.408,0,0,1,.31.1.4.4,0,0,1,.133.3,2.459,2.459,0,0,1-2.095,2.444L34.789,28.314v.706a4.111,4.111,0,0,1-3.723,4.08,6.9,6.9,0,0,0,1.9-2.656l1.272-3.18a7.7,7.7,0,0,0,.533-2.45ZM33.141,24.393a6.073,6.073,0,0,1-.435,2.261l-1.272,3.18a5.263,5.263,0,0,1-9.773,0l-1.272-3.18a6.087,6.087,0,0,1,5.651-8.347h1.013a6.093,6.093,0,0,1,6.087,6.086Zm-3.494-7.278-.21-2.1H35.02l-3.923,2.8a7.68,7.68,0,0,0-1.45-.7Z" transform="translate(-1 -1)" fill="#fff"/>
        <path id="Trazado_226583" data-name="Trazado 226583" d="M57,15h1.648v1.648H57Z" transform="translate(-10.849 -3.462)" fill="#fff"/>
        <path id="Trazado_226584" data-name="Trazado 226584" d="M53,15h1.648v1.648H53Z" transform="translate(-10.145 -3.462)" fill="#fff"/>
        <path id="Trazado_226585" data-name="Trazado 226585" d="M26.919,26l-1.1,6.593H36.007L34.909,26Zm1.4,1.648h1.774v3.3H27.766Zm3.423,3.3v-3.3h1.774l.55,3.3Z" transform="translate(-5.365 -5.396)" fill="#fff"/>
        <path id="Trazado_226586" data-name="Trazado 226586" d="M10.89,39a9.89,9.89,0,1,0,9.89,9.89A9.9,9.9,0,0,0,10.89,39Zm0,18.131c-.8,0-1.643-.932-2.279-2.472h4.558C12.533,56.2,11.688,57.131,10.89,57.131ZM8.076,53.01a16.7,16.7,0,0,1-.464-3.3h6.555a16.7,16.7,0,0,1-.464,3.3Zm-5.386-3.3H5.965a18.9,18.9,0,0,0,.4,3.3h-2.6A8.163,8.163,0,0,1,2.69,49.714Zm8.2-9.066c.8,0,1.643.932,2.279,2.472H8.61C9.246,41.58,10.091,40.648,10.89,40.648ZM13.7,44.769a16.7,16.7,0,0,1,.464,3.3H7.612a16.7,16.7,0,0,1,.464-3.3Zm-7.739,3.3H2.69a8.176,8.176,0,0,1,1.073-3.3h2.6A18.977,18.977,0,0,0,5.965,48.066Zm9.85,1.648h3.274a8.176,8.176,0,0,1-1.073,3.3h-2.6A18.977,18.977,0,0,0,15.815,49.714Zm0-1.648a18.9,18.9,0,0,0-.4-3.3h2.6a8.163,8.163,0,0,1,1.073,3.3Zm.95-4.945H14.953a10.036,10.036,0,0,0-.818-1.8A8.271,8.271,0,0,1,16.765,43.121Zm-9.121-1.8a10.094,10.094,0,0,0-.818,1.8H5.014A8.276,8.276,0,0,1,7.644,41.317ZM5.014,54.659H6.827a10.036,10.036,0,0,0,.818,1.8A8.271,8.271,0,0,1,5.014,54.659Zm9.121,1.8a10.12,10.12,0,0,0,.818-1.8h1.812A8.289,8.289,0,0,1,14.135,56.463Z" transform="translate(-1 -7.683)" fill="#fff"/>
        <path id="Trazado_226587" data-name="Trazado 226587" d="M23.877,7v3.647l9.26-4.63-9.26-4.63v3.94A21.492,21.492,0,0,0,9.245,14.633l1.389.888A19.8,19.8,0,0,1,23.877,7Zm1.648-2.946,3.926,1.963L25.526,7.975Z" transform="translate(-2.45 -1.067)" fill="#fff"/>
        <path id="Trazado_226588" data-name="Trazado 226588" d="M9.332,20.3l-1.461-.761c-.291.558-.56,1.134-.8,1.712l1.521.635C8.815,21.349,9.064,20.816,9.332,20.3Z" transform="translate(-2.068 -4.26)" fill="#fff"/>
        <path id="Trazado_226589" data-name="Trazado 226589" d="M7.769,24.2,6.2,23.693c-.18.558-.341,1.134-.478,1.713l1.6.378C7.454,25.248,7.6,24.716,7.769,24.2Z" transform="translate(-1.831 -4.991)" fill="#fff"/>
        <path id="Trazado_226590" data-name="Trazado 226590" d="M35.024,53.988V50.341l-9.26,4.63,9.26,4.63v-3.94a21.492,21.492,0,0,0,14.633-9.311l-1.389-.888A19.8,19.8,0,0,1,35.024,53.988Zm-1.648,2.946L29.45,54.971l3.926-1.963Z" transform="translate(-5.355 -8.819)" fill="#fff"/>
        <path id="Trazado_226591" data-name="Trazado 226591" d="M54.185,43.2l1.461.762c.291-.558.56-1.134.8-1.712l-1.521-.635C54.7,42.151,54.454,42.683,54.185,43.2Z" transform="translate(-10.353 -8.143)" fill="#fff"/>
        <path id="Trazado_226592" data-name="Trazado 226592" d="M55.794,39.354l1.568.507c.18-.558.341-1.134.478-1.713l-1.6-.378C56.11,38.306,55.961,38.838,55.794,39.354Z" transform="translate(-10.636 -7.466)" fill="#fff"/>
      </g>
      <g id="b3" transform="translate(871.727 5503.98)">
        <path id="Trazado_226593" data-name="Trazado 226593" d="M2.048,12.915a15.236,15.236,0,0,0,5.686,1.1h4.628l5.495,4.121h4L20.088,14.01h1.166A11.905,11.905,0,0,0,31.179,8.7l.138-.208V5.769H29.669V0h-3.84L23.357,5.769H19.465L21.937.824H17.881L10.464,5.769H7.734a15.236,15.236,0,0,0-5.686,1.1,3.259,3.259,0,0,0,0,6.051Zm16.358,3.568-5.495-4.121h4.676l1.766,4.121Zm8.51-14.835h1.105V5.769H25.15Zm-8.535.824h.889l-1.648,3.3H13.436ZM2.661,8.394a13.592,13.592,0,0,1,5.073-.977H29.669v.569a10.258,10.258,0,0,1-8.415,4.375H19.381l-.706-1.648H10.714v1.648H7.734a13.6,13.6,0,0,1-5.074-.977,1.61,1.61,0,0,1,0-2.99Zm0,0" transform="translate(0 0)" fill="#fff"/>
        <path id="Trazado_226594" data-name="Trazado 226594" d="M32.141,206.835H26.221a2.438,2.438,0,0,0,.152-.824V194.472A2.476,2.476,0,0,0,23.9,192H10.714a2.476,2.476,0,0,0-2.472,2.472V206.01a2.438,2.438,0,0,0,.152.824H2.472A2.476,2.476,0,0,0,0,209.307v11.538a2.476,2.476,0,0,0,2.472,2.472H15.659a2.457,2.457,0,0,0,1.648-.643,2.453,2.453,0,0,0,1.648.643H32.141a2.476,2.476,0,0,0,2.472-2.472V209.307a2.476,2.476,0,0,0-2.472-2.472Zm-16.483,0h-.824v-1.648h4.945v1.648Zm-9.066,1.648h4.945v1.648H6.593Zm16.483,0h4.945v1.648H23.076Zm-8.241-14.835h4.945V195.3H14.834ZM9.89,206.01V194.472a.826.826,0,0,1,.824-.824h2.472v3.3h8.241v-3.3H23.9a.826.826,0,0,1,.824.824V206.01a.826.826,0,0,1-.824.824H21.428v-3.3H13.186v3.3H10.714A.826.826,0,0,1,9.89,206.01Zm1.648,15.659H6.593v-1.648h4.945Zm4.121,0H13.186v-3.3H4.945v3.3H2.472a.826.826,0,0,1-.824-.824V209.307a.826.826,0,0,1,.824-.824H4.945v3.3h8.241v-3.3h2.472a.826.826,0,0,1,.824.824v11.538A.826.826,0,0,1,15.659,221.669Zm12.362,0H23.076v-1.648h4.945Zm4.945-.824a.826.826,0,0,1-.824.824H29.669v-3.3H21.428v3.3H18.955a.826.826,0,0,1-.824-.824V209.307a.826.826,0,0,1,.824-.824h2.472v3.3h8.241v-3.3h2.472a.826.826,0,0,1,.824.824Zm0,0" transform="translate(0 -172.221)" fill="#fff"/>
        <path id="Trazado_226595" data-name="Trazado 226595" d="M335.01,61.4l-3.361-.84a5.777,5.777,0,0,0,3.185-5.153V53.965a5.921,5.921,0,0,0-5.593-5.973,5.769,5.769,0,0,0-5.945,5.767v1.648a5.777,5.777,0,0,0,3.186,5.153l-3.361.84a4.116,4.116,0,0,0-3.121,4v8.14a2.476,2.476,0,0,0,2.472,2.472h.824V94.141h11.538V76.01h.824a2.476,2.476,0,0,0,2.472-2.472V65.4A4.116,4.116,0,0,0,335.01,61.4Zm-10.065-5.993V53.758a4.121,4.121,0,0,1,4.248-4.118,4.261,4.261,0,0,1,3.993,4.325v1.441a4.126,4.126,0,0,1-2.748,3.88l-.549.2v1.694a.824.824,0,1,1-1.648,0V59.482l-.549-.194a4.128,4.128,0,0,1-2.748-3.881Zm8.241,37.086h-3.3V75.186h-1.648V92.493h-3.3V73.538h8.241Zm3.3-18.955a.826.826,0,0,1-.824.824h-.824V66.12h-1.648v5.769h-8.241V66.12H323.3v8.241h-.824a.826.826,0,0,1-.824-.824V65.4a2.471,2.471,0,0,1,1.872-2.4l3.289-.822a2.466,2.466,0,0,0,4.513,0L334.61,63a2.471,2.471,0,0,1,1.872,2.4Zm0,0" transform="translate(-287.034 -43.044)" fill="#fff"/>
      </g>
      <g id="Outline-2" data-name="Outline" transform="translate(1033.964 5628.776)">
        <path id="Trazado_226596" data-name="Trazado 226596" d="M39.968,20.121v-3.3A.824.824,0,0,1,40.792,16,20.567,20.567,0,0,1,56.5,23.269l-1.257,1.067a18.919,18.919,0,0,0-13.626-6.67v1.651a17,17,0,0,1,12.862,6.892,14.029,14.029,0,0,1,9.39-3.616h1.648v1.648H63.868A12.388,12.388,0,0,0,53.08,30.562l-1.437-.807A14,14,0,0,1,53.307,27.4l-.093-.128a15.361,15.361,0,0,0-12.422-6.326A.824.824,0,0,1,39.968,20.121ZM18.391,37.561l3.672.319A6.591,6.591,0,1,0,30.006,48.4l-1.013-1.3A4.945,4.945,0,1,1,30.8,42.2l1.615-.33a6.551,6.551,0,0,0-1.708-3.236l.853.074.143-1.642L18.533,35.919a.9.9,0,0,1,.078-1.788H31.726V32.483H18.611a2.545,2.545,0,0,0-.22,5.079ZM25.957,39.9a3.3,3.3,0,1,1-3.3,3.3,3.3,3.3,0,0,1,3.3-3.3Zm0,1.648A1.648,1.648,0,1,0,27.606,43.2a1.648,1.648,0,0,0-1.648-1.648Zm37.911,7.417h1.648v1.648H63.868v5.769h1.648v1.648H63.868v1.648h1.648v1.648H63.868v.824a3.3,3.3,0,0,1-6.593,0V57.207a3.294,3.294,0,0,1,4.945-2.853V50.516A14.019,14.019,0,0,1,50.939,31.2l1.52.637A12.37,12.37,0,0,0,63.868,48.966ZM62.22,57.207a1.648,1.648,0,1,0-3.3,0v4.945a1.648,1.648,0,0,0,3.3,0Zm.824-27.2v1.648h2.472v1.648h-3.2l-3.2.8a.824.824,0,0,1-.568-.062l-1.648-.824a.824.824,0,0,1-.456-.737v-3.3a.824.824,0,0,1,.824-.824h8.241V30.01Zm-1.648,0H58.1v1.963l.92.46,2.377-.594Zm3.3,6.593a4.172,4.172,0,0,1,.689.057l.272-1.626a5.769,5.769,0,1,0,0,11.378l-.273-1.626a4.169,4.169,0,0,1-.688.057,4.121,4.121,0,1,1,0-8.241ZM31.726,43.2h1.648V30.834a.824.824,0,0,1,.824-.824H36.98v1.648H35.023V36.6h4.945V31.659H38.216V30.01h9.169a.824.824,0,0,1,.824.824V43.2h1.648a.824.824,0,0,1,.824.824v3.3a.824.824,0,0,1-.824.824H49.4l-4.757,5.232-1.22-1.109,3.749-4.123H45.652l-3.746,4.121L49.4,60.5h.46a.824.824,0,0,1,.824.824v3.3a.824.824,0,0,1-.824.824H31.726a.824.824,0,0,1-.824-.824v-3.3a.824.824,0,0,1,.824-.824h.46l5.619-6.181-5.619-6.181h-.46a.824.824,0,0,1-.824-.824v-3.3A.824.824,0,0,1,31.726,43.2ZM34.414,60.5h1.518l3.746-4.121-.759-.835Zm3.746,0h5.265l-2.632-2.9Zm10.874,1.648H32.55V63.8H49.033Zm-13.1-14.01H34.413L45.652,60.5H47.17Zm7.492,0H38.16l2.632,2.9ZM41.616,36.6h4.945V31.659H41.616Zm0,6.593h4.945V38.252H41.616Zm-6.593,0h4.945V38.252H35.023Zm-2.472,3.3H49.033V44.845H32.55Z" transform="translate(-16.076 -16)" fill="#fff"/>
      </g>
      <g id="b5" transform="translate(871.728 5748.077)">
        <path id="Trazado_226597" data-name="Trazado 226597" d="M15.3,20H13.648A1.65,1.65,0,0,0,12,21.648V23.3a1.65,1.65,0,0,0,1.648,1.648H15.3A1.65,1.65,0,0,0,16.945,23.3V21.648A1.65,1.65,0,0,0,15.3,20Zm-1.648,3.3V21.648H15.3V23.3Z" transform="translate(-2.11 -3.517)" fill="#fff"/>
        <path id="Trazado_226598" data-name="Trazado 226598" d="M23.3,20H21.648A1.65,1.65,0,0,0,20,21.648V23.3a1.65,1.65,0,0,0,1.648,1.648H23.3A1.65,1.65,0,0,0,24.945,23.3V21.648A1.65,1.65,0,0,0,23.3,20Zm-1.648,3.3V21.648H23.3V23.3Z" transform="translate(-3.517 -3.517)" fill="#fff"/>
        <path id="Trazado_226599" data-name="Trazado 226599" d="M31.3,20H29.648A1.65,1.65,0,0,0,28,21.648V23.3a1.65,1.65,0,0,0,1.648,1.648H31.3A1.65,1.65,0,0,0,32.945,23.3V21.648A1.65,1.65,0,0,0,31.3,20Zm-1.648,3.3V21.648H31.3V23.3Z" transform="translate(-4.924 -3.517)" fill="#fff"/>
        <path id="Trazado_226600" data-name="Trazado 226600" d="M40.945,21.648A1.65,1.65,0,0,0,39.3,20H37.648A1.65,1.65,0,0,0,36,21.648V23.3a1.65,1.65,0,0,0,1.648,1.648H39.3A1.65,1.65,0,0,0,40.945,23.3Zm-3.3,1.648V21.648H39.3V23.3Z" transform="translate(-6.331 -3.517)" fill="#fff"/>
        <path id="Trazado_226601" data-name="Trazado 226601" d="M36.629,27.3l6.947-5.557a2.462,2.462,0,0,0,.927-1.93v-.032a1.65,1.65,0,0,0,1.648-1.648V16.483A1.65,1.65,0,0,0,44.5,14.835V4.945A1.65,1.65,0,0,0,42.855,3.3H41.68a1.655,1.655,0,0,0-1.424.818l-5.291,9.072H24.694c.018-.274.03-.55.03-.824A12.362,12.362,0,1,0,0,12.362,12.23,12.23,0,0,0,1.085,17.39,9.1,9.1,0,0,0,.391,18.7a4.839,4.839,0,0,0,0,3.813,9.082,9.082,0,0,0,8.358,5.511h6.015L17.4,29.669H9.89a1.65,1.65,0,0,0-1.648,1.648v8.241h-3.3A1.65,1.65,0,0,0,3.3,41.207v8.241A1.65,1.65,0,0,0,4.945,51.1h8.241a1.63,1.63,0,0,0,.824-.229,1.63,1.63,0,0,0,.824.229h8.241a1.65,1.65,0,0,0,1.648-1.648V41.207a1.65,1.65,0,0,0-1.648-1.648h-3.3V31.317a1.693,1.693,0,0,0-.017-.172l5.067,3.167a1.993,1.993,0,0,0,1.054.3h3.445a1.99,1.99,0,0,0,1.407-3.4l-3.2-3.2h7.033a3.306,3.306,0,0,0,2.059-.722ZM13.186,31.317h1.648v1.648H13.186Zm-3.3,9.89v1.648H8.241V41.207ZM4.945,49.448V41.207H6.593v1.648A1.65,1.65,0,0,0,8.241,44.5H9.89a1.65,1.65,0,0,0,1.648-1.648V41.207h1.648v8.241Zm18.132,0H14.834V41.207h1.648v1.648A1.65,1.65,0,0,0,18.131,44.5h1.648a1.65,1.65,0,0,0,1.648-1.648V41.207h1.648Zm-4.946-8.241h1.648v1.648H18.131Zm-3.3-1.648H9.89V31.317h1.648v1.648a1.65,1.65,0,0,0,1.648,1.648h1.648a1.65,1.65,0,0,0,1.648-1.648V31.317h1.648v8.241ZM44.5,18.131H37.91V16.483H44.5ZM23.043,13.186H18.108c.015-.275.023-.551.023-.824a15.593,15.593,0,0,0-.569-4.121h4.687a10.658,10.658,0,0,1,.827,4.121C23.076,12.637,23.064,12.912,23.043,13.186ZM5.769,15.468v3.487a.825.825,0,0,1-.824.824H1.77a3.21,3.21,0,0,1,.136-.433A7.424,7.424,0,0,1,5.769,15.468ZM8.289,13.2c-.016-.281-.048-.562-.048-.841a14.013,14.013,0,0,1,.634-4.121h6.973a13.986,13.986,0,0,1,.635,4.121c0,.274-.03.549-.046.824H8.748C8.595,13.186,8.442,13.2,8.289,13.2ZM12.362,2.2l1.319,1.758a13.916,13.916,0,0,1,1.545,2.637H9.5a13.942,13.942,0,0,1,1.545-2.637Zm9.014,4.4H17.013A15.619,15.619,0,0,0,15,2.967l-.87-1.16A10.723,10.723,0,0,1,21.376,6.593ZM10.6,1.807l-.87,1.16A15.619,15.619,0,0,0,7.711,6.593H3.348A10.723,10.723,0,0,1,10.6,1.807ZM2.475,8.241H7.162a15.593,15.593,0,0,0-.569,4.121c0,.358.016.717.041,1.076a9.076,9.076,0,0,0-4.38,2.477,10.7,10.7,0,0,1,.221-7.673ZM29.669,32.624a.342.342,0,0,1-.341.341H25.883a.343.343,0,0,1-.181-.052L13.3,25.16a.233.233,0,0,1-.11-.2.236.236,0,0,1,.237-.237h8.39a.24.24,0,0,1,.167.069l7.589,7.59a.344.344,0,0,1,.1.241Zm-6.524-9a1.9,1.9,0,0,0-1.333-.552h-8.39a1.887,1.887,0,0,0-1.885,1.885,1.859,1.859,0,0,0,.658,1.412H8.749A7.437,7.437,0,0,1,1.906,21.86a3.2,3.2,0,0,1-.136-.432H4.945a2.475,2.475,0,0,0,2.472-2.472V14.967a7.422,7.422,0,0,1,1.332-.133H34.965a1.655,1.655,0,0,0,1.424-.818L41.68,4.945h1.175v9.89H37.91a1.65,1.65,0,0,0-1.648,1.648v1.648a1.65,1.65,0,0,0,1.648,1.648h4.945v.032a.822.822,0,0,1-.309.644L35.6,26.012a1.656,1.656,0,0,1-1.029.361H25.889Z" transform="translate(0 0)" fill="#fff"/>
        <path id="Trazado_226602" data-name="Trazado 226602" d="M56,26h4.945v1.648H56Z" transform="translate(-9.849 -4.572)" fill="#fff"/>
        <path id="Trazado_226603" data-name="Trazado 226603" d="M56,10h4.945v1.648H56Z" transform="translate(-9.849 -1.759)" fill="#fff"/>
        <path id="Trazado_226604" data-name="Trazado 226604" d="M58,14h3.3v1.648H58Z" transform="translate(-10.2 -2.462)" fill="#fff"/>
        <path id="Trazado_226605" data-name="Trazado 226605" d="M42,36h3.3v1.648H42Z" transform="translate(-7.386 -6.331)" fill="#fff"/>
        <path id="Trazado_226606" data-name="Trazado 226606" d="M48,36h6.593v1.648H48Z" transform="translate(-8.442 -6.331)" fill="#fff"/>
        <path id="Trazado_226607" data-name="Trazado 226607" d="M42,40h6.593v1.648H42Z" transform="translate(-7.386 -7.034)" fill="#fff"/>
        <path id="Trazado_226608" data-name="Trazado 226608" d="M38,12h3.3v1.648H38Z" transform="translate(-6.683 -2.11)" fill="#fff"/>
        <path id="Trazado_226609" data-name="Trazado 226609" d="M32,8h8.241V9.648H32Z" transform="translate(-5.628 -1.407)" fill="#fff"/>
      </g>
    </g>
  </g>
</svg>
