<svg xmlns="http://www.w3.org/2000/svg" xmlns:xlink="http://www.w3.org/1999/xlink" width="265.6" height="326.644" viewBox="0 0 265.6 326.644">
  <defs>
    <filter id="Trazado_226716">
      <feOffset dy="19" input="SourceAlpha"/>
      <feGaussianBlur stdDeviation="6" result="blur"/>
      <feFlood flood-opacity="0.161" result="color"/>
      <feComposite operator="out" in="SourceGraphic" in2="blur"/>
      <feComposite operator="in" in="color"/>
      <feComposite operator="in" in2="SourceGraphic"/>
    </filter>
  </defs>
  <g id="Grupo_123912" data-name="Grupo 123912" transform="translate(5569.8 5070.869)">
    <g data-type="innerShadowGroup">
      <path id="Trazado_226716-2" data-name="Trazado 226716" d="M930.3,239.44,910.58,259.194a13.868,13.868,0,0,1-19.56,0L871.3,239.475H768V512.083h265.6V239.475Z" transform="translate(-6337.8 -5256.309)" fill="#6767e5"/>
      <g transform="matrix(1, 0, 0, 1, -5569.8, -5070.87)" filter="url(#Trazado_226716)">
        <path id="Trazado_226716-3" data-name="Trazado 226716" d="M930.3,239.44,910.58,259.194a13.868,13.868,0,0,1-19.56,0L871.3,239.475H768V512.083h265.6V239.475Z" transform="translate(-768 -185.44)" fill="#fff"/>
      </g>
    </g>
    <path id="Trazado_226724" data-name="Trazado 226724" d="M33.231,13.085H27.686V17.62h6.442V19H26V6.2H34.04v1.38H27.686v4.122h5.546Zm8.279,3.393a1.2,1.2,0,0,0-.5-1.024,4.78,4.78,0,0,0-1.731-.628,8.186,8.186,0,0,1-1.96-.633,2.788,2.788,0,0,1-1.072-.879A2.1,2.1,0,0,1,35.9,12.1a2.467,2.467,0,0,1,.989-1.978,3.861,3.861,0,0,1,2.527-.809,3.974,3.974,0,0,1,2.624.835,2.652,2.652,0,0,1,1.006,2.136H41.414a1.468,1.468,0,0,0-.567-1.151,2.124,2.124,0,0,0-1.428-.483,2.223,2.223,0,0,0-1.389.387,1.217,1.217,0,0,0-.5,1.011.986.986,0,0,0,.466.888,5.731,5.731,0,0,0,1.683.571,8.77,8.77,0,0,1,1.973.65,2.878,2.878,0,0,1,1.121.91,2.237,2.237,0,0,1,.365,1.3,2.434,2.434,0,0,1-1.02,2.043,4.277,4.277,0,0,1-2.646.769,4.789,4.789,0,0,1-2.021-.4,3.288,3.288,0,0,1-1.375-1.129,2.722,2.722,0,0,1-.5-1.569H37.2a1.683,1.683,0,0,0,.655,1.3,2.54,2.54,0,0,0,1.613.479,2.622,2.622,0,0,0,1.481-.374A1.148,1.148,0,0,0,41.511,16.478Zm11.777-2.127a5.694,5.694,0,0,1-.993,3.5,3.183,3.183,0,0,1-2.689,1.327,3.488,3.488,0,0,1-2.725-1.1v4.579H45.255V9.49H46.74l.079,1.055a3.35,3.35,0,0,1,2.76-1.23,3.243,3.243,0,0,1,2.711,1.292,5.756,5.756,0,0,1,1,3.595Zm-1.626-.185a4.2,4.2,0,0,0-.686-2.54,2.208,2.208,0,0,0-1.881-.932A2.39,2.39,0,0,0,46.881,12v4.544a2.4,2.4,0,0,0,2.232,1.3,2.2,2.2,0,0,0,1.859-.927A4.587,4.587,0,0,0,51.662,14.166ZM61.225,19A3.416,3.416,0,0,1,61,18a3.628,3.628,0,0,1-2.707,1.178,3.357,3.357,0,0,1-2.307-.8,2.573,2.573,0,0,1-.9-2.017,2.688,2.688,0,0,1,1.129-2.307,5.325,5.325,0,0,1,3.177-.822H60.97v-.747a1.826,1.826,0,0,0-.51-1.358,2.049,2.049,0,0,0-1.5-.505,2.371,2.371,0,0,0-1.459.439,1.3,1.3,0,0,0-.589,1.063H55.274a2.244,2.244,0,0,1,.505-1.375A3.449,3.449,0,0,1,57.151,9.7a4.613,4.613,0,0,1,1.9-.387,3.759,3.759,0,0,1,2.575.822A2.964,2.964,0,0,1,62.6,12.4v4.377a5.351,5.351,0,0,0,.334,2.083V19Zm-2.7-1.239a2.858,2.858,0,0,0,1.45-.4,2.392,2.392,0,0,0,.993-1.028V14.386H59.7q-2.988,0-2.988,1.749a1.48,1.48,0,0,0,.51,1.2A1.959,1.959,0,0,0,58.526,17.761Zm10.433.088a2.342,2.342,0,0,0,1.521-.527A1.855,1.855,0,0,0,71.2,16h1.538a2.949,2.949,0,0,1-.562,1.556,3.7,3.7,0,0,1-1.384,1.178,3.994,3.994,0,0,1-1.833.439,3.918,3.918,0,0,1-3.089-1.3,5.163,5.163,0,0,1-1.147-3.546v-.272a5.725,5.725,0,0,1,.51-2.47A3.883,3.883,0,0,1,66.7,9.912a4.157,4.157,0,0,1,2.254-.6,3.814,3.814,0,0,1,2.659.958,3.424,3.424,0,0,1,1.129,2.487H71.2a2.241,2.241,0,0,0-.7-1.516,2.174,2.174,0,0,0-1.551-.593,2.276,2.276,0,0,0-1.92.892,4.19,4.19,0,0,0-.681,2.58v.308a4.106,4.106,0,0,0,.677,2.531A2.287,2.287,0,0,0,68.959,17.849ZM76.333,19H74.707V9.49h1.626ZM74.575,6.968a.971.971,0,0,1,.242-.668.907.907,0,0,1,.716-.272.922.922,0,0,1,.721.272.96.96,0,0,1,.246.668.929.929,0,0,1-.246.659.938.938,0,0,1-.721.264.924.924,0,0,1-.716-.264A.938.938,0,0,1,74.575,6.968ZM78.5,14.157a5.617,5.617,0,0,1,.549-2.514,4.1,4.1,0,0,1,1.529-1.723,4.163,4.163,0,0,1,2.237-.606,4.01,4.01,0,0,1,3.142,1.345,5.174,5.174,0,0,1,1.2,3.577v.114a5.666,5.666,0,0,1-.532,2.492,4.038,4.038,0,0,1-1.521,1.718,4.211,4.211,0,0,1-2.272.615A4,4,0,0,1,79.7,17.831a5.147,5.147,0,0,1-1.2-3.56Zm1.635.193a4.068,4.068,0,0,0,.734,2.54,2.487,2.487,0,0,0,3.933-.013,4.449,4.449,0,0,0,.729-2.72,4.061,4.061,0,0,0-.743-2.536,2.361,2.361,0,0,0-1.973-.971,2.335,2.335,0,0,0-1.942.958A4.416,4.416,0,0,0,80.139,14.351Zm14.6,2.127a1.2,1.2,0,0,0-.5-1.024,4.78,4.78,0,0,0-1.731-.628,8.186,8.186,0,0,1-1.96-.633,2.788,2.788,0,0,1-1.072-.879A2.1,2.1,0,0,1,89.13,12.1a2.467,2.467,0,0,1,.989-1.978,3.861,3.861,0,0,1,2.527-.809,3.974,3.974,0,0,1,2.624.835,2.652,2.652,0,0,1,1.006,2.136H94.641a1.468,1.468,0,0,0-.567-1.151,2.124,2.124,0,0,0-1.428-.483,2.223,2.223,0,0,0-1.389.387,1.217,1.217,0,0,0-.5,1.011.986.986,0,0,0,.466.888,5.731,5.731,0,0,0,1.683.571,8.77,8.77,0,0,1,1.973.65,2.878,2.878,0,0,1,1.121.91,2.237,2.237,0,0,1,.365,1.3,2.434,2.434,0,0,1-1.02,2.043,4.277,4.277,0,0,1-2.646.769,4.789,4.789,0,0,1-2.021-.4A3.288,3.288,0,0,1,89.3,17.642a2.722,2.722,0,0,1-.5-1.569h1.626a1.683,1.683,0,0,0,.655,1.3,2.54,2.54,0,0,0,1.613.479,2.622,2.622,0,0,0,1.481-.374A1.148,1.148,0,0,0,94.737,16.478Zm16.233-2.127a5.694,5.694,0,0,1-.993,3.5,3.183,3.183,0,0,1-2.689,1.327,3.488,3.488,0,0,1-2.725-1.1v4.579h-1.626V9.49h1.485l.079,1.055a3.35,3.35,0,0,1,2.76-1.23,3.243,3.243,0,0,1,2.711,1.292,5.756,5.756,0,0,1,1,3.595Zm-1.626-.185a4.2,4.2,0,0,0-.686-2.54,2.208,2.208,0,0,0-1.881-.932A2.39,2.39,0,0,0,104.563,12v4.544a2.4,2.4,0,0,0,2.232,1.3,2.2,2.2,0,0,0,1.859-.927A4.587,4.587,0,0,0,109.345,14.166ZM118.907,19a3.416,3.416,0,0,1-.229-1,3.628,3.628,0,0,1-2.707,1.178,3.357,3.357,0,0,1-2.307-.8,2.573,2.573,0,0,1-.9-2.017,2.688,2.688,0,0,1,1.129-2.307,5.325,5.325,0,0,1,3.177-.822h1.582v-.747a1.826,1.826,0,0,0-.51-1.358,2.049,2.049,0,0,0-1.5-.505,2.371,2.371,0,0,0-1.459.439,1.3,1.3,0,0,0-.589,1.063h-1.635a2.244,2.244,0,0,1,.505-1.375,3.449,3.449,0,0,1,1.371-1.05,4.613,4.613,0,0,1,1.9-.387,3.759,3.759,0,0,1,2.575.822,2.964,2.964,0,0,1,.967,2.263v4.377a5.351,5.351,0,0,0,.334,2.083V19Zm-2.7-1.239a2.858,2.858,0,0,0,1.45-.4,2.392,2.392,0,0,0,.993-1.028V14.386h-1.274q-2.988,0-2.988,1.749a1.48,1.48,0,0,0,.51,1.2A1.959,1.959,0,0,0,116.209,17.761Zm11.215-6.812a4.873,4.873,0,0,0-.8-.062,2.143,2.143,0,0,0-2.171,1.362V19h-1.626V9.49h1.582l.026,1.1A2.532,2.532,0,0,1,126.7,9.314a1.661,1.661,0,0,1,.721.123ZM134.438,19a3.416,3.416,0,0,1-.229-1,3.628,3.628,0,0,1-2.707,1.178,3.357,3.357,0,0,1-2.307-.8,2.573,2.573,0,0,1-.9-2.017,2.688,2.688,0,0,1,1.129-2.307,5.325,5.325,0,0,1,3.177-.822h1.582v-.747a1.826,1.826,0,0,0-.51-1.358,2.049,2.049,0,0,0-1.5-.505,2.371,2.371,0,0,0-1.459.439,1.3,1.3,0,0,0-.589,1.063h-1.635a2.244,2.244,0,0,1,.505-1.375,3.449,3.449,0,0,1,1.371-1.05,4.613,4.613,0,0,1,1.9-.387,3.759,3.759,0,0,1,2.575.822,2.964,2.964,0,0,1,.967,2.263v4.377a5.351,5.351,0,0,0,.334,2.083V19Zm-2.7-1.239a2.858,2.858,0,0,0,1.45-.4,2.392,2.392,0,0,0,.993-1.028V14.386h-1.274q-2.988,0-2.988,1.749a1.48,1.48,0,0,0,.51,1.2A1.959,1.959,0,0,0,131.739,17.761Zm15.021,1.415a4.155,4.155,0,0,1-3.146-1.27,4.714,4.714,0,0,1-1.213-3.4v-.3a5.707,5.707,0,0,1,.541-2.527,4.217,4.217,0,0,1,1.512-1.74,3.8,3.8,0,0,1,2.1-.628,3.562,3.562,0,0,1,2.883,1.222,5.289,5.289,0,0,1,1.028,3.5v.677h-6.442a3.38,3.38,0,0,0,.822,2.272,2.583,2.583,0,0,0,2,.866,2.832,2.832,0,0,0,1.459-.352,3.666,3.666,0,0,0,1.046-.932l.993.773A3.993,3.993,0,0,1,146.76,19.176Zm-.2-8.525a2.169,2.169,0,0,0-1.652.716,3.482,3.482,0,0,0-.826,2.008h4.764v-.123a3.1,3.1,0,0,0-.668-1.92A2.042,2.042,0,0,0,146.558,10.65ZM154.116,19H152.49V5.5h1.626ZM49.513,39.166a5.571,5.571,0,0,1,1.037-3.52,3.529,3.529,0,0,1,5.361-.189V30.5h1.626V44H56.043l-.079-1.02a3.311,3.311,0,0,1-2.716,1.2,3.248,3.248,0,0,1-2.694-1.354,5.634,5.634,0,0,1-1.042-3.533Zm1.626.185a4.218,4.218,0,0,0,.668,2.531,2.159,2.159,0,0,0,1.846.914,2.372,2.372,0,0,0,2.259-1.389V37.039a2.39,2.39,0,0,0-2.241-1.345,2.17,2.17,0,0,0-1.863.923A4.644,4.644,0,0,0,51.139,39.351Zm12.867,4.825a4.155,4.155,0,0,1-3.146-1.27,4.714,4.714,0,0,1-1.213-3.4v-.3a5.707,5.707,0,0,1,.541-2.527,4.217,4.217,0,0,1,1.512-1.74,3.8,3.8,0,0,1,2.1-.628,3.562,3.562,0,0,1,2.883,1.222,5.289,5.289,0,0,1,1.028,3.5v.677H61.273a3.38,3.38,0,0,0,.822,2.272,2.583,2.583,0,0,0,2,.866,2.832,2.832,0,0,0,1.459-.352,3.666,3.666,0,0,0,1.046-.932l.993.773A3.993,3.993,0,0,1,64.006,44.176Zm-.2-8.525a2.169,2.169,0,0,0-1.652.716,3.482,3.482,0,0,0-.826,2.008h4.764v-.123a3.1,3.1,0,0,0-.668-1.92A2.042,2.042,0,0,0,63.8,35.65Zm13.825,3.7a5.694,5.694,0,0,1-.993,3.5,3.183,3.183,0,0,1-2.689,1.327,3.488,3.488,0,0,1-2.725-1.1v4.579H69.6V34.49h1.485l.079,1.055a3.35,3.35,0,0,1,2.76-1.23,3.243,3.243,0,0,1,2.711,1.292,5.756,5.756,0,0,1,1,3.595ZM76,39.166a4.2,4.2,0,0,0-.686-2.54,2.208,2.208,0,0,0-1.881-.932A2.39,2.39,0,0,0,71.222,37v4.544a2.4,2.4,0,0,0,2.232,1.3,2.2,2.2,0,0,0,1.859-.927A4.587,4.587,0,0,0,76,39.166Zm3.261-.009a5.617,5.617,0,0,1,.549-2.514,4.1,4.1,0,0,1,1.529-1.723,4.163,4.163,0,0,1,2.237-.606,4.01,4.01,0,0,1,3.142,1.345,5.174,5.174,0,0,1,1.2,3.577v.114a5.666,5.666,0,0,1-.532,2.492,4.038,4.038,0,0,1-1.521,1.718,4.211,4.211,0,0,1-2.272.615,4,4,0,0,1-3.133-1.345,5.147,5.147,0,0,1-1.2-3.56Zm1.635.193a4.068,4.068,0,0,0,.734,2.54,2.487,2.487,0,0,0,3.933-.013,4.449,4.449,0,0,0,.729-2.72,4.061,4.061,0,0,0-.743-2.536,2.361,2.361,0,0,0-1.973-.971,2.335,2.335,0,0,0-1.942.958A4.416,4.416,0,0,0,80.9,39.351ZM84.318,30.5h1.969l-2.355,2.584-1.31,0ZM95.5,41.478a1.2,1.2,0,0,0-.5-1.024,4.78,4.78,0,0,0-1.731-.628,8.186,8.186,0,0,1-1.96-.633,2.788,2.788,0,0,1-1.072-.879A2.1,2.1,0,0,1,89.89,37.1a2.467,2.467,0,0,1,.989-1.978,3.861,3.861,0,0,1,2.527-.809,3.974,3.974,0,0,1,2.624.835,2.652,2.652,0,0,1,1.006,2.136H95.4a1.468,1.468,0,0,0-.567-1.151,2.124,2.124,0,0,0-1.428-.483,2.223,2.223,0,0,0-1.389.387,1.217,1.217,0,0,0-.5,1.011.986.986,0,0,0,.466.888,5.731,5.731,0,0,0,1.683.571,8.77,8.77,0,0,1,1.973.65,2.878,2.878,0,0,1,1.121.91,2.237,2.237,0,0,1,.365,1.3,2.434,2.434,0,0,1-1.02,2.043,4.277,4.277,0,0,1-2.646.769,4.789,4.789,0,0,1-2.021-.4,3.288,3.288,0,0,1-1.375-1.129,2.722,2.722,0,0,1-.5-1.569h1.626a1.683,1.683,0,0,0,.655,1.3,2.54,2.54,0,0,0,1.613.479,2.622,2.622,0,0,0,1.481-.374A1.148,1.148,0,0,0,95.5,41.478ZM101.008,44H99.382V34.49h1.626ZM99.25,31.968a.971.971,0,0,1,.242-.668.907.907,0,0,1,.716-.272.922.922,0,0,1,.721.272.96.96,0,0,1,.246.668.929.929,0,0,1-.246.659.938.938,0,0,1-.721.264.924.924,0,0,1-.716-.264A.938.938,0,0,1,99.25,31.968Zm6.565.22v2.3h1.775v1.257h-1.775v5.9a1.32,1.32,0,0,0,.237.858,1,1,0,0,0,.809.286,3.937,3.937,0,0,0,.773-.105V44a4.742,4.742,0,0,1-1.248.175,2.025,2.025,0,0,1-1.644-.659,2.832,2.832,0,0,1-.554-1.872v-5.9h-1.731V34.49h1.731v-2.3Zm3.067,6.97a5.617,5.617,0,0,1,.549-2.514,4.1,4.1,0,0,1,1.529-1.723,4.163,4.163,0,0,1,2.237-.606,4.01,4.01,0,0,1,3.142,1.345,5.174,5.174,0,0,1,1.2,3.577v.114a5.666,5.666,0,0,1-.532,2.492,4.038,4.038,0,0,1-1.521,1.718,4.211,4.211,0,0,1-2.272.615,4,4,0,0,1-3.133-1.345,5.147,5.147,0,0,1-1.2-3.56Zm1.635.193a4.068,4.068,0,0,0,.734,2.54,2.487,2.487,0,0,0,3.933-.013,4.449,4.449,0,0,0,.729-2.72,4.061,4.061,0,0,0-.743-2.536,2.361,2.361,0,0,0-1.973-.971,2.335,2.335,0,0,0-1.942.958A4.416,4.416,0,0,0,110.518,39.351Zm16.629,2.268,2.215-7.128h1.74l-3.823,10.978q-.888,2.373-2.821,2.373l-.308-.026-.606-.114V46.382l.439.035a2.164,2.164,0,0,0,1.288-.334,2.417,2.417,0,0,0,.76-1.222l.36-.967L123,34.49h1.775ZM18.035,69a3.416,3.416,0,0,1-.229-1A3.628,3.628,0,0,1,15.1,69.176a3.357,3.357,0,0,1-2.307-.8,2.573,2.573,0,0,1-.9-2.017,2.688,2.688,0,0,1,1.129-2.307,5.325,5.325,0,0,1,3.177-.822H17.78v-.747a1.826,1.826,0,0,0-.51-1.358,2.049,2.049,0,0,0-1.5-.505,2.371,2.371,0,0,0-1.459.439,1.3,1.3,0,0,0-.589,1.063H12.085a2.244,2.244,0,0,1,.505-1.375,3.449,3.449,0,0,1,1.371-1.05,4.613,4.613,0,0,1,1.9-.387,3.759,3.759,0,0,1,2.575.822,2.964,2.964,0,0,1,.967,2.263v4.377a5.351,5.351,0,0,0,.334,2.083V69Zm-2.7-1.239a2.858,2.858,0,0,0,1.45-.4,2.392,2.392,0,0,0,.993-1.028V64.386H16.506q-2.988,0-2.988,1.749a1.48,1.48,0,0,0,.51,1.2A1.959,1.959,0,0,0,15.337,67.761ZM23.722,69H22.1V55.5h1.626Zm4.131-9.51.044,1.055a3.512,3.512,0,0,1,2.821-1.23,2.719,2.719,0,0,1,2.716,1.529,3.6,3.6,0,0,1,1.235-1.107,3.647,3.647,0,0,1,1.8-.422q3.129,0,3.182,3.313V69H38.021V62.725a2.184,2.184,0,0,0-.466-1.525,2.051,2.051,0,0,0-1.564-.505,2.156,2.156,0,0,0-1.5.541,2.193,2.193,0,0,0-.694,1.455V69H32.159V62.769a1.814,1.814,0,0,0-2.03-2.074,2.175,2.175,0,0,0-2.188,1.362V69H26.314V59.49ZM47.971,69a3.416,3.416,0,0,1-.229-1,3.628,3.628,0,0,1-2.707,1.178,3.357,3.357,0,0,1-2.307-.8,2.573,2.573,0,0,1-.9-2.017,2.688,2.688,0,0,1,1.129-2.307,5.325,5.325,0,0,1,3.177-.822h1.582v-.747a1.826,1.826,0,0,0-.51-1.358,2.049,2.049,0,0,0-1.5-.505,2.371,2.371,0,0,0-1.459.439,1.3,1.3,0,0,0-.589,1.063H42.021a2.244,2.244,0,0,1,.505-1.375A3.449,3.449,0,0,1,43.9,59.7a4.613,4.613,0,0,1,1.9-.387,3.759,3.759,0,0,1,2.575.822,2.964,2.964,0,0,1,.967,2.263v4.377a5.351,5.351,0,0,0,.334,2.083V69Zm-2.7-1.239a2.858,2.858,0,0,0,1.45-.4,2.392,2.392,0,0,0,.993-1.028V64.386H46.441q-2.988,0-2.988,1.749a1.48,1.48,0,0,0,.51,1.2A1.959,1.959,0,0,0,45.272,67.761Zm10.433.088a2.342,2.342,0,0,0,1.521-.527A1.855,1.855,0,0,0,57.946,66h1.538a2.949,2.949,0,0,1-.562,1.556,3.7,3.7,0,0,1-1.384,1.178,3.994,3.994,0,0,1-1.833.439,3.918,3.918,0,0,1-3.089-1.3,5.163,5.163,0,0,1-1.147-3.546v-.272a5.725,5.725,0,0,1,.51-2.47,3.883,3.883,0,0,1,1.463-1.679,4.157,4.157,0,0,1,2.254-.6,3.814,3.814,0,0,1,2.659.958,3.424,3.424,0,0,1,1.129,2.487H57.946a2.241,2.241,0,0,0-.7-1.516A2.174,2.174,0,0,0,55.7,60.65a2.276,2.276,0,0,0-1.92.892,4.19,4.19,0,0,0-.681,2.58v.308a4.106,4.106,0,0,0,.677,2.531A2.287,2.287,0,0,0,55.705,67.849Zm9.554,1.327a4.155,4.155,0,0,1-3.146-1.27,4.714,4.714,0,0,1-1.213-3.4v-.3a5.707,5.707,0,0,1,.541-2.527,4.217,4.217,0,0,1,1.512-1.74,3.8,3.8,0,0,1,2.1-.628,3.562,3.562,0,0,1,2.883,1.222,5.289,5.289,0,0,1,1.028,3.5v.677H62.525a3.38,3.38,0,0,0,.822,2.272,2.583,2.583,0,0,0,2,.866,2.832,2.832,0,0,0,1.459-.352,3.666,3.666,0,0,0,1.046-.932l.993.773A3.993,3.993,0,0,1,65.259,69.176Zm-.2-8.525a2.169,2.169,0,0,0-1.652.716,3.482,3.482,0,0,0-.826,2.008h4.764v-.123a3.1,3.1,0,0,0-.668-1.92A2.042,2.042,0,0,0,65.057,60.65Zm7.33-1.16.053,1.2a3.465,3.465,0,0,1,2.848-1.371q3.015,0,3.041,3.4V69H76.7V62.707a2.189,2.189,0,0,0-.47-1.521,1.884,1.884,0,0,0-1.437-.492,2.347,2.347,0,0,0-1.389.422,2.865,2.865,0,0,0-.932,1.107V69H70.849V59.49ZM86.651,69a3.416,3.416,0,0,1-.229-1,3.628,3.628,0,0,1-2.707,1.178,3.357,3.357,0,0,1-2.307-.8,2.573,2.573,0,0,1-.9-2.017,2.688,2.688,0,0,1,1.129-2.307,5.325,5.325,0,0,1,3.177-.822H86.4v-.747a1.826,1.826,0,0,0-.51-1.358,2.049,2.049,0,0,0-1.5-.505,2.371,2.371,0,0,0-1.459.439,1.3,1.3,0,0,0-.589,1.063H80.7a2.244,2.244,0,0,1,.505-1.375,3.449,3.449,0,0,1,1.371-1.05,4.613,4.613,0,0,1,1.9-.387,3.759,3.759,0,0,1,2.575.822,2.964,2.964,0,0,1,.967,2.263v4.377a5.351,5.351,0,0,0,.334,2.083V69Zm-2.7-1.239a2.858,2.858,0,0,0,1.45-.4,2.392,2.392,0,0,0,.993-1.028V64.386H85.122q-2.988,0-2.988,1.749a1.48,1.48,0,0,0,.51,1.2A1.959,1.959,0,0,0,83.953,67.761ZM92.1,59.49l.044,1.055a3.512,3.512,0,0,1,2.821-1.23,2.719,2.719,0,0,1,2.716,1.529,3.6,3.6,0,0,1,1.235-1.107,3.647,3.647,0,0,1,1.8-.422q3.129,0,3.182,3.313V69H102.27V62.725A2.184,2.184,0,0,0,101.8,61.2a2.051,2.051,0,0,0-1.564-.505,2.156,2.156,0,0,0-1.5.541,2.193,2.193,0,0,0-.694,1.455V69H96.407V62.769a1.814,1.814,0,0,0-2.03-2.074,2.175,2.175,0,0,0-2.188,1.362V69H90.563V59.49ZM108.114,69h-1.626V59.49h1.626Zm-1.758-12.032a.971.971,0,0,1,.242-.668.907.907,0,0,1,.716-.272.922.922,0,0,1,.721.272.96.96,0,0,1,.246.668.929.929,0,0,1-.246.659.938.938,0,0,1-.721.264.924.924,0,0,1-.716-.264A.938.938,0,0,1,106.356,56.968Zm8.306,12.208a4.155,4.155,0,0,1-3.146-1.27,4.714,4.714,0,0,1-1.213-3.4v-.3a5.707,5.707,0,0,1,.541-2.527,4.217,4.217,0,0,1,1.512-1.74,3.8,3.8,0,0,1,2.1-.628,3.562,3.562,0,0,1,2.883,1.222,5.289,5.289,0,0,1,1.028,3.5v.677h-6.442a3.38,3.38,0,0,0,.822,2.272,2.583,2.583,0,0,0,2,.866,2.832,2.832,0,0,0,1.459-.352,3.666,3.666,0,0,0,1.046-.932l.993.773A3.993,3.993,0,0,1,114.662,69.176Zm-.2-8.525a2.169,2.169,0,0,0-1.652.716,3.482,3.482,0,0,0-.826,2.008h4.764v-.123a3.1,3.1,0,0,0-.668-1.92A2.042,2.042,0,0,0,114.46,60.65Zm7.33-1.16.053,1.2a3.465,3.465,0,0,1,2.848-1.371q3.015,0,3.041,3.4V69h-1.626V62.707a2.189,2.189,0,0,0-.47-1.521,1.884,1.884,0,0,0-1.437-.492,2.347,2.347,0,0,0-1.389.422,2.865,2.865,0,0,0-.932,1.107V69h-1.626V59.49Zm10.6-2.3v2.3h1.775v1.257H132.39v5.9a1.32,1.32,0,0,0,.237.858,1,1,0,0,0,.809.286,3.937,3.937,0,0,0,.773-.105V69a4.742,4.742,0,0,1-1.248.175,2.025,2.025,0,0,1-1.644-.659,2.832,2.832,0,0,1-.554-1.872v-5.9h-1.731V59.49h1.731v-2.3Zm3.067,6.97a5.617,5.617,0,0,1,.549-2.514,4.1,4.1,0,0,1,1.529-1.723,4.163,4.163,0,0,1,2.237-.606,4.01,4.01,0,0,1,3.142,1.345,5.174,5.174,0,0,1,1.2,3.577v.114a5.666,5.666,0,0,1-.532,2.492,4.038,4.038,0,0,1-1.521,1.718,4.211,4.211,0,0,1-2.272.615,4,4,0,0,1-3.133-1.345,5.147,5.147,0,0,1-1.2-3.56Zm1.635.193a4.068,4.068,0,0,0,.734,2.54,2.487,2.487,0,0,0,3.933-.013,4.449,4.449,0,0,0,.729-2.72,4.061,4.061,0,0,0-.743-2.536,2.361,2.361,0,0,0-1.973-.971,2.335,2.335,0,0,0-1.942.958A4.416,4.416,0,0,0,137.092,64.351Zm13.122-.185a5.571,5.571,0,0,1,1.037-3.52,3.529,3.529,0,0,1,5.361-.189V55.5h1.626V69h-1.494l-.079-1.02a3.311,3.311,0,0,1-2.716,1.2,3.248,3.248,0,0,1-2.694-1.354,5.634,5.634,0,0,1-1.042-3.533Zm1.626.185a4.218,4.218,0,0,0,.668,2.531,2.159,2.159,0,0,0,1.846.914,2.372,2.372,0,0,0,2.259-1.389V62.039a2.39,2.39,0,0,0-2.241-1.345,2.17,2.17,0,0,0-1.863.923A4.644,4.644,0,0,0,151.84,64.351Zm12.867,4.825a4.155,4.155,0,0,1-3.146-1.27,4.714,4.714,0,0,1-1.213-3.4v-.3a5.707,5.707,0,0,1,.541-2.527,4.217,4.217,0,0,1,1.512-1.74,3.8,3.8,0,0,1,2.1-.628,3.562,3.562,0,0,1,2.883,1.222,5.289,5.289,0,0,1,1.028,3.5v.677h-6.442a3.38,3.38,0,0,0,.822,2.272,2.583,2.583,0,0,0,2,.866,2.832,2.832,0,0,0,1.459-.352,3.666,3.666,0,0,0,1.046-.932l.993.773A3.993,3.993,0,0,1,164.707,69.176Zm-.2-8.525a2.169,2.169,0,0,0-1.652.716,3.482,3.482,0,0,0-.826,2.008h4.764v-.123a3.1,3.1,0,0,0-.668-1.92A2.042,2.042,0,0,0,164.5,60.65ZM43.73,84.49l.044,1.055a3.512,3.512,0,0,1,2.821-1.23,2.719,2.719,0,0,1,2.716,1.529,3.6,3.6,0,0,1,1.235-1.107,3.647,3.647,0,0,1,1.8-.422q3.129,0,3.182,3.313V94H53.9V87.725a2.184,2.184,0,0,0-.466-1.525,2.051,2.051,0,0,0-1.564-.505,2.156,2.156,0,0,0-1.5.541,2.193,2.193,0,0,0-.694,1.455V94H48.037V87.769a1.814,1.814,0,0,0-2.03-2.074,2.175,2.175,0,0,0-2.188,1.362V94H42.192V84.49Zm18.193,9.686a4.155,4.155,0,0,1-3.146-1.27,4.714,4.714,0,0,1-1.213-3.4v-.3a5.707,5.707,0,0,1,.541-2.527,4.217,4.217,0,0,1,1.512-1.74,3.8,3.8,0,0,1,2.1-.628A3.562,3.562,0,0,1,64.6,85.536a5.289,5.289,0,0,1,1.028,3.5v.677H59.19a3.38,3.38,0,0,0,.822,2.272,2.583,2.583,0,0,0,2,.866A2.832,2.832,0,0,0,63.47,92.5a3.666,3.666,0,0,0,1.046-.932l.993.773A3.993,3.993,0,0,1,61.923,94.176Zm-.2-8.525a2.169,2.169,0,0,0-1.652.716,3.482,3.482,0,0,0-.826,2.008h4.764v-.123a3.1,3.1,0,0,0-.668-1.92A2.042,2.042,0,0,0,61.721,85.65Zm10.389.3a4.873,4.873,0,0,0-.8-.062,2.143,2.143,0,0,0-2.171,1.362V94H67.513V84.49H69.1l.026,1.1a2.532,2.532,0,0,1,2.268-1.274,1.661,1.661,0,0,1,.721.123Zm5.142,6.9a2.342,2.342,0,0,0,1.521-.527A1.855,1.855,0,0,0,79.493,91h1.538a2.949,2.949,0,0,1-.562,1.556,3.7,3.7,0,0,1-1.384,1.178,3.994,3.994,0,0,1-1.833.439,3.918,3.918,0,0,1-3.089-1.3,5.163,5.163,0,0,1-1.147-3.546v-.272a5.725,5.725,0,0,1,.51-2.47,3.883,3.883,0,0,1,1.463-1.679,4.157,4.157,0,0,1,2.254-.6,3.814,3.814,0,0,1,2.659.958,3.424,3.424,0,0,1,1.129,2.487H79.493a2.241,2.241,0,0,0-.7-1.516,2.174,2.174,0,0,0-1.551-.593,2.276,2.276,0,0,0-1.92.892,4.19,4.19,0,0,0-.681,2.58v.308a4.106,4.106,0,0,0,.677,2.531A2.287,2.287,0,0,0,77.251,92.849ZM88.73,94a3.416,3.416,0,0,1-.229-1,3.628,3.628,0,0,1-2.707,1.178,3.357,3.357,0,0,1-2.307-.8,2.573,2.573,0,0,1-.9-2.017,2.688,2.688,0,0,1,1.129-2.307,5.325,5.325,0,0,1,3.177-.822h1.582v-.747a1.826,1.826,0,0,0-.51-1.358,2.049,2.049,0,0,0-1.5-.505A2.371,2.371,0,0,0,85,86.063a1.3,1.3,0,0,0-.589,1.063H82.78a2.244,2.244,0,0,1,.505-1.375,3.449,3.449,0,0,1,1.371-1.05,4.613,4.613,0,0,1,1.9-.387,3.759,3.759,0,0,1,2.575.822A2.964,2.964,0,0,1,90.1,87.4v4.377a5.351,5.351,0,0,0,.334,2.083V94Zm-2.7-1.239a2.858,2.858,0,0,0,1.45-.4,2.392,2.392,0,0,0,.993-1.028V89.386H87.2q-2.988,0-2.988,1.749a1.48,1.48,0,0,0,.51,1.2A1.959,1.959,0,0,0,86.032,92.761Zm8.156-8.271.053,1.2a3.465,3.465,0,0,1,2.848-1.371q3.015,0,3.041,3.4V94H98.5V87.707a2.189,2.189,0,0,0-.47-1.521,1.884,1.884,0,0,0-1.437-.492,2.347,2.347,0,0,0-1.389.422,2.865,2.865,0,0,0-.932,1.107V94H92.65V84.49ZM106.4,92.849a2.342,2.342,0,0,0,1.521-.527A1.855,1.855,0,0,0,108.637,91h1.538a2.949,2.949,0,0,1-.562,1.556,3.7,3.7,0,0,1-1.384,1.178,3.994,3.994,0,0,1-1.833.439,3.918,3.918,0,0,1-3.089-1.3,5.163,5.163,0,0,1-1.147-3.546v-.272a5.725,5.725,0,0,1,.51-2.47,3.883,3.883,0,0,1,1.463-1.679,4.157,4.157,0,0,1,2.254-.6,3.814,3.814,0,0,1,2.659.958,3.424,3.424,0,0,1,1.129,2.487h-1.538a2.241,2.241,0,0,0-.7-1.516,2.174,2.174,0,0,0-1.551-.593,2.276,2.276,0,0,0-1.92.892,4.19,4.19,0,0,0-.681,2.58v.308a4.106,4.106,0,0,0,.677,2.531A2.287,2.287,0,0,0,106.4,92.849ZM113.77,94h-1.635V84.49h1.635Zm.018-13.491h1.969L113.4,83.093l-1.31,0ZM122.322,94a3.416,3.416,0,0,1-.229-1,3.628,3.628,0,0,1-2.707,1.178,3.357,3.357,0,0,1-2.307-.8,2.573,2.573,0,0,1-.9-2.017,2.688,2.688,0,0,1,1.129-2.307,5.325,5.325,0,0,1,3.177-.822h1.582v-.747a1.826,1.826,0,0,0-.51-1.358,2.049,2.049,0,0,0-1.5-.505,2.371,2.371,0,0,0-1.459.439,1.3,1.3,0,0,0-.589,1.063h-1.635a2.244,2.244,0,0,1,.505-1.375,3.449,3.449,0,0,1,1.371-1.05,4.613,4.613,0,0,1,1.9-.387,3.759,3.759,0,0,1,2.575.822,2.964,2.964,0,0,1,.967,2.263v4.377a5.351,5.351,0,0,0,.334,2.083V94Zm-2.7-1.239a2.858,2.858,0,0,0,1.45-.4,2.392,2.392,0,0,0,.993-1.028V89.386h-1.274q-2.988,0-2.988,1.749a1.48,1.48,0,0,0,.51,1.2A1.959,1.959,0,0,0,119.624,92.761Zm12.155-1.283a1.2,1.2,0,0,0-.5-1.024,4.78,4.78,0,0,0-1.731-.628,8.186,8.186,0,0,1-1.96-.633,2.788,2.788,0,0,1-1.072-.879,2.1,2.1,0,0,1-.347-1.213,2.467,2.467,0,0,1,.989-1.978,3.861,3.861,0,0,1,2.527-.809,3.974,3.974,0,0,1,2.624.835,2.652,2.652,0,0,1,1.006,2.136h-1.635a1.468,1.468,0,0,0-.567-1.151,2.124,2.124,0,0,0-1.428-.483,2.223,2.223,0,0,0-1.389.387,1.217,1.217,0,0,0-.5,1.011.986.986,0,0,0,.466.888,5.731,5.731,0,0,0,1.683.571,8.77,8.77,0,0,1,1.973.65,2.878,2.878,0,0,1,1.121.91,2.237,2.237,0,0,1,.365,1.3,2.434,2.434,0,0,1-1.02,2.043,4.277,4.277,0,0,1-2.646.769,4.789,4.789,0,0,1-2.021-.4,3.288,3.288,0,0,1-1.375-1.129,2.722,2.722,0,0,1-.5-1.569h1.626a1.683,1.683,0,0,0,.655,1.3,2.54,2.54,0,0,0,1.613.479,2.622,2.622,0,0,0,1.481-.374A1.148,1.148,0,0,0,131.779,91.478Zm3.779,1.67a1.018,1.018,0,0,1,.25-.7.954.954,0,0,1,.751-.281.983.983,0,0,1,.76.281,1,1,0,0,1,.259.7.944.944,0,0,1-.259.677,1,1,0,0,1-.76.272.9.9,0,0,1-1-.949Z" transform="translate(-5527 -4932.092)" fill="#fff"/>
    <g id="Grupo_123868" data-name="Grupo 123868" transform="translate(-5463.951 -5070.869)">
      <rect id="Rectángulo_35904" data-name="Rectángulo 35904" width="54" height="54" transform="translate(-0.048 0)" fill="none" opacity="0.45"/>
    </g>
    <g id="warehouse_1_" data-name="warehouse (1)" transform="translate(-5459.312 -5067.269)">
      <path id="Trazado_226463" data-name="Trazado 226463" d="M103.93,44.211H68.371v-29.7L80.548,7.209V3.993H86.94a1.6,1.6,0,0,1,.8.216l16.99,9.843a1.6,1.6,0,0,1,.8,1.385V42.61a1.6,1.6,0,0,1-1.6,1.6Zm0,0" transform="translate(-61.568 -3.593)" fill="#176bad"/>
      <path id="Trazado_226464" data-name="Trazado 226464" d="M100.336,41.019H64.778a.4.4,0,0,1-.4-.4v-29.7a.4.4,0,0,1,.195-.344L76.554,3.389V.4a.4.4,0,0,1,.4-.4h6.392a2,2,0,0,1,1,.27l16.99,9.843a2.006,2.006,0,0,1,1,1.731V39.018a2,2,0,0,1-2,2Zm-35.158-.8h35.158a1.2,1.2,0,0,0,1.2-1.2V11.844a1.205,1.205,0,0,0-.6-1.039L83.948.963a1.2,1.2,0,0,0-.6-.162H77.354V3.616a.4.4,0,0,1-.194.343l-11.982,7.19V40.218Zm0,0" transform="translate(-57.975 -0.001)" fill="#12263f"/>
      <path id="Trazado_226465" data-name="Trazado 226465" d="M39.93,44.211H5.972a1.6,1.6,0,0,1-1.6-1.6V15.436a1.6,1.6,0,0,1,.8-1.385L22.148,4.209a1.6,1.6,0,0,1,1.606,0l16.979,9.843a1.6,1.6,0,0,1,.8,1.385V42.61a1.6,1.6,0,0,1-1.6,1.6Zm0,0" transform="translate(-3.971 -3.594)" fill="#36a3f7"/>
      <path id="Trazado_226467" data-name="Trazado 226467" d="M36.336,41.031H2.379a2,2,0,0,1-2-2V11.857a2.008,2.008,0,0,1,1-1.731L18.354.283a2.011,2.011,0,0,1,2.007,0L37.34,10.125a2.008,2.008,0,0,1,1,1.731V39.03a2,2,0,0,1-2,2ZM19.357.814a1.194,1.194,0,0,0-.6.162L1.776,10.818a1.206,1.206,0,0,0-.6,1.039V39.03a1.2,1.2,0,0,0,1.2,1.2H36.336a1.2,1.2,0,0,0,1.2-1.2V11.857a1.205,1.205,0,0,0-.6-1.039L19.96.975a1.2,1.2,0,0,0-.6-.162Zm0,0" transform="translate(-0.378 -0.013)" fill="#12263f"/>
      <path id="Trazado_226468" data-name="Trazado 226468" d="M64.086,173.742h25.75v23.235H64.086Zm0,0" transform="translate(-57.712 -156.359)" fill="#eee"/>
      <path id="Trazado_226469" data-name="Trazado 226469" d="M86.236,193.777H60.486a.4.4,0,0,1-.4-.4V170.142a.4.4,0,0,1,.4-.4h25.75a.4.4,0,0,1,.4.4v23.234a.4.4,0,0,1-.4.4Zm-25.35-.8h24.95V170.542H60.886Zm0,0" transform="translate(-54.112 -152.759)" fill="#63312d"/>
      <path id="Trazado_226470" data-name="Trazado 226470" d="M372.82,105.152h6.4v.8h-6.4Zm0,0" transform="translate(-335.557 -94.631)" fill="#12263f"/>
      <path id="Trazado_226471" data-name="Trazado 226471" d="M64.086,173.742h25.75v3.424H64.086Zm0,0" transform="translate(-57.712 -156.359)" fill="#dc9ce8"/>
      <path id="Trazado_226472" data-name="Trazado 226472" d="M64.086,207.969h25.75v3.424H64.086Zm0,0" transform="translate(-57.712 -187.161)" fill="#dc9ce8"/>
      <path id="Trazado_226473" data-name="Trazado 226473" d="M64.086,242.191h25.75v3.424H64.086Zm0,0" transform="translate(-57.712 -217.96)" fill="#dc9ce8"/>
      <g id="Grupo_123872" data-name="Grupo 123872" transform="translate(5.974 16.984)">
        <path id="Trazado_226474" data-name="Trazado 226474" d="M86.236,173.978H60.486a.4.4,0,0,1-.4-.4v-3.423a.4.4,0,0,1,.4-.4h25.75a.4.4,0,0,1,.4.4v3.423A.4.4,0,0,1,86.236,173.978Zm-25.35-.8h24.95v-2.623H60.886Zm0,0" transform="translate(-60.086 -169.754)" fill="#12263f"/>
        <path id="Trazado_226475" data-name="Trazado 226475" d="M86.236,208.193H60.486a.4.4,0,0,1-.4-.4v-3.423a.4.4,0,0,1,.4-.4h25.75a.4.4,0,0,1,.4.4v3.423A.4.4,0,0,1,86.236,208.193Zm-25.35-.8h24.95V204.77H60.886Zm0,0" transform="translate(-60.086 -200.546)" fill="#12263f"/>
        <path id="Trazado_226476" data-name="Trazado 226476" d="M86.236,242.408H60.486a.4.4,0,0,1-.4-.4v-3.424a.4.4,0,0,1,.4-.4h25.75a.4.4,0,0,1,.4.4v3.424A.4.4,0,0,1,86.236,242.408Zm-25.35-.8h24.95v-2.624H60.886Zm0,0" transform="translate(-60.086 -231.337)" fill="#12263f"/>
      </g>
      <path id="Trazado_226477" data-name="Trazado 226477" d="M201.051,364.77h10.936v9.905H201.051Zm0,0" transform="translate(-180.973 -328.274)" fill="#f9dd9d"/>
      <path id="Trazado_226478" data-name="Trazado 226478" d="M208.387,371.467H197.451a.4.4,0,0,1-.4-.4v-9.905a.4.4,0,0,1,.4-.4h10.936a.4.4,0,0,1,.4.4v9.905a.4.4,0,0,1-.4.4Zm-10.535-.8h10.136v-9.1H197.851Zm0,0" transform="translate(-177.374 -324.667)" fill="#63312d"/>
      <path id="Trazado_226479" data-name="Trazado 226479" d="M171.445,364.77h10.936v9.905H171.445Zm0,0" transform="translate(-154.33 -328.274)" fill="#f9dd9d"/>
      <path id="Trazado_226480" data-name="Trazado 226480" d="M173.046,366.371h9.334v-1.6H171.445v9.905h1.6Zm0,0" transform="translate(-154.33 -328.274)" fill="#ffeecf"/>
      <path id="Trazado_226481" data-name="Trazado 226481" d="M178.773,371.467H167.837a.4.4,0,0,1-.4-.4v-9.905a.4.4,0,0,1,.4-.4h10.936a.4.4,0,0,1,.4.4v9.905A.4.4,0,0,1,178.773,371.467Zm-10.536-.8h10.135v-9.1H168.237Zm0,0" transform="translate(-150.723 -324.667)" fill="#12263f"/>
      <path id="Trazado_226482" data-name="Trazado 226482" d="M213.906,364.77h2.438v3.3h-2.438Zm0,0" transform="translate(-192.542 -328.274)" fill="#f8f3f3"/>
      <path id="Trazado_226483" data-name="Trazado 226483" d="M212.744,364.864h-2.438a.4.4,0,0,1-.4-.4v-3.3a.4.4,0,0,1,.4-.4h2.438a.4.4,0,0,1,.4.4v3.3A.4.4,0,0,1,212.744,364.864Zm-2.038-.8h1.638v-2.5h-1.638Zm0,0" transform="translate(-188.942 -324.667)" fill="#12263f"/>
      <path id="Trazado_226484" data-name="Trazado 226484" d="M310.348,364.77h10.936v9.905H310.348Zm0,0" transform="translate(-279.335 -328.274)" fill="#f9dd9d"/>
      <path id="Trazado_226485" data-name="Trazado 226485" d="M317.683,371.467H306.747a.4.4,0,0,1-.4-.4v-9.905a.4.4,0,0,1,.4-.4h10.936a.4.4,0,0,1,.4.4v9.905A.4.4,0,0,1,317.683,371.467Zm-10.536-.8h10.136v-9.1H307.147Zm0,0" transform="translate(-275.734 -324.667)" fill="#12263f"/>
      <path id="Trazado_226486" data-name="Trazado 226486" d="M280.738,364.77h10.936v9.905H280.738Zm0,0" transform="translate(-252.688 -328.274)" fill="#f9dd9d"/>
      <path id="Trazado_226487" data-name="Trazado 226487" d="M282.22,366.25h9.454v-1.48H280.738v9.905h1.482Zm0,0" transform="translate(-252.688 -328.273)" fill="#ffeecf"/>
      <path id="Trazado_226488" data-name="Trazado 226488" d="M288.074,371.467H277.138a.4.4,0,0,1-.4-.4v-9.905a.4.4,0,0,1,.4-.4h10.936a.4.4,0,0,1,.4.4v9.905A.4.4,0,0,1,288.074,371.467Zm-10.536-.8h10.136v-9.1H277.538Zm0,0" transform="translate(-249.088 -324.667)" fill="#12263f"/>
      <path id="Trazado_226489" data-name="Trazado 226489" d="M323.211,364.77h2.438v3.3h-2.438Zm0,0" transform="translate(-290.911 -328.274)" fill="#f8f3f3"/>
      <path id="Trazado_226490" data-name="Trazado 226490" d="M322.049,364.864h-2.438a.4.4,0,0,1-.4-.4v-3.3a.4.4,0,0,1,.4-.4h2.438a.4.4,0,0,1,.4.4v3.3A.4.4,0,0,1,322.049,364.864Zm-2.038-.8h1.638v-2.5h-1.638Zm0,0" transform="translate(-287.311 -324.667)" fill="#12263f"/>
      <path id="Trazado_226491" data-name="Trazado 226491" d="M283.363,265.77H294.3v9.905H283.363Zm0,0" transform="translate(-255.05 -239.179)" fill="#f9dd9d"/>
      <path id="Trazado_226492" data-name="Trazado 226492" d="M290.7,272.468H279.763a.4.4,0,0,1-.4-.4v-9.905a.4.4,0,0,1,.4-.4H290.7a.4.4,0,0,1,.4.4v9.905A.4.4,0,0,1,290.7,272.468Zm-10.536-.8H290.3v-9.1H280.163Zm0,0" transform="translate(-251.45 -235.572)" fill="#12263f"/>
      <path id="Trazado_226493" data-name="Trazado 226493" d="M253.758,265.77h10.936v9.905H253.758Zm0,0" transform="translate(-228.407 -239.179)" fill="#f9dd9d"/>
      <path id="Trazado_226494" data-name="Trazado 226494" d="M255.238,267.25h9.455v-1.48H253.758v9.905h1.48Zm0,0" transform="translate(-228.407 -239.179)" fill="#ffeecf"/>
      <path id="Trazado_226495" data-name="Trazado 226495" d="M261.094,272.468H250.158a.4.4,0,0,1-.4-.4v-9.905a.4.4,0,0,1,.4-.4h10.936a.4.4,0,0,1,.4.4v9.905A.4.4,0,0,1,261.094,272.468Zm-10.535-.8h10.135v-9.1H250.558Zm0,0" transform="translate(-224.807 -235.572)" fill="#12263f"/>
      <path id="Trazado_226496" data-name="Trazado 226496" d="M296.227,265.77h2.438v3.3h-2.438Zm0,0" transform="translate(-266.627 -239.179)" fill="#f8f3f3"/>
      <path id="Trazado_226497" data-name="Trazado 226497" d="M295.064,265.864h-2.438a.4.4,0,0,1-.4-.4v-3.3a.4.4,0,0,1,.4-.4h2.438a.4.4,0,0,1,.4.4v3.3A.4.4,0,0,1,295.064,265.864Zm-2.037-.8h1.637v-2.5h-1.637Zm0,0" transform="translate(-263.027 -235.572)" fill="#12263f"/>
    </g>
  </g>
</svg>
