<svg xmlns="http://www.w3.org/2000/svg" xmlns:xlink="http://www.w3.org/1999/xlink" width="728" height="661.6" viewBox="0 0 728 661.6">
  <defs>
    <linearGradient id="linear-gradient" x1="0.187" y1="0.097" x2="0.806" y2="0.894" gradientUnits="objectBoundingBox">
      <stop offset="0.32" stop-color="#fff"/>
      <stop offset="0.6" stop-color="#fdfdfd"/>
      <stop offset="0.76" stop-color="#f5f5f6"/>
      <stop offset="0.88" stop-color="#e7e9e9"/>
      <stop offset="0.98" stop-color="#d4d7d8"/>
      <stop offset="1" stop-color="#d0d3d4"/>
    </linearGradient>
    <linearGradient id="linear-gradient-2" x1="0.814" y1="0.882" x2="0.189" y2="0.121" xlink:href="#linear-gradient"/>
    <linearGradient id="linear-gradient-3" x1="0.187" y1="0.097" x2="0.806" y2="0.894" xlink:href="#linear-gradient"/>
    <linearGradient id="linear-gradient-4" x1="0.787" y1="0.877" x2="-0.148" y2="-0.353" gradientUnits="objectBoundingBox">
      <stop offset="0" stop-color="#66dada"/>
      <stop offset="1" stop-color="#1c8fda"/>
    </linearGradient>
    <linearGradient id="linear-gradient-5" x1="0.166" y1="0.118" x2="0.836" y2="0.883" xlink:href="#linear-gradient"/>
    <linearGradient id="linear-gradient-6" x1="0.802" y1="0.898" x2="-0.077" y2="-0.26" gradientUnits="objectBoundingBox">
      <stop offset="0" stop-color="#5994ce"/>
      <stop offset="1" stop-color="#2a5bce"/>
    </linearGradient>
    <linearGradient id="linear-gradient-7" x1="0.155" y1="0.129" x2="0.844" y2="0.869" xlink:href="#linear-gradient"/>
    <linearGradient id="linear-gradient-8" x1="0.863" y1="0.971" x2="-0.267" y2="-0.495" gradientUnits="objectBoundingBox">
      <stop offset="0" stop-color="#395da4"/>
      <stop offset="1" stop-color="#173486"/>
    </linearGradient>
    <linearGradient id="linear-gradient-9" x1="0.194" y1="0.098" x2="0.803" y2="0.897" xlink:href="#linear-gradient"/>
    <linearGradient id="linear-gradient-10" x1="0.909" y1="0.944" x2="-0.222" y2="-0.284" gradientUnits="objectBoundingBox">
      <stop offset="0" stop-color="#a67ab7"/>
      <stop offset="1" stop-color="#7f62c3"/>
    </linearGradient>
    <linearGradient id="linear-gradient-11" x1="0.155" y1="0.129" x2="0.844" y2="0.869" xlink:href="#linear-gradient"/>
    <linearGradient id="linear-gradient-12" x1="0.905" y1="1.008" x2="-0.086" y2="-0.234" gradientUnits="objectBoundingBox">
      <stop offset="0" stop-color="#ff007d"/>
      <stop offset="1" stop-color="#f739a8"/>
    </linearGradient>
  </defs>
  <g id="Grupo_123915" data-name="Grupo 123915" transform="translate(9213 7025)">
    <path id="Trazado_226728" data-name="Trazado 226728" d="M22,0H706a22,22,0,0,1,22,22V639.6a22,22,0,0,1-22,22H22a22,22,0,0,1-22-22V22A22,22,0,0,1,22,0Z" transform="translate(-9213 -7025)" fill="#40d3e2" opacity="0.1"/>
    <path id="Trazado_226729" data-name="Trazado 226729" d="M1.989,0H0" transform="translate(-8876.447 -6935.57)" fill="none" stroke="#231f20" stroke-linecap="round" stroke-width="4"/>
    <path id="Trazado_226524" data-name="Trazado 226524" d="M659.137,208.37H585.78A58.227,58.227,0,0,0,530.644,247.9L463.7,445.427" transform="translate(-9542.409 -7143.94)" fill="none" stroke="#231f20" stroke-linecap="round" stroke-miterlimit="10" stroke-width="4" stroke-dasharray="10.1 17.16"/>
    <path id="Trazado_226730" data-name="Trazado 226730" d="M.636,0,0,1.885" transform="translate(-9080.443 -6695.279)" fill="none" stroke="#231f20" stroke-linecap="round" stroke-width="4"/>
    <path id="Trazado_226731" data-name="Trazado 226731" d="M0,0,.636,1.881" transform="translate(-9080.443 -6693.394)" fill="none" stroke="#231f20" stroke-linecap="round" stroke-width="4"/>
    <path id="Trazado_226525" data-name="Trazado 226525" d="M466.45,838.22,532.3,1032.5a58.23,58.23,0,0,0,55.152,39.544h76.765" transform="translate(-9544.065 -7523.27)" fill="none" stroke="#231f20" stroke-linecap="round" stroke-miterlimit="10" stroke-width="4" stroke-dasharray="10.1 17.16"/>
    <path id="Trazado_226732" data-name="Trazado 226732" d="M0,0H1.989" transform="translate(-8876.447 -6451.222)" fill="none" stroke="#231f20" stroke-linecap="round" stroke-width="4"/>
    <path id="Trazado_226733" data-name="Trazado 226733" d="M1.989,0H0" transform="translate(-8801.388 -6814.484)" fill="none" stroke="#231f20" stroke-linecap="round" stroke-width="4"/>
    <path id="Trazado_226526" data-name="Trazado 226526" d="M738.344,512.8h-80.07A58.253,58.253,0,0,0,625,523.229L470.33,630.847" transform="translate(-9546.402 -7327.284)" fill="none" stroke="#231f20" stroke-linecap="round" stroke-miterlimit="10" stroke-width="4" stroke-dasharray="9.87 16.77"/>
    <path id="Trazado_226734" data-name="Trazado 226734" d="M1.631,0,0,1.138" transform="translate(-9080.443 -6694.532)" fill="none" stroke="#231f20" stroke-linecap="round" stroke-width="4"/>
    <path id="Trazado_226735" data-name="Trazado 226735" d="M0,0,1.631,1.134" transform="translate(-9080.443 -6693.394)" fill="none" stroke="#231f20" stroke-linecap="round" stroke-width="4"/>
    <path id="Trazado_226527" data-name="Trazado 226527" d="M477.21,829.67,629.149,935.383a58.243,58.243,0,0,0,33.26,10.429h83.4" transform="translate(-9550.546 -7518.12)" fill="none" stroke="#231f20" stroke-linecap="round" stroke-miterlimit="10" stroke-width="4" stroke-dasharray="9.87 16.77"/>
    <path id="Trazado_226736" data-name="Trazado 226736" d="M0,0H1.989" transform="translate(-8801.388 -6572.308)" fill="none" stroke="#231f20" stroke-linecap="round" stroke-width="4"/>
    <path id="Trazado_226737" data-name="Trazado 226737" d="M1.989,0H0" transform="translate(-8774.099 -6693.74)" fill="none" stroke="#231f20" stroke-linecap="round" stroke-width="4"/>
    <path id="Trazado_226738" data-name="Trazado 226738" d="M294.317,0,0,.33" transform="translate(-9075.109 -6693.732)" fill="none" stroke="#231f20" stroke-linecap="round" stroke-width="4" stroke-dasharray="9.9 16.83"/>
    <path id="Trazado_226739" data-name="Trazado 226739" d="M1.989,0,0,0" transform="translate(-9080.443 -6693.398)" fill="none" stroke="#231f20" stroke-linecap="round" stroke-width="4"/>
    <path id="Trazado_226533" data-name="Trazado 226533" d="M455.78,816.78l.541.744.875-.286h0Z" transform="translate(-9537.64 -7510.357)" fill="#ced3d6"/>
    <path id="Trazado_226534" data-name="Trazado 226534" d="M457.474,818.682l.541-.752h0l-.875.286Z" transform="translate(-9538.458 -7511.05)" fill="#ced3d6"/>
    <path id="Trazado_226535" data-name="Trazado 226535" d="M458.521,819.43v-1.5l-.541.752Z" transform="translate(-9538.964 -7511.05)" fill="#ced3d6"/>
    <path id="Trazado_226537" data-name="Trazado 226537" d="M1510.3,357.814h55.14a55.486,55.486,0,1,1,0,110.971h-44.305q.621,4.956,1.142,9.944h43.163a65.429,65.429,0,0,0,0-130.859H1491.1q1.881,4.948,3.655,9.944Z" transform="translate(-10161.164 -7227.955)" fill="#5994ce"/>
    <path id="Trazado_226538" data-name="Trazado 226538" d="M1565.439,955.87h-43.164q-.525,4.98-1.141,9.944h44.305a55.486,55.486,0,0,1,0,110.971h-70.684q-1.786,5-3.655,9.944h74.339a65.429,65.429,0,0,0,0-130.859Z" transform="translate(-10161.164 -7594.125)" fill="#a67ab7"/>
    <path id="Trazado_226539" data-name="Trazado 226539" d="M1032.54,109.3a65.5,65.5,0,0,0,65.429,65.429h120.617q-1.786-5-3.655-9.944H1097.953a55.486,55.486,0,0,1,0-110.971h58.632q-3.46-5.02-7.032-9.944h-51.6A65.5,65.5,0,0,0,1032.54,109.3Z" transform="translate(-9884.995 -7044.87)" fill="#66dada"/>
    <path id="Trazado_226540" data-name="Trazado 226540" d="M1153.1,1259.87h-55.167a65.429,65.429,0,0,0,0,130.859h51.6q3.58-4.932,7.032-9.944h-58.632a55.486,55.486,0,1,1,0-110.971h116.977q1.881-4.944,3.655-9.944Z" transform="translate(-9884.971 -7777.209)" fill="#f739a8"/>
    <path id="Trazado_226541" data-name="Trazado 226541" d="M1353.929,651.87a65.429,65.429,0,1,0,0,130.859H1399.1q.621-4.96,1.141-9.944h-46.314a55.486,55.486,0,1,1,0-110.971h46.314q-.525-4.988-1.141-9.944Z" transform="translate(-10039.147 -7411.04)" fill="#395da4"/>
    <path id="Trazado_226542" data-name="Trazado 226542" d="M1353.89,1284.87H1416.5a55.486,55.486,0,0,1,55.486,55.486h0a55.486,55.486,0,0,1-55.486,55.486h-62.482" transform="translate(-10078.529 -7792.266)" fill="none"/>
    <path id="Trazado_226547" data-name="Trazado 226547" d="M1611.14,676.87h62.482a55.486,55.486,0,0,1,55.486,55.486h0a55.486,55.486,0,0,1-55.486,55.486H1611.14" transform="translate(-10233.459 -7426.096)" fill="none"/>
    <path id="Trazado_226548" data-name="Trazado 226548" d="M1341.268,483.841h-62.482a55.486,55.486,0,0,1-55.486-55.486h0a55.486,55.486,0,0,1,55.486-55.486h62.482" transform="translate(-9999.881 -7243.011)" fill="none"/>
    <path id="Trazado_226551" data-name="Trazado 226551" d="M1355.2,68.87h62.482a55.486,55.486,0,0,1,55.486,55.486h0a55.486,55.486,0,0,1-55.486,55.486H1355.2" transform="translate(-10079.318 -7059.926)" fill="none"/>
    <g id="Grupo_123882" data-name="Grupo 123882" transform="translate(-9244.562 -7001)">
      <path id="Trazado_226528" data-name="Trazado 226528" d="M498.932,396.148l.208-13.048-7.773,10.486a111.584,111.584,0,0,0-32.027-4.671v111.1h0v.7l65.48-90.575A111.246,111.246,0,0,0,498.932,396.148Z" transform="translate(-297.174 -191.921)" fill="#66dada"/>
      <path id="Trazado_226529" data-name="Trazado 226529" d="M499.008,924.833a111.41,111.41,0,0,0,25.154-13.483L459.34,821.7V932.1a111.627,111.627,0,0,0,31.949-4.647l7.922,10.689Z" transform="translate(-297.174 -511.89)" fill="#f739a8"/>
      <path id="Trazado_226530" data-name="Trazado 226530" d="M553.228,878.1a111.131,111.131,0,0,0,12.236-25.717L459.34,817.93h0v1.02l64.823,89.658A111.98,111.98,0,0,0,548.6,884.757l12.642,3.892Z" transform="translate(-297.174 -509.139)" fill="#a67ab7"/>
      <path id="Trazado_226531" data-name="Trazado 226531" d="M583.592,723.654l-12.731-4.1a111.377,111.377,0,0,0-5.4-30.4L459.34,723.989l106.124,34.453a111.292,111.292,0,0,0,5.409-30.7Z" transform="translate(-297.174 -415.199)" fill="#395da4"/>
      <path id="Trazado_226532" data-name="Trazado 226532" d="M92.363,426.173A111.369,111.369,0,0,0,46.72,515.7c0,.17,0,.341,0,.514A111.6,111.6,0,0,0,158.34,627.822l-.014-110.406-.365-.509-.227-.316-.368-.506.963.311v-.7h0V404.6A111.1,111.1,0,0,0,92.363,426.173Z" transform="translate(3.842 -207.605)" fill="#ced3d6"/>
      <path id="Trazado_226536" data-name="Trazado 226536" d="M459.34,573.635l106.124-34.829A111.959,111.959,0,0,0,524.82,483.06Z" transform="translate(-297.174 -264.844)" fill="#5994ce"/>
      <ellipse id="Elipse_5173" data-name="Elipse 5173" cx="101.394" cy="101.394" rx="101.394" ry="101.394" transform="translate(60.772 207.21)" fill="url(#linear-gradient)"/>
      <ellipse id="Elipse_5174" data-name="Elipse 5174" cx="98.621" cy="98.621" rx="98.621" ry="98.621" transform="translate(63.544 209.982)" fill="url(#linear-gradient-2)"/>
      <path id="Trazado_226552" data-name="Trazado 226552" d="M793.5,565.809,788.81,559.1,801.6,555.16Z" transform="translate(-537.53 -317.443)" fill="#5994ce"/>
    </g>
    <path id="Trazado_226740" data-name="Trazado 226740" d="M7.334,0A7.334,7.334,0,1,1,0,7.334,7.334,7.334,0,0,1,7.334,0Z" transform="translate(-8881.793 -6942.905)" fill="#66dada"/>
    <path id="Trazado_226741" data-name="Trazado 226741" d="M7.334,0A7.334,7.334,0,1,1,0,7.334,7.334,7.334,0,0,1,7.334,0Z" transform="translate(-8881.793 -6458.557)" fill="#f739a8"/>
    <path id="Trazado_226742" data-name="Trazado 226742" d="M7.334,0A7.334,7.334,0,1,1,0,7.334,7.334,7.334,0,0,1,7.334,0Z" transform="translate(-8806.733 -6579.643)" fill="#a67ab7"/>
    <path id="Trazado_226743" data-name="Trazado 226743" d="M7.334,0A7.334,7.334,0,1,1,0,7.334,7.334,7.334,0,0,1,7.334,0Z" transform="translate(-8779.722 -6690.02) rotate(-66.75)" fill="#395da4"/>
    <path id="Trazado_226744" data-name="Trazado 226744" d="M7.334,0A7.334,7.334,0,1,1,0,7.334,7.334,7.334,0,0,1,7.334,0Z" transform="translate(-8806.733 -6822.165)" fill="#5994ce"/>
    <path id="Trazado_226745" data-name="Trazado 226745" d="M50.713,0A50.713,50.713,0,1,1,0,50.713,50.713,50.713,0,0,1,50.713,0Z" transform="translate(-8711.76 -6986.203)" fill="#66dada"/>
    <path id="Trazado_226746" data-name="Trazado 226746" d="M45.765,0A45.765,45.765,0,1,1,0,45.765,45.765,45.765,0,0,1,45.765,0Z" transform="translate(-8706.812 -6981.255)" fill="url(#linear-gradient-3)"/>
    <path id="Trazado_226747" data-name="Trazado 226747" d="M42.758,0A42.758,42.758,0,1,1,0,42.758,42.758,42.758,0,0,1,42.758,0Z" transform="translate(-8703.805 -6978.249)" fill="url(#linear-gradient-4)"/>
    <path id="Trazado_226748" data-name="Trazado 226748" d="M50.713,0A50.713,50.713,0,1,1,0,50.713,50.713,50.713,0,0,1,50.713,0Z" transform="translate(-8772.11 -6865.384)" fill="#5994ce"/>
    <path id="Trazado_226749" data-name="Trazado 226749" d="M45.765,0A45.765,45.765,0,1,1,0,45.765,45.765,45.765,0,0,1,45.765,0Z" transform="translate(-8767.162 -6860.436)" fill="url(#linear-gradient-5)"/>
    <path id="Trazado_226750" data-name="Trazado 226750" d="M42.758,0A42.758,42.758,0,1,1,0,42.758,42.758,42.758,0,0,1,42.758,0Z" transform="translate(-8764.155 -6857.429)" fill="url(#linear-gradient-6)"/>
    <path id="Trazado_226751" data-name="Trazado 226751" d="M50.713,0A50.713,50.713,0,1,1,0,50.713,50.713,50.713,0,0,1,50.713,0Z" transform="translate(-8609.559 -6744.568)" fill="#5994ce"/>
    <path id="Trazado_226752" data-name="Trazado 226752" d="M50.713,0A50.713,50.713,0,1,1,0,50.713,50.713,50.713,0,0,1,50.713,0Z" transform="translate(-8611.15 -6743.773)" fill="#395da4"/>
    <path id="Trazado_226753" data-name="Trazado 226753" d="M45.765,0A45.765,45.765,0,1,1,0,45.765,45.765,45.765,0,0,1,45.765,0Z" transform="translate(-8605.581 -6739.62)" fill="url(#linear-gradient-7)"/>
    <path id="Trazado_226754" data-name="Trazado 226754" d="M42.758,0A42.758,42.758,0,1,1,0,42.758,42.758,42.758,0,0,1,42.758,0Z" transform="translate(-8602.574 -6736.613)" fill="url(#linear-gradient-8)"/>
    <path id="Trazado_226755" data-name="Trazado 226755" d="M50.713,0A50.713,50.713,0,1,1,0,50.713,50.713,50.713,0,0,1,50.713,0Z" transform="translate(-8772.11 -6623.538)" fill="#a67ab7"/>
    <g id="Grupo_123881" data-name="Grupo 123881" transform="translate(-8786.114 -6637.758)" opacity="0.55">
      <circle id="Elipse_5247" data-name="Elipse 5247" cx="45.765" cy="45.765" r="45.765" transform="translate(0 64.721) rotate(-45)" fill="#46494a"/>
    </g>
    <path id="Trazado_226756" data-name="Trazado 226756" d="M45.765,0A45.765,45.765,0,1,1,0,45.765,45.765,45.765,0,0,1,45.765,0Z" transform="translate(-8786.114 -6573.037) rotate(-45)" fill="url(#linear-gradient-9)"/>
    <path id="Trazado_226757" data-name="Trazado 226757" d="M42.758,0A42.758,42.758,0,1,1,0,42.758,42.758,42.758,0,0,1,42.758,0Z" transform="translate(-8764.155 -6615.794)" fill="url(#linear-gradient-10)"/>
    <path id="Trazado_226758" data-name="Trazado 226758" d="M50.713,0A50.713,50.713,0,1,1,0,50.713,50.713,50.713,0,0,1,50.713,0Z" transform="translate(-8712.917 -6503.037)" fill="#ff007d"/>
    <path id="Trazado_226759" data-name="Trazado 226759" d="M50.713,0A50.713,50.713,0,1,1,0,50.713,50.713,50.713,0,0,1,50.713,0Z" transform="translate(-8712.917 -6503.307)" fill="#f739a8"/>
    <path id="Trazado_226760" data-name="Trazado 226760" d="M45.765,0A45.765,45.765,0,1,1,0,45.765,45.765,45.765,0,0,1,45.765,0Z" transform="translate(-8707.97 -6498.088)" fill="url(#linear-gradient-11)"/>
    <path id="Trazado_226761" data-name="Trazado 226761" d="M42.758,0A42.758,42.758,0,1,1,0,42.758,42.758,42.758,0,0,1,42.758,0Z" transform="translate(-8704.963 -6495.082)" fill="url(#linear-gradient-12)"/>
    <path id="Trazado_226762" data-name="Trazado 226762" d="M0,0H108.6V57.279H0Z" transform="translate(-8828.403 -6956.79)" fill="none"/>
    <path id="Trazado_226763" data-name="Trazado 226763" d="M0,0H108.6V57.279H0Z" transform="translate(-8729.842 -6713.13)" fill="none"/>
    <path id="Trazado_226764" data-name="Trazado 226764" d="M0,0H108.6V57.279H0Z" transform="translate(-8828.403 -6472.911)" fill="none"/>
    <path id="Trazado_226765" data-name="Trazado 226765" d="M0,0H108.6V57.279H0Z" transform="translate(-8662.781 -6835.748)" fill="none"/>
    <path id="Trazado_226766" data-name="Trazado 226766" d="M0,0H108.6V57.279H0Z" transform="translate(-8662.781 -6593.759)" fill="none"/>
    <path id="Trazado_226767" data-name="Trazado 226767" d="M28.348,13.823H25.342V19h-1.7V6.2h4.236a5.014,5.014,0,0,1,3.327.984,3.542,3.542,0,0,1,1.165,2.865,3.445,3.445,0,0,1-.646,2.083,3.856,3.856,0,0,1-1.8,1.327l3.006,5.432V19H31.125Zm-3.006-1.38h2.593a2.924,2.924,0,0,0,2-.652,2.2,2.2,0,0,0,.743-1.743,2.32,2.32,0,0,0-.708-1.823,3,3,0,0,0-2.043-.643H25.342ZM40.354,19a3.416,3.416,0,0,1-.229-1,3.628,3.628,0,0,1-2.707,1.178,3.357,3.357,0,0,1-2.307-.8,2.573,2.573,0,0,1-.9-2.017,2.688,2.688,0,0,1,1.129-2.307,5.325,5.325,0,0,1,3.177-.822H40.1v-.747a1.826,1.826,0,0,0-.51-1.358,2.049,2.049,0,0,0-1.5-.505,2.371,2.371,0,0,0-1.459.439,1.3,1.3,0,0,0-.589,1.063H34.4a2.244,2.244,0,0,1,.505-1.375A3.449,3.449,0,0,1,36.28,9.7a4.613,4.613,0,0,1,1.9-.387,3.759,3.759,0,0,1,2.575.822,2.964,2.964,0,0,1,.967,2.263v4.377a5.351,5.351,0,0,0,.334,2.083V19Zm-2.7-1.239a2.858,2.858,0,0,0,1.45-.4,2.392,2.392,0,0,0,.993-1.028V14.386H38.825q-2.988,0-2.988,1.749a1.48,1.48,0,0,0,.51,1.2A1.959,1.959,0,0,0,37.656,17.761Zm14.651-3.41a5.694,5.694,0,0,1-.993,3.5,3.183,3.183,0,0,1-2.689,1.327,3.488,3.488,0,0,1-2.725-1.1v4.579H44.274V9.49h1.485l.079,1.055a3.35,3.35,0,0,1,2.76-1.23,3.243,3.243,0,0,1,2.711,1.292,5.756,5.756,0,0,1,1,3.595Zm-1.626-.185A4.2,4.2,0,0,0,50,11.626a2.208,2.208,0,0,0-1.881-.932A2.39,2.39,0,0,0,45.9,12v4.544a2.4,2.4,0,0,0,2.232,1.3,2.2,2.2,0,0,0,1.859-.927A4.587,4.587,0,0,0,50.681,14.166ZM56.139,19H54.513V9.49h1.626ZM54.381,6.968a.971.971,0,0,1,.242-.668.907.907,0,0,1,.716-.272.922.922,0,0,1,.721.272.96.96,0,0,1,.246.668.929.929,0,0,1-.246.659.938.938,0,0,1-.721.264.924.924,0,0,1-.716-.264A.938.938,0,0,1,54.381,6.968Zm3.964,7.2a5.571,5.571,0,0,1,1.037-3.52,3.529,3.529,0,0,1,5.361-.189V5.5H66.37V19H64.875L64.8,17.98a3.311,3.311,0,0,1-2.716,1.2,3.248,3.248,0,0,1-2.694-1.354,5.634,5.634,0,0,1-1.042-3.533Zm1.626.185a4.218,4.218,0,0,0,.668,2.531,2.159,2.159,0,0,0,1.846.914,2.372,2.372,0,0,0,2.259-1.389V12.039A2.39,2.39,0,0,0,62.5,10.694a2.17,2.17,0,0,0-1.863.923A4.644,4.644,0,0,0,59.971,14.351Zm12.867,4.825a4.155,4.155,0,0,1-3.146-1.27,4.714,4.714,0,0,1-1.213-3.4v-.3a5.707,5.707,0,0,1,.541-2.527,4.217,4.217,0,0,1,1.512-1.74,3.8,3.8,0,0,1,2.1-.628,3.562,3.562,0,0,1,2.883,1.222,5.289,5.289,0,0,1,1.028,3.5v.677H70.1a3.38,3.38,0,0,0,.822,2.272,2.583,2.583,0,0,0,2,.866,2.832,2.832,0,0,0,1.459-.352,3.666,3.666,0,0,0,1.046-.932l.993.773A3.993,3.993,0,0,1,72.838,19.176Zm-.2-8.525a2.169,2.169,0,0,0-1.652.716,3.482,3.482,0,0,0-.826,2.008h4.764v-.123a3.1,3.1,0,0,0-.668-1.92A2.042,2.042,0,0,0,72.636,10.65Zm7.321,7.022h5.563V19h-7.55V17.8l5.247-6.97H78.05V9.49h7.207v1.151Zm14.959-1.055L97.131,9.49h1.74L95.048,20.468q-.888,2.373-2.821,2.373l-.308-.026-.606-.114V21.382l.439.035a2.164,2.164,0,0,0,1.288-.334,2.417,2.417,0,0,0,.76-1.222l.36-.967-3.393-9.4h1.775ZM22.706,39.351a5.694,5.694,0,0,1-.993,3.5,3.183,3.183,0,0,1-2.689,1.327,3.488,3.488,0,0,1-2.725-1.1v4.579H14.672V34.49h1.485l.079,1.055A3.35,3.35,0,0,1,19,34.314a3.243,3.243,0,0,1,2.711,1.292,5.756,5.756,0,0,1,1,3.595Zm-1.626-.185a4.2,4.2,0,0,0-.686-2.54,2.208,2.208,0,0,0-1.881-.932A2.39,2.39,0,0,0,16.3,37v4.544a2.4,2.4,0,0,0,2.232,1.3,2.2,2.2,0,0,0,1.859-.927A4.587,4.587,0,0,0,21.08,39.166Zm9.563,3.894a3.454,3.454,0,0,1-2.786,1.116,2.956,2.956,0,0,1-2.316-.883,3.823,3.823,0,0,1-.8-2.615V34.49h1.626v6.144q0,2.162,1.758,2.162A2.434,2.434,0,0,0,30.6,41.407V34.49h1.626V44H30.677Zm5.59-8.569.053,1.2a3.465,3.465,0,0,1,2.848-1.371q3.015,0,3.041,3.4V44H40.547V37.707a2.189,2.189,0,0,0-.47-1.521,1.884,1.884,0,0,0-1.437-.492,2.347,2.347,0,0,0-1.389.422,2.865,2.865,0,0,0-.932,1.107V44H34.694V34.49Zm10.6-2.3v2.3h1.775v1.257H46.832v5.9a1.32,1.32,0,0,0,.237.858,1,1,0,0,0,.809.286,3.937,3.937,0,0,0,.773-.105V44a4.742,4.742,0,0,1-1.248.175,2.025,2.025,0,0,1-1.644-.659,2.832,2.832,0,0,1-.554-1.872v-5.9H43.474V34.49h1.731v-2.3ZM56.376,43.06a3.454,3.454,0,0,1-2.786,1.116,2.956,2.956,0,0,1-2.316-.883,3.823,3.823,0,0,1-.8-2.615V34.49H52.1v6.144q0,2.162,1.758,2.162a2.434,2.434,0,0,0,2.479-1.389V34.49h1.626V44H56.412ZM66.3,44a3.416,3.416,0,0,1-.229-1,3.628,3.628,0,0,1-2.707,1.178,3.357,3.357,0,0,1-2.307-.8,2.573,2.573,0,0,1-.9-2.017,2.688,2.688,0,0,1,1.129-2.307,5.325,5.325,0,0,1,3.177-.822h1.582v-.747a1.826,1.826,0,0,0-.51-1.358,2.049,2.049,0,0,0-1.5-.505,2.371,2.371,0,0,0-1.459.439,1.3,1.3,0,0,0-.589,1.063H60.349a2.244,2.244,0,0,1,.505-1.375,3.449,3.449,0,0,1,1.371-1.05,4.613,4.613,0,0,1,1.9-.387,3.759,3.759,0,0,1,2.575.822A2.964,2.964,0,0,1,67.67,37.4v4.377A5.351,5.351,0,0,0,68,43.859V44Zm-2.7-1.239a2.858,2.858,0,0,0,1.45-.4,2.392,2.392,0,0,0,.993-1.028V39.386H64.77q-2.988,0-2.988,1.749a1.48,1.48,0,0,0,.51,1.2A1.959,1.959,0,0,0,63.6,42.761ZM71.986,44H70.36V30.5h1.626Zm4.368,0H74.728V34.49h1.626ZM74.6,31.968a.971.971,0,0,1,.242-.668.907.907,0,0,1,.716-.272.922.922,0,0,1,.721.272.96.96,0,0,1,.246.668.929.929,0,0,1-.246.659.938.938,0,0,1-.721.264.924.924,0,0,1-.716-.264A.938.938,0,0,1,74.6,31.968Zm3.964,7.2a5.571,5.571,0,0,1,1.037-3.52,3.529,3.529,0,0,1,5.361-.189V30.5h1.626V44H85.09l-.079-1.02a3.311,3.311,0,0,1-2.716,1.2A3.248,3.248,0,0,1,79.6,42.822a5.634,5.634,0,0,1-1.042-3.533Zm1.626.185a4.218,4.218,0,0,0,.668,2.531A2.159,2.159,0,0,0,82.7,42.8a2.372,2.372,0,0,0,2.259-1.389V37.039a2.39,2.39,0,0,0-2.241-1.345,2.17,2.17,0,0,0-1.863.923A4.644,4.644,0,0,0,80.186,39.351ZM94.978,44a3.416,3.416,0,0,1-.229-1,3.628,3.628,0,0,1-2.707,1.178,3.357,3.357,0,0,1-2.307-.8,2.573,2.573,0,0,1-.9-2.017,2.688,2.688,0,0,1,1.129-2.307,5.325,5.325,0,0,1,3.177-.822h1.582v-.747a1.826,1.826,0,0,0-.51-1.358,2.049,2.049,0,0,0-1.5-.505,2.371,2.371,0,0,0-1.459.439,1.3,1.3,0,0,0-.589,1.063H89.028a2.244,2.244,0,0,1,.505-1.375A3.449,3.449,0,0,1,90.9,34.7a4.613,4.613,0,0,1,1.9-.387,3.759,3.759,0,0,1,2.575.822,2.964,2.964,0,0,1,.967,2.263v4.377a5.351,5.351,0,0,0,.334,2.083V44Zm-2.7-1.239a2.858,2.858,0,0,0,1.45-.4,2.392,2.392,0,0,0,.993-1.028V39.386H93.449q-2.988,0-2.988,1.749a1.48,1.48,0,0,0,.51,1.2A1.959,1.959,0,0,0,92.28,42.761ZM98.5,39.166a5.571,5.571,0,0,1,1.037-3.52,3.529,3.529,0,0,1,5.361-.189V30.5h1.626V44h-1.494l-.079-1.02a3.311,3.311,0,0,1-2.716,1.2,3.248,3.248,0,0,1-2.694-1.354A5.634,5.634,0,0,1,98.5,39.289Zm1.626.185a4.218,4.218,0,0,0,.668,2.531,2.159,2.159,0,0,0,1.846.914,2.372,2.372,0,0,0,2.259-1.389V37.039a2.39,2.39,0,0,0-2.241-1.345,2.17,2.17,0,0,0-1.863.923A4.644,4.644,0,0,0,100.128,39.351Z" transform="translate(-8834.285 -6963.74)" fill="#12263f"/>
    <path id="Trazado_226768" data-name="Trazado 226768" d="M37.532,15.651H32.171L30.967,19h-1.74L34.113,6.2H35.59l4.9,12.8H38.754Zm-4.852-1.38h4.351l-2.18-5.985Zm8.886-.105a5.589,5.589,0,0,1,1.028-3.538,3.545,3.545,0,0,1,5.44-.083l.079-1.055H49.6v9.281a3.869,3.869,0,0,1-1.094,2.909,4.038,4.038,0,0,1-2.94,1.063,4.891,4.891,0,0,1-2.013-.439,3.465,3.465,0,0,1-1.5-1.2l.844-.976a3.18,3.18,0,0,0,2.558,1.292,2.491,2.491,0,0,0,1.85-.668,2.553,2.553,0,0,0,.664-1.881v-.817A3.342,3.342,0,0,1,45.3,19.176a3.248,3.248,0,0,1-2.7-1.345A5.876,5.876,0,0,1,41.566,14.166Zm1.635.185a4.264,4.264,0,0,0,.659,2.527,2.142,2.142,0,0,0,1.846.918,2.382,2.382,0,0,0,2.259-1.4V12.057a2.41,2.41,0,0,0-2.241-1.362,2.161,2.161,0,0,0-1.854.923A4.644,4.644,0,0,0,43.2,14.351ZM53.818,19H52.192V9.49h1.626ZM52.061,6.968A.971.971,0,0,1,52.3,6.3a.907.907,0,0,1,.716-.272.922.922,0,0,1,.721.272.96.96,0,0,1,.246.668.929.929,0,0,1-.246.659.938.938,0,0,1-.721.264.924.924,0,0,1-.716-.264A.938.938,0,0,1,52.061,6.968ZM58.187,19H56.561V5.5h1.626Zm4.368,0H60.929V9.49h1.626ZM60.8,6.968a.971.971,0,0,1,.242-.668.907.907,0,0,1,.716-.272.922.922,0,0,1,.721.272.96.96,0,0,1,.246.668.929.929,0,0,1-.246.659.938.938,0,0,1-.721.264.924.924,0,0,1-.716-.264A.938.938,0,0,1,60.8,6.968Zm3.964,7.2a5.571,5.571,0,0,1,1.037-3.52,3.529,3.529,0,0,1,5.361-.189V5.5h1.626V19H71.291l-.079-1.02a3.311,3.311,0,0,1-2.716,1.2A3.248,3.248,0,0,1,65.8,17.822a5.634,5.634,0,0,1-1.042-3.533Zm1.626.185a4.218,4.218,0,0,0,.668,2.531A2.159,2.159,0,0,0,68.9,17.8a2.372,2.372,0,0,0,2.259-1.389V12.039a2.39,2.39,0,0,0-2.241-1.345,2.17,2.17,0,0,0-1.863.923A4.644,4.644,0,0,0,66.387,14.351ZM81.179,19a3.416,3.416,0,0,1-.229-1,3.628,3.628,0,0,1-2.707,1.178,3.357,3.357,0,0,1-2.307-.8,2.573,2.573,0,0,1-.9-2.017,2.688,2.688,0,0,1,1.129-2.307,5.325,5.325,0,0,1,3.177-.822h1.582v-.747a1.826,1.826,0,0,0-.51-1.358,2.049,2.049,0,0,0-1.5-.505,2.371,2.371,0,0,0-1.459.439,1.3,1.3,0,0,0-.589,1.063H75.229a2.244,2.244,0,0,1,.505-1.375A3.449,3.449,0,0,1,77.1,9.7a4.613,4.613,0,0,1,1.9-.387,3.759,3.759,0,0,1,2.575.822A2.964,2.964,0,0,1,82.55,12.4v4.377a5.351,5.351,0,0,0,.334,2.083V19Zm-2.7-1.239a2.858,2.858,0,0,0,1.45-.4,2.392,2.392,0,0,0,.993-1.028V14.386H79.649q-2.988,0-2.988,1.749a1.48,1.48,0,0,0,.51,1.2A1.959,1.959,0,0,0,78.48,17.761ZM84.7,14.166a5.571,5.571,0,0,1,1.037-3.52,3.529,3.529,0,0,1,5.361-.189V5.5h1.626V19H91.233l-.079-1.02a3.311,3.311,0,0,1-2.716,1.2,3.248,3.248,0,0,1-2.694-1.354A5.634,5.634,0,0,1,84.7,14.289Zm1.626.185A4.218,4.218,0,0,0,87,16.882a2.159,2.159,0,0,0,1.846.914A2.372,2.372,0,0,0,91.1,16.407V12.039a2.39,2.39,0,0,0-2.241-1.345A2.17,2.17,0,0,0,87,11.617,4.644,4.644,0,0,0,86.329,14.351ZM11.75,44a3.416,3.416,0,0,1-.229-1,3.628,3.628,0,0,1-2.707,1.178,3.357,3.357,0,0,1-2.307-.8,2.573,2.573,0,0,1-.9-2.017,2.688,2.688,0,0,1,1.129-2.307,5.325,5.325,0,0,1,3.177-.822h1.582v-.747a1.826,1.826,0,0,0-.51-1.358,2.049,2.049,0,0,0-1.5-.505,2.371,2.371,0,0,0-1.459.439,1.3,1.3,0,0,0-.589,1.063H5.8A2.244,2.244,0,0,1,6.3,35.751,3.449,3.449,0,0,1,7.676,34.7a4.613,4.613,0,0,1,1.9-.387,3.759,3.759,0,0,1,2.575.822,2.964,2.964,0,0,1,.967,2.263v4.377a5.351,5.351,0,0,0,.334,2.083V44Zm-2.7-1.239a2.858,2.858,0,0,0,1.45-.4,2.392,2.392,0,0,0,.993-1.028V39.386H10.22q-2.988,0-2.988,1.749a1.48,1.48,0,0,0,.51,1.2A1.959,1.959,0,0,0,9.051,42.761Zm6.223-3.595a5.571,5.571,0,0,1,1.037-3.52,3.28,3.28,0,0,1,2.716-1.332,3.3,3.3,0,0,1,2.646,1.143V30.5H23.3V44H21.8l-.079-1.02a3.311,3.311,0,0,1-2.716,1.2,3.248,3.248,0,0,1-2.694-1.354,5.634,5.634,0,0,1-1.042-3.533Zm1.626.185a4.218,4.218,0,0,0,.668,2.531,2.159,2.159,0,0,0,1.846.914,2.372,2.372,0,0,0,2.259-1.389V37.039a2.39,2.39,0,0,0-2.241-1.345,2.17,2.17,0,0,0-1.863.923A4.644,4.644,0,0,0,16.9,39.351Zm10.45-4.86.044,1.055a3.512,3.512,0,0,1,2.821-1.23,2.719,2.719,0,0,1,2.716,1.529,3.6,3.6,0,0,1,1.235-1.107,3.647,3.647,0,0,1,1.8-.422q3.129,0,3.182,3.313V44H37.519V37.725a2.184,2.184,0,0,0-.466-1.525,2.051,2.051,0,0,0-1.564-.505,2.156,2.156,0,0,0-1.5.541,2.193,2.193,0,0,0-.694,1.455V44H31.657V37.769a1.814,1.814,0,0,0-2.03-2.074,2.175,2.175,0,0,0-2.188,1.362V44H25.812V34.49ZM43.364,44H41.738V34.49h1.626ZM41.606,31.968a.971.971,0,0,1,.242-.668.907.907,0,0,1,.716-.272.922.922,0,0,1,.721.272.96.96,0,0,1,.246.668.929.929,0,0,1-.246.659.938.938,0,0,1-.721.264.924.924,0,0,1-.716-.264A.938.938,0,0,1,41.606,31.968Zm5.9,2.522.053,1.2A3.465,3.465,0,0,1,50.4,34.314q3.015,0,3.041,3.4V44H51.819V37.707a2.189,2.189,0,0,0-.47-1.521,1.884,1.884,0,0,0-1.437-.492,2.347,2.347,0,0,0-1.389.422,2.865,2.865,0,0,0-.932,1.107V44H45.965V34.49ZM57.664,44H56.038V34.49h1.626ZM55.906,31.968a.971.971,0,0,1,.242-.668.907.907,0,0,1,.716-.272.922.922,0,0,1,.721.272.96.96,0,0,1,.246.668.929.929,0,0,1-.246.659.938.938,0,0,1-.721.264.924.924,0,0,1-.716-.264A.938.938,0,0,1,55.906,31.968Zm9.9,9.51a1.2,1.2,0,0,0-.5-1.024,4.78,4.78,0,0,0-1.731-.628,8.186,8.186,0,0,1-1.96-.633,2.788,2.788,0,0,1-1.072-.879,2.1,2.1,0,0,1-.347-1.213,2.467,2.467,0,0,1,.989-1.978,3.861,3.861,0,0,1,2.527-.809,3.974,3.974,0,0,1,2.624.835,2.652,2.652,0,0,1,1.006,2.136H65.706a1.468,1.468,0,0,0-.567-1.151,2.124,2.124,0,0,0-1.428-.483,2.223,2.223,0,0,0-1.389.387,1.217,1.217,0,0,0-.5,1.011.986.986,0,0,0,.466.888,5.731,5.731,0,0,0,1.683.571,8.77,8.77,0,0,1,1.973.65,2.878,2.878,0,0,1,1.121.91,2.237,2.237,0,0,1,.365,1.3,2.434,2.434,0,0,1-1.02,2.043,4.277,4.277,0,0,1-2.646.769,4.789,4.789,0,0,1-2.021-.4,3.288,3.288,0,0,1-1.375-1.129,2.722,2.722,0,0,1-.5-1.569H61.5a1.683,1.683,0,0,0,.655,1.3,2.54,2.54,0,0,0,1.613.479,2.622,2.622,0,0,0,1.481-.374A1.148,1.148,0,0,0,65.8,41.478Zm5.95-9.29v2.3h1.775v1.257H71.752v5.9a1.32,1.32,0,0,0,.237.858,1,1,0,0,0,.809.286,3.937,3.937,0,0,0,.773-.105V44a4.742,4.742,0,0,1-1.248.175,2.025,2.025,0,0,1-1.644-.659,2.832,2.832,0,0,1-.554-1.872v-5.9H68.4V34.49h1.731v-2.3Zm8.271,3.762a4.873,4.873,0,0,0-.8-.062,2.143,2.143,0,0,0-2.171,1.362V44H75.426V34.49h1.582l.026,1.1A2.532,2.532,0,0,1,79.3,34.314a1.661,1.661,0,0,1,.721.123ZM87.037,44a3.416,3.416,0,0,1-.229-1A3.628,3.628,0,0,1,84.1,44.176a3.357,3.357,0,0,1-2.307-.8,2.573,2.573,0,0,1-.9-2.017,2.688,2.688,0,0,1,1.129-2.307,5.325,5.325,0,0,1,3.177-.822h1.582v-.747a1.826,1.826,0,0,0-.51-1.358,2.049,2.049,0,0,0-1.5-.505,2.371,2.371,0,0,0-1.459.439,1.3,1.3,0,0,0-.589,1.063H81.086a2.244,2.244,0,0,1,.505-1.375,3.449,3.449,0,0,1,1.371-1.05,4.613,4.613,0,0,1,1.9-.387,3.759,3.759,0,0,1,2.575.822,2.964,2.964,0,0,1,.967,2.263v4.377a5.351,5.351,0,0,0,.334,2.083V44Zm-2.7-1.239a2.858,2.858,0,0,0,1.45-.4,2.392,2.392,0,0,0,.993-1.028V39.386H85.507q-2.988,0-2.988,1.749a1.48,1.48,0,0,0,.51,1.2A1.959,1.959,0,0,0,84.338,42.761Zm8.824-10.573v2.3h1.775v1.257H93.163v5.9a1.32,1.32,0,0,0,.237.858,1,1,0,0,0,.809.286,3.937,3.937,0,0,0,.773-.105V44a4.742,4.742,0,0,1-1.248.175,2.025,2.025,0,0,1-1.644-.659,2.832,2.832,0,0,1-.554-1.872v-5.9H89.805V34.49h1.731v-2.3ZM98.6,44H96.977V34.49H98.6ZM96.845,31.968a.971.971,0,0,1,.242-.668.907.907,0,0,1,.716-.272.922.922,0,0,1,.721.272.96.96,0,0,1,.246.668.929.929,0,0,1-.246.659.938.938,0,0,1-.721.264.924.924,0,0,1-.716-.264A.938.938,0,0,1,96.845,31.968Zm7.5,9.826,2.355-7.3h1.661L104.949,44h-1.239l-3.445-9.51h1.661ZM115.663,44a3.416,3.416,0,0,1-.229-1,3.628,3.628,0,0,1-2.707,1.178,3.357,3.357,0,0,1-2.307-.8,2.573,2.573,0,0,1-.9-2.017,2.688,2.688,0,0,1,1.129-2.307,5.325,5.325,0,0,1,3.177-.822h1.582v-.747a1.826,1.826,0,0,0-.51-1.358,2.049,2.049,0,0,0-1.5-.505,2.371,2.371,0,0,0-1.459.439,1.3,1.3,0,0,0-.589,1.063h-1.635a2.244,2.244,0,0,1,.505-1.375,3.449,3.449,0,0,1,1.371-1.05,4.613,4.613,0,0,1,1.9-.387,3.759,3.759,0,0,1,2.575.822,2.964,2.964,0,0,1,.967,2.263v4.377a5.351,5.351,0,0,0,.334,2.083V44Zm-2.7-1.239a2.858,2.858,0,0,0,1.45-.4,2.392,2.392,0,0,0,.993-1.028V39.386h-1.274q-2.988,0-2.988,1.749a1.48,1.48,0,0,0,.51,1.2A1.959,1.959,0,0,0,112.964,42.761Z" transform="translate(-8671.285 -6841.163)" fill="#12263f"/>
    <path id="Trazado_226769" data-name="Trazado 226769" d="M27.111,13.3a7.935,7.935,0,0,1-3.16-1.534,2.93,2.93,0,0,1-.989-2.246,3.1,3.1,0,0,1,1.208-2.5,4.8,4.8,0,0,1,3.142-.989,5.243,5.243,0,0,1,2.351.51,3.866,3.866,0,0,1,1.6,1.406,3.6,3.6,0,0,1,.567,1.96h-1.7a2.34,2.34,0,0,0-.738-1.83,3,3,0,0,0-2.083-.666,3.074,3.074,0,0,0-1.947.55,1.836,1.836,0,0,0-.7,1.528,1.652,1.652,0,0,0,.664,1.325,6.509,6.509,0,0,0,2.259.991,10.481,10.481,0,0,1,2.5.99,3.788,3.788,0,0,1,1.336,1.261,3.219,3.219,0,0,1,.435,1.7,2.99,2.99,0,0,1-1.213,2.492,5.171,5.171,0,0,1-3.243.936,6.015,6.015,0,0,1-2.461-.505,4.142,4.142,0,0,1-1.762-1.384,3.378,3.378,0,0,1-.62-2h1.7a2.2,2.2,0,0,0,.857,1.833,3.608,3.608,0,0,0,2.29.672,3.317,3.317,0,0,0,2.048-.545,1.77,1.77,0,0,0,.712-1.485,1.738,1.738,0,0,0-.659-1.455A7.6,7.6,0,0,0,27.111,13.3Zm10.6,5.88a4.155,4.155,0,0,1-3.146-1.27,4.714,4.714,0,0,1-1.213-3.4v-.3a5.707,5.707,0,0,1,.541-2.527A4.217,4.217,0,0,1,35.4,9.943a3.8,3.8,0,0,1,2.1-.628,3.562,3.562,0,0,1,2.883,1.222,5.289,5.289,0,0,1,1.028,3.5v.677H34.978a3.38,3.38,0,0,0,.822,2.272,2.583,2.583,0,0,0,2,.866,2.832,2.832,0,0,0,1.459-.352,3.666,3.666,0,0,0,1.046-.932l.993.773A3.993,3.993,0,0,1,37.711,19.176Zm-.2-8.525a2.169,2.169,0,0,0-1.652.716,3.482,3.482,0,0,0-.826,2.008h4.764v-.123a3.1,3.1,0,0,0-.668-1.92A2.042,2.042,0,0,0,37.509,10.65Zm5.405,3.516a5.589,5.589,0,0,1,1.028-3.538,3.545,3.545,0,0,1,5.44-.083l.079-1.055h1.485v9.281a3.869,3.869,0,0,1-1.094,2.909,4.038,4.038,0,0,1-2.94,1.063A4.891,4.891,0,0,1,44.9,22.3a3.465,3.465,0,0,1-1.5-1.2l.844-.976A3.18,3.18,0,0,0,46.8,21.417a2.491,2.491,0,0,0,1.85-.668,2.553,2.553,0,0,0,.664-1.881v-.817a3.342,3.342,0,0,1-2.663,1.125,3.248,3.248,0,0,1-2.7-1.345A5.876,5.876,0,0,1,42.914,14.166Zm1.635.185a4.264,4.264,0,0,0,.659,2.527,2.142,2.142,0,0,0,1.846.918,2.382,2.382,0,0,0,2.259-1.4V12.057a2.41,2.41,0,0,0-2.241-1.362,2.161,2.161,0,0,0-1.854.923A4.644,4.644,0,0,0,44.549,14.351ZM59.271,18.06a3.454,3.454,0,0,1-2.786,1.116,2.956,2.956,0,0,1-2.316-.883,3.823,3.823,0,0,1-.8-2.615V9.49H54.99v6.144q0,2.162,1.758,2.162a2.434,2.434,0,0,0,2.479-1.389V9.49h1.626V19H59.306Zm8.648-7.11a4.873,4.873,0,0,0-.8-.062,2.143,2.143,0,0,0-2.171,1.362V19H63.322V9.49H64.9l.026,1.1A2.532,2.532,0,0,1,67.2,9.314a1.661,1.661,0,0,1,.721.123ZM71.18,19H69.554V9.49H71.18ZM69.422,6.968a.971.971,0,0,1,.242-.668.907.907,0,0,1,.716-.272A.922.922,0,0,1,71.1,6.3a.96.96,0,0,1,.246.668.929.929,0,0,1-.246.659.938.938,0,0,1-.721.264.924.924,0,0,1-.716-.264A.938.938,0,0,1,69.422,6.968Zm3.964,7.2a5.571,5.571,0,0,1,1.037-3.52,3.529,3.529,0,0,1,5.361-.189V5.5H81.41V19H79.916l-.079-1.02a3.311,3.311,0,0,1-2.716,1.2,3.248,3.248,0,0,1-2.694-1.354,5.634,5.634,0,0,1-1.042-3.533Zm1.626.185a4.218,4.218,0,0,0,.668,2.531,2.159,2.159,0,0,0,1.846.914,2.372,2.372,0,0,0,2.259-1.389V12.039a2.39,2.39,0,0,0-2.241-1.345,2.17,2.17,0,0,0-1.863.923A4.644,4.644,0,0,0,75.012,14.351ZM89.8,19a3.416,3.416,0,0,1-.229-1,3.628,3.628,0,0,1-2.707,1.178,3.357,3.357,0,0,1-2.307-.8,2.573,2.573,0,0,1-.9-2.017,2.688,2.688,0,0,1,1.129-2.307,5.325,5.325,0,0,1,3.177-.822h1.582v-.747a1.826,1.826,0,0,0-.51-1.358,2.049,2.049,0,0,0-1.5-.505,2.371,2.371,0,0,0-1.459.439,1.3,1.3,0,0,0-.589,1.063H83.854a2.244,2.244,0,0,1,.505-1.375A3.449,3.449,0,0,1,85.73,9.7a4.613,4.613,0,0,1,1.9-.387,3.759,3.759,0,0,1,2.575.822,2.964,2.964,0,0,1,.967,2.263v4.377a5.351,5.351,0,0,0,.334,2.083V19Zm-2.7-1.239a2.858,2.858,0,0,0,1.45-.4,2.392,2.392,0,0,0,.993-1.028V14.386H88.274q-2.988,0-2.988,1.749a1.48,1.48,0,0,0,.51,1.2A1.959,1.959,0,0,0,87.105,17.761Zm6.223-3.595a5.571,5.571,0,0,1,1.037-3.52,3.529,3.529,0,0,1,5.361-.189V5.5h1.626V19H99.858l-.079-1.02a3.311,3.311,0,0,1-2.716,1.2,3.248,3.248,0,0,1-2.694-1.354,5.634,5.634,0,0,1-1.042-3.533Zm1.626.185a4.218,4.218,0,0,0,.668,2.531,2.159,2.159,0,0,0,1.846.914,2.372,2.372,0,0,0,2.259-1.389V12.039a2.39,2.39,0,0,0-2.241-1.345,2.17,2.17,0,0,0-1.863.923A4.644,4.644,0,0,0,94.954,14.351Z" transform="translate(-8739.285 -6705.163)" fill="#12263f"/>
    <path id="Trazado_226770" data-name="Trazado 226770" d="M36.979,15.651H31.618L30.414,19h-1.74L33.561,6.2h1.477l4.9,12.8H38.2Zm-4.852-1.38h4.351L34.3,8.286ZM42.93,9.49l.044,1.055a3.512,3.512,0,0,1,2.821-1.23,2.719,2.719,0,0,1,2.716,1.529,3.6,3.6,0,0,1,1.235-1.107,3.647,3.647,0,0,1,1.8-.422q3.129,0,3.182,3.313V19H53.1V12.725a2.184,2.184,0,0,0-.466-1.525,2.051,2.051,0,0,0-1.564-.505,2.156,2.156,0,0,0-1.5.541,2.193,2.193,0,0,0-.694,1.455V19H47.236V12.769a1.814,1.814,0,0,0-2.03-2.074,2.175,2.175,0,0,0-2.188,1.362V19H41.392V9.49Zm22.28,4.86a5.694,5.694,0,0,1-.993,3.5,3.183,3.183,0,0,1-2.689,1.327,3.488,3.488,0,0,1-2.725-1.1v4.579H57.177V9.49h1.485l.079,1.055a3.35,3.35,0,0,1,2.76-1.23,3.243,3.243,0,0,1,2.711,1.292,5.756,5.756,0,0,1,1,3.595Zm-1.626-.185a4.2,4.2,0,0,0-.686-2.54,2.208,2.208,0,0,0-1.881-.932A2.39,2.39,0,0,0,58.8,12v4.544a2.4,2.4,0,0,0,2.232,1.3,2.2,2.2,0,0,0,1.859-.927A4.587,4.587,0,0,0,63.584,14.166ZM69.042,19H67.416V5.5h1.626Zm4.368,0H71.784V9.49H73.41ZM71.652,6.968a.971.971,0,0,1,.242-.668.907.907,0,0,1,.716-.272.922.922,0,0,1,.721.272.96.96,0,0,1,.246.668.929.929,0,0,1-.246.659.938.938,0,0,1-.721.264.924.924,0,0,1-.716-.264A.938.938,0,0,1,71.652,6.968ZM81.883,19a3.416,3.416,0,0,1-.229-1,3.628,3.628,0,0,1-2.707,1.178,3.357,3.357,0,0,1-2.307-.8,2.573,2.573,0,0,1-.9-2.017,2.688,2.688,0,0,1,1.129-2.307,5.325,5.325,0,0,1,3.177-.822h1.582v-.747a1.826,1.826,0,0,0-.51-1.358,2.049,2.049,0,0,0-1.5-.505,2.371,2.371,0,0,0-1.459.439,1.3,1.3,0,0,0-.589,1.063H75.933a2.244,2.244,0,0,1,.505-1.375A3.449,3.449,0,0,1,77.809,9.7a4.613,4.613,0,0,1,1.9-.387,3.759,3.759,0,0,1,2.575.822,2.964,2.964,0,0,1,.967,2.263v4.377a5.351,5.351,0,0,0,.334,2.083V19Zm-2.7-1.239a2.858,2.858,0,0,0,1.45-.4,2.392,2.392,0,0,0,.993-1.028V14.386H80.354q-2.988,0-2.988,1.749a1.48,1.48,0,0,0,.51,1.2A1.959,1.959,0,0,0,79.185,17.761ZM22.952,42.849a2.342,2.342,0,0,0,1.521-.527A1.855,1.855,0,0,0,25.193,41h1.538a2.949,2.949,0,0,1-.562,1.556,3.7,3.7,0,0,1-1.384,1.178,3.994,3.994,0,0,1-1.833.439,3.918,3.918,0,0,1-3.089-1.3,5.163,5.163,0,0,1-1.147-3.546v-.272a5.725,5.725,0,0,1,.51-2.47,3.883,3.883,0,0,1,1.463-1.679,4.157,4.157,0,0,1,2.254-.6,3.814,3.814,0,0,1,2.659.958,3.424,3.424,0,0,1,1.129,2.487H25.193a2.241,2.241,0,0,0-.7-1.516,2.174,2.174,0,0,0-1.551-.593,2.276,2.276,0,0,0-1.92.892,4.19,4.19,0,0,0-.681,2.58v.308a4.106,4.106,0,0,0,.677,2.531A2.287,2.287,0,0,0,22.952,42.849Zm5.177-3.691a5.617,5.617,0,0,1,.549-2.514,4.1,4.1,0,0,1,1.529-1.723,4.163,4.163,0,0,1,2.237-.606,4.01,4.01,0,0,1,3.142,1.345,5.174,5.174,0,0,1,1.2,3.577v.114a5.666,5.666,0,0,1-.532,2.492,4.038,4.038,0,0,1-1.521,1.718,4.211,4.211,0,0,1-2.272.615,4,4,0,0,1-3.133-1.345,5.147,5.147,0,0,1-1.2-3.56Zm1.635.193a4.068,4.068,0,0,0,.734,2.54,2.487,2.487,0,0,0,3.933-.013,4.449,4.449,0,0,0,.729-2.72,4.061,4.061,0,0,0-.743-2.536,2.361,2.361,0,0,0-1.973-.971,2.335,2.335,0,0,0-1.942.958A4.416,4.416,0,0,0,29.764,39.351Zm17.112,0a5.654,5.654,0,0,1-1,3.5,3.2,3.2,0,0,1-2.689,1.323A3.315,3.315,0,0,1,40.4,42.9L40.319,44H38.825V30.5h1.626v5.036a3.3,3.3,0,0,1,2.716-1.222,3.221,3.221,0,0,1,2.72,1.31,5.824,5.824,0,0,1,.989,3.586Zm-1.626-.185a4.394,4.394,0,0,0-.642-2.566,2.124,2.124,0,0,0-1.846-.905,2.387,2.387,0,0,0-2.312,1.494V41.3A2.454,2.454,0,0,0,42.78,42.8a2.112,2.112,0,0,0,1.819-.905A4.672,4.672,0,0,0,45.25,39.166Zm7.62,5.01a4.155,4.155,0,0,1-3.146-1.27,4.714,4.714,0,0,1-1.213-3.4v-.3a5.707,5.707,0,0,1,.541-2.527,4.217,4.217,0,0,1,1.512-1.74,3.8,3.8,0,0,1,2.1-.628,3.562,3.562,0,0,1,2.883,1.222,5.289,5.289,0,0,1,1.028,3.5v.677H50.137a3.38,3.38,0,0,0,.822,2.272,2.583,2.583,0,0,0,2,.866,2.832,2.832,0,0,0,1.459-.352,3.666,3.666,0,0,0,1.046-.932l.993.773A3.993,3.993,0,0,1,52.87,44.176Zm-.2-8.525a2.169,2.169,0,0,0-1.652.716,3.482,3.482,0,0,0-.826,2.008h4.764v-.123a3.1,3.1,0,0,0-.668-1.92A2.042,2.042,0,0,0,52.668,35.65Zm10.389.3a4.873,4.873,0,0,0-.8-.062,2.143,2.143,0,0,0-2.171,1.362V44H58.46V34.49h1.582l.026,1.1a2.532,2.532,0,0,1,2.268-1.274,1.661,1.661,0,0,1,.721.123Zm4.14-3.762v2.3h1.775v1.257H67.2v5.9a1.32,1.32,0,0,0,.237.858,1,1,0,0,0,.809.286,3.937,3.937,0,0,0,.773-.105V44a4.742,4.742,0,0,1-1.248.175,2.025,2.025,0,0,1-1.644-.659,2.832,2.832,0,0,1-.554-1.872v-5.9H63.839V34.49H65.57v-2.3ZM76.741,43.06a3.454,3.454,0,0,1-2.786,1.116,2.956,2.956,0,0,1-2.316-.883,3.823,3.823,0,0,1-.8-2.615V34.49h1.626v6.144q0,2.162,1.758,2.162A2.434,2.434,0,0,0,76.7,41.407V34.49h1.626V44H76.776Zm8.648-7.11a4.873,4.873,0,0,0-.8-.062,2.143,2.143,0,0,0-2.171,1.362V44H80.793V34.49h1.582l.026,1.1a2.532,2.532,0,0,1,2.268-1.274,1.661,1.661,0,0,1,.721.123ZM92.4,44a3.416,3.416,0,0,1-.229-1,3.628,3.628,0,0,1-2.707,1.178,3.357,3.357,0,0,1-2.307-.8,2.573,2.573,0,0,1-.9-2.017,2.688,2.688,0,0,1,1.129-2.307,5.325,5.325,0,0,1,3.177-.822h1.582v-.747a1.826,1.826,0,0,0-.51-1.358,2.049,2.049,0,0,0-1.5-.505,2.371,2.371,0,0,0-1.459.439,1.3,1.3,0,0,0-.589,1.063H86.453a2.244,2.244,0,0,1,.505-1.375A3.449,3.449,0,0,1,88.33,34.7a4.613,4.613,0,0,1,1.9-.387,3.759,3.759,0,0,1,2.575.822,2.964,2.964,0,0,1,.967,2.263v4.377a5.351,5.351,0,0,0,.334,2.083V44Zm-2.7-1.239a2.858,2.858,0,0,0,1.45-.4,2.392,2.392,0,0,0,.993-1.028V39.386H90.874q-2.988,0-2.988,1.749a1.48,1.48,0,0,0,.51,1.2A1.959,1.959,0,0,0,89.705,42.761Z" transform="translate(-8661.285 -6599.163)" fill="#12263f"/>
    <path id="Trazado_226771" data-name="Trazado 226771" d="M19.823,13.349h-5.37V19H12.766V6.2h7.928v1.38h-6.24v4.386h5.37ZM24.227,19H22.6V5.5h1.626Zm6.548.176a4.155,4.155,0,0,1-3.146-1.27,4.714,4.714,0,0,1-1.213-3.4v-.3a5.707,5.707,0,0,1,.541-2.527,4.217,4.217,0,0,1,1.512-1.74,3.8,3.8,0,0,1,2.1-.628,3.562,3.562,0,0,1,2.883,1.222,5.289,5.289,0,0,1,1.028,3.5v.677H28.041a3.38,3.38,0,0,0,.822,2.272,2.583,2.583,0,0,0,2,.866,2.832,2.832,0,0,0,1.459-.352,3.666,3.666,0,0,0,1.046-.932l.993.773A3.993,3.993,0,0,1,30.774,19.176Zm-.2-8.525a2.169,2.169,0,0,0-1.652.716,3.482,3.482,0,0,0-.826,2.008h4.764v-.123a3.1,3.1,0,0,0-.668-1.92A2.042,2.042,0,0,0,30.572,10.65Zm8.982,2.312L41.664,9.49h1.9l-3.111,4.7L43.659,19H41.778l-2.2-3.56L37.384,19h-1.89L38.7,14.192l-3.111-4.7h1.881ZM47.052,19H45.426V9.49h1.626ZM45.294,6.968a.971.971,0,0,1,.242-.668.907.907,0,0,1,.716-.272.922.922,0,0,1,.721.272.96.96,0,0,1,.246.668.929.929,0,0,1-.246.659.938.938,0,0,1-.721.264.924.924,0,0,1-.716-.264A.938.938,0,0,1,45.294,6.968ZM57.7,14.351a5.654,5.654,0,0,1-1,3.5,3.2,3.2,0,0,1-2.689,1.323A3.315,3.315,0,0,1,51.227,17.9L51.147,19H49.653V5.5h1.626v5.036A3.3,3.3,0,0,1,54,9.314a3.221,3.221,0,0,1,2.72,1.31A5.824,5.824,0,0,1,57.7,14.21Zm-1.626-.185a4.394,4.394,0,0,0-.642-2.566,2.124,2.124,0,0,0-1.846-.905,2.387,2.387,0,0,0-2.312,1.494V16.3A2.454,2.454,0,0,0,53.608,17.8a2.112,2.112,0,0,0,1.819-.905A4.672,4.672,0,0,0,56.078,14.166ZM61.519,19H59.893V9.49h1.626ZM59.761,6.968A.971.971,0,0,1,60,6.3a.907.907,0,0,1,.716-.272.922.922,0,0,1,.721.272.96.96,0,0,1,.246.668.929.929,0,0,1-.246.659.938.938,0,0,1-.721.264A.924.924,0,0,1,60,7.627.938.938,0,0,1,59.761,6.968ZM65.887,19H64.261V5.5h1.626Zm4.368,0H68.629V9.49h1.626ZM68.5,6.968a.971.971,0,0,1,.242-.668.907.907,0,0,1,.716-.272.922.922,0,0,1,.721.272.96.96,0,0,1,.246.668.929.929,0,0,1-.246.659.938.938,0,0,1-.721.264.924.924,0,0,1-.716-.264A.938.938,0,0,1,68.5,6.968Zm3.964,7.2a5.571,5.571,0,0,1,1.037-3.52,3.529,3.529,0,0,1,5.361-.189V5.5h1.626V19H78.991l-.079-1.02a3.311,3.311,0,0,1-2.716,1.2A3.248,3.248,0,0,1,73.5,17.822a5.634,5.634,0,0,1-1.042-3.533Zm1.626.185a4.218,4.218,0,0,0,.668,2.531A2.159,2.159,0,0,0,76.6,17.8a2.372,2.372,0,0,0,2.259-1.389V12.039a2.39,2.39,0,0,0-2.241-1.345,2.17,2.17,0,0,0-1.863.923A4.644,4.644,0,0,0,74.087,14.351ZM88.879,19a3.416,3.416,0,0,1-.229-1,3.628,3.628,0,0,1-2.707,1.178,3.357,3.357,0,0,1-2.307-.8,2.573,2.573,0,0,1-.9-2.017,2.688,2.688,0,0,1,1.129-2.307,5.325,5.325,0,0,1,3.177-.822h1.582v-.747a1.826,1.826,0,0,0-.51-1.358,2.049,2.049,0,0,0-1.5-.505,2.371,2.371,0,0,0-1.459.439,1.3,1.3,0,0,0-.589,1.063H82.929a2.244,2.244,0,0,1,.505-1.375A3.449,3.449,0,0,1,84.805,9.7a4.613,4.613,0,0,1,1.9-.387,3.759,3.759,0,0,1,2.575.822A2.964,2.964,0,0,1,90.25,12.4v4.377a5.351,5.351,0,0,0,.334,2.083V19Zm-2.7-1.239a2.858,2.858,0,0,0,1.45-.4,2.392,2.392,0,0,0,.993-1.028V14.386H87.35q-2.988,0-2.988,1.749a1.48,1.48,0,0,0,.51,1.2A1.959,1.959,0,0,0,86.181,17.761ZM92.4,14.166a5.571,5.571,0,0,1,1.037-3.52,3.529,3.529,0,0,1,5.361-.189V5.5h1.626V19H98.934l-.079-1.02a3.311,3.311,0,0,1-2.716,1.2,3.248,3.248,0,0,1-2.694-1.354A5.634,5.634,0,0,1,92.4,14.289Zm1.626.185a4.218,4.218,0,0,0,.668,2.531,2.159,2.159,0,0,0,1.846.914A2.372,2.372,0,0,0,98.8,16.407V12.039a2.39,2.39,0,0,0-2.241-1.345,2.17,2.17,0,0,0-1.863.923A4.644,4.644,0,0,0,94.029,14.351Z" transform="translate(-8834.285 -6462.163)" fill="#12263f"/>
    <path id="Trazado_226772" data-name="Trazado 226772" d="M-58.374-4.814a5.193,5.193,0,0,1-.8,2.622A4.833,4.833,0,0,1-61.23-.43,7,7,0,0,1-64.253.2a5.584,5.584,0,0,1-4.414-1.826,7.54,7.54,0,0,1-1.611-5.156v-.7a8.607,8.607,0,0,1,.728-3.657,5.513,5.513,0,0,1,2.095-2.422,5.844,5.844,0,0,1,3.164-.854,6.129,6.129,0,0,1,4.16,1.362,5.383,5.383,0,0,1,1.787,3.755h-3.418a2.547,2.547,0,0,0-.654-1.865,2.691,2.691,0,0,0-1.875-.566,2.048,2.048,0,0,0-1.875.957,6.151,6.151,0,0,0-.625,3.057v1.006a6.806,6.806,0,0,0,.571,3.252,2.091,2.091,0,0,0,1.968.977,2.632,2.632,0,0,0,1.807-.557,2.363,2.363,0,0,0,.664-1.768ZM-50.952,0a3.716,3.716,0,0,1-.312-.947A3.06,3.06,0,0,1-53.8.2a3.749,3.749,0,0,1-2.539-.9,2.875,2.875,0,0,1-1.045-2.271,2.955,2.955,0,0,1,1.27-2.6,6.468,6.468,0,0,1,3.691-.879h1.016v-.559q0-1.462-1.26-1.462a1.03,1.03,0,0,0-1.172,1.158h-3.291a2.95,2.95,0,0,1,1.3-2.487,5.479,5.479,0,0,1,3.325-.956,4.8,4.8,0,0,1,3.193.986,3.429,3.429,0,0,1,1.2,2.705v4.678a4.79,4.79,0,0,0,.449,2.227V0Zm-2.061-2.148a1.836,1.836,0,0,0,1.021-.264,1.653,1.653,0,0,0,.581-.6V-4.7h-.957q-1.719,0-1.719,1.543a.942.942,0,0,0,.3.728A1.1,1.1,0,0,0-53.013-2.148ZM-39.9-7.588l-1.084-.078a1.947,1.947,0,0,0-1.992.977V0h-3.291V-10.566h3.086l.107,1.357a2.548,2.548,0,0,1,2.314-1.553,3.209,3.209,0,0,1,.918.117ZM-33.052,0a3.716,3.716,0,0,1-.312-.947A3.06,3.06,0,0,1-35.9.2a3.749,3.749,0,0,1-2.539-.9,2.875,2.875,0,0,1-1.045-2.271,2.955,2.955,0,0,1,1.27-2.6,6.468,6.468,0,0,1,3.691-.879h1.016v-.559q0-1.462-1.26-1.462a1.03,1.03,0,0,0-1.172,1.158h-3.291a2.95,2.95,0,0,1,1.3-2.487,5.479,5.479,0,0,1,3.325-.956,4.8,4.8,0,0,1,3.193.986,3.429,3.429,0,0,1,1.2,2.705v4.678a4.79,4.79,0,0,0,.449,2.227V0Zm-2.061-2.148a1.836,1.836,0,0,0,1.021-.264,1.653,1.653,0,0,0,.581-.6V-4.7h-.957q-1.719,0-1.719,1.543a.942.942,0,0,0,.3.728A1.1,1.1,0,0,0-35.112-2.148Zm11.191-.2a1.464,1.464,0,0,0,1.074-.376,1.379,1.379,0,0,0,.371-1.05h3.086A3.653,3.653,0,0,1-20.635-.918,4.631,4.631,0,0,1-23.843.2,4.689,4.689,0,0,1-27.476-1.25a5.7,5.7,0,0,1-1.328-4v-.137a6.436,6.436,0,0,1,.591-2.827,4.3,4.3,0,0,1,1.7-1.885,5.081,5.081,0,0,1,2.637-.659A4.573,4.573,0,0,1-20.6-9.619a4.053,4.053,0,0,1,1.211,3.1h-3.086a1.807,1.807,0,0,0-.4-1.26,1.382,1.382,0,0,0-1.074-.439q-1.279,0-1.494,1.631a11.508,11.508,0,0,0-.068,1.426,4.52,4.52,0,0,0,.381,2.207A1.319,1.319,0,0,0-23.921-2.344Zm9.756-10.85v2.627h1.738v2.285h-1.738v4.834a1.234,1.234,0,0,0,.215.83,1.152,1.152,0,0,0,.85.234,4.828,4.828,0,0,0,.82-.059V-.088A6.074,6.074,0,0,1-14.136.2a3.448,3.448,0,0,1-2.51-.8,3.282,3.282,0,0,1-.811-2.432V-8.281H-18.8v-2.285h1.348v-2.627ZM-6.021.2a5.432,5.432,0,0,1-3.936-1.45,5.008,5.008,0,0,1-1.5-3.774V-5.3a6.489,6.489,0,0,1,.6-2.861,4.395,4.395,0,0,1,1.753-1.919,5.292,5.292,0,0,1,2.734-.679A4.574,4.574,0,0,1-2.856-9.38,5.43,5.43,0,0,1-1.567-5.527v1.279H-8.11a2.372,2.372,0,0,0,.771,1.4A2.3,2.3,0,0,0-5.8-2.344,2.958,2.958,0,0,0-3.354-3.437l1.5,1.777A4.2,4.2,0,0,1-3.594-.308,5.891,5.891,0,0,1-6.021.2Zm-.371-8.418q-1.445,0-1.719,1.914h3.32v-.254a1.63,1.63,0,0,0-.4-1.226A1.593,1.593,0,0,0-6.392-8.223Zm12.539.635L5.063-7.666a1.947,1.947,0,0,0-1.992.977V0H-.22V-10.566H2.866l.107,1.357a2.548,2.548,0,0,1,2.314-1.553,3.209,3.209,0,0,1,.918.117ZM10.923,0H7.612V-10.566h3.311ZM9.692-14.8h3.477l-2.715,3.066-2.686,0ZM18.569-2.969a.76.76,0,0,0-.439-.674,6.685,6.685,0,0,0-1.67-.527,7.615,7.615,0,0,1-2.031-.718,3.4,3.4,0,0,1-1.221-1.079,2.577,2.577,0,0,1-.42-1.455,2.92,2.92,0,0,1,1.2-2.4,4.948,4.948,0,0,1,3.145-.942,5.482,5.482,0,0,1,3.359.947,2.962,2.962,0,0,1,1.27,2.49h-3.3q0-1.27-1.338-1.27a1.326,1.326,0,0,0-.869.288.892.892,0,0,0-.352.718.819.819,0,0,0,.43.713,4.06,4.06,0,0,0,1.372.449,11.857,11.857,0,0,1,1.655.42,3.007,3.007,0,0,1,2.383,2.939A2.767,2.767,0,0,1,20.459-.713,5.631,5.631,0,0,1,17.134.2a5.747,5.747,0,0,1-2.422-.488,4.05,4.05,0,0,1-1.66-1.328,3.007,3.007,0,0,1-.6-1.768h3.076a1.272,1.272,0,0,0,.488,1.069,2.009,2.009,0,0,0,1.2.337,1.58,1.58,0,0,0,1.011-.273A.875.875,0,0,0,18.569-2.969Zm8.545-10.225v2.627h1.738v2.285H27.114v4.834a1.234,1.234,0,0,0,.215.83,1.152,1.152,0,0,0,.85.234A4.828,4.828,0,0,0,29-2.441V-.088A6.074,6.074,0,0,1,27.144.2a3.448,3.448,0,0,1-2.51-.8,3.282,3.282,0,0,1-.811-2.432V-8.281H22.476v-2.285h1.348v-2.627ZM33.618,0h-3.3V-10.566h3.3Zm-3.5-13.291a1.469,1.469,0,0,1,.508-1.152,1.916,1.916,0,0,1,1.318-.449,1.916,1.916,0,0,1,1.318.449,1.469,1.469,0,0,1,.508,1.152,1.469,1.469,0,0,1-.508,1.152,1.916,1.916,0,0,1-1.318.449,1.916,1.916,0,0,1-1.318-.449A1.469,1.469,0,0,1,30.122-13.291Zm9.99,10.947a1.464,1.464,0,0,0,1.074-.376,1.379,1.379,0,0,0,.371-1.05h3.086A3.653,3.653,0,0,1,43.4-.918,4.631,4.631,0,0,1,40.19.2,4.689,4.689,0,0,1,36.558-1.25a5.7,5.7,0,0,1-1.328-4v-.137a6.436,6.436,0,0,1,.591-2.827,4.3,4.3,0,0,1,1.7-1.885,5.081,5.081,0,0,1,2.637-.659,4.573,4.573,0,0,1,3.271,1.143,4.053,4.053,0,0,1,1.211,3.1H41.558a1.807,1.807,0,0,0-.4-1.26,1.382,1.382,0,0,0-1.074-.439q-1.279,0-1.494,1.631a11.507,11.507,0,0,0-.068,1.426A4.52,4.52,0,0,0,38.9-2.959,1.319,1.319,0,0,0,40.112-2.344ZM51.987,0a3.716,3.716,0,0,1-.312-.947A3.06,3.06,0,0,1,49.136.2a3.749,3.749,0,0,1-2.539-.9,2.875,2.875,0,0,1-1.045-2.271,2.955,2.955,0,0,1,1.27-2.6,6.468,6.468,0,0,1,3.691-.879h1.016v-.559q0-1.462-1.26-1.462A1.03,1.03,0,0,0,49.1-7.319H45.806a2.95,2.95,0,0,1,1.3-2.487,5.479,5.479,0,0,1,3.325-.956,4.8,4.8,0,0,1,3.193.986,3.429,3.429,0,0,1,1.2,2.705v4.678a4.79,4.79,0,0,0,.449,2.227V0ZM49.927-2.148a1.836,1.836,0,0,0,1.021-.264,1.653,1.653,0,0,0,.581-.6V-4.7h-.957q-1.719,0-1.719,1.543a.942.942,0,0,0,.3.728A1.1,1.1,0,0,0,49.927-2.148Zm12.256-.82a.76.76,0,0,0-.439-.674,6.685,6.685,0,0,0-1.67-.527,7.615,7.615,0,0,1-2.031-.718,3.4,3.4,0,0,1-1.221-1.079,2.577,2.577,0,0,1-.42-1.455,2.92,2.92,0,0,1,1.2-2.4,4.948,4.948,0,0,1,3.145-.942,5.482,5.482,0,0,1,3.359.947,2.962,2.962,0,0,1,1.27,2.49h-3.3q0-1.27-1.338-1.27a1.326,1.326,0,0,0-.869.288.892.892,0,0,0-.352.718.819.819,0,0,0,.43.713,4.06,4.06,0,0,0,1.372.449,11.857,11.857,0,0,1,1.655.42,3.007,3.007,0,0,1,2.383,2.939A2.767,2.767,0,0,1,64.072-.713,5.632,5.632,0,0,1,60.747.2a5.747,5.747,0,0,1-2.422-.488,4.05,4.05,0,0,1-1.66-1.328,3.007,3.007,0,0,1-.6-1.768h3.076a1.272,1.272,0,0,0,.488,1.069,2.009,2.009,0,0,0,1.2.337,1.58,1.58,0,0,0,1.011-.273A.875.875,0,0,0,62.183-2.969ZM-15.8,21.639a6.455,6.455,0,0,1,1.084-3.955,3.568,3.568,0,0,1,3.027-1.445,3.035,3.035,0,0,1,2.383,1.113V12h3.3V27H-8.965l-.166-1.133A3.116,3.116,0,0,1-11.709,27.2,3.562,3.562,0,0,1-14.7,25.75,6.659,6.659,0,0,1-15.8,21.639Zm3.291.205q0,2.813,1.641,2.813a1.62,1.62,0,0,0,1.563-.918V19.715a1.576,1.576,0,0,0-1.543-.937q-1.523,0-1.65,2.461ZM.977,27.2a5.432,5.432,0,0,1-3.936-1.45,5.008,5.008,0,0,1-1.5-3.774V21.7a6.489,6.489,0,0,1,.6-2.861,4.395,4.395,0,0,1,1.753-1.919,5.292,5.292,0,0,1,2.734-.679A4.574,4.574,0,0,1,4.141,17.62,5.43,5.43,0,0,1,5.43,21.473v1.279H-1.113a2.372,2.372,0,0,0,.771,1.4,2.3,2.3,0,0,0,1.543.508,2.958,2.958,0,0,0,2.441-1.094l1.5,1.777A4.2,4.2,0,0,1,3.4,26.692,5.891,5.891,0,0,1,.977,27.2ZM.605,18.777q-1.445,0-1.719,1.914h3.32v-.254a1.63,1.63,0,0,0-.4-1.226A1.593,1.593,0,0,0,.605,18.777ZM10.225,27h-3.3V12h3.3ZM-45.034,40.807v2.627H-43.3v2.285h-1.738v4.834a1.234,1.234,0,0,0,.215.83,1.152,1.152,0,0,0,.85.234,4.828,4.828,0,0,0,.82-.059v2.354A6.074,6.074,0,0,1-45,54.2a3.448,3.448,0,0,1-2.51-.8,3.282,3.282,0,0,1-.811-2.432V45.719h-1.348V43.434h1.348V40.807Zm9.424,5.605-1.084-.078a1.947,1.947,0,0,0-1.992.977V54h-3.291V43.434h3.086l.107,1.357a2.548,2.548,0,0,1,2.314-1.553,3.209,3.209,0,0,1,.918.117ZM-28.765,54a3.716,3.716,0,0,1-.312-.947A3.06,3.06,0,0,1-31.616,54.2a3.749,3.749,0,0,1-2.539-.9A2.875,2.875,0,0,1-35.2,51.021a2.955,2.955,0,0,1,1.27-2.6,6.468,6.468,0,0,1,3.691-.879h1.016v-.559q0-1.462-1.26-1.462a1.03,1.03,0,0,0-1.172,1.158h-3.291a2.95,2.95,0,0,1,1.3-2.487,5.479,5.479,0,0,1,3.325-.956,4.8,4.8,0,0,1,3.193.986,3.429,3.429,0,0,1,1.2,2.705v4.678a4.79,4.79,0,0,0,.449,2.227V54Zm-2.061-2.148a1.836,1.836,0,0,0,1.021-.264,1.653,1.653,0,0,0,.581-.6V49.3h-.957q-1.719,0-1.719,1.543a.942.942,0,0,0,.3.728A1.1,1.1,0,0,0-30.825,51.852Zm9.746-8.418.107,1.24a3.583,3.583,0,0,1,3.018-1.436,3.015,3.015,0,0,1,2.466.986,4.7,4.7,0,0,1,.845,2.969V54h-3.3V47.33a1.783,1.783,0,0,0-.322-1.177,1.491,1.491,0,0,0-1.172-.376,1.569,1.569,0,0,0-1.436.762V54h-3.291V43.434Zm13.789,7.6a.76.76,0,0,0-.439-.674A6.685,6.685,0,0,0-9.4,49.83a7.615,7.615,0,0,1-2.031-.718,3.4,3.4,0,0,1-1.221-1.079,2.577,2.577,0,0,1-.42-1.455,2.92,2.92,0,0,1,1.2-2.4,4.948,4.948,0,0,1,3.145-.942,5.482,5.482,0,0,1,3.359.947,2.962,2.962,0,0,1,1.27,2.49H-7.4q0-1.27-1.338-1.27a1.326,1.326,0,0,0-.869.288.892.892,0,0,0-.352.718.819.819,0,0,0,.43.713,4.06,4.06,0,0,0,1.372.449,11.857,11.857,0,0,1,1.655.42,3.007,3.007,0,0,1,2.383,2.939A2.767,2.767,0,0,1-5.4,53.287a5.631,5.631,0,0,1-3.325.908,5.747,5.747,0,0,1-2.422-.488,4.05,4.05,0,0,1-1.66-1.328,3.007,3.007,0,0,1-.6-1.768h3.076a1.272,1.272,0,0,0,.488,1.069,2.009,2.009,0,0,0,1.2.337,1.58,1.58,0,0,0,1.011-.273A.875.875,0,0,0-7.29,51.031ZM7.231,48.795a6.372,6.372,0,0,1-1.108,3.931A3.554,3.554,0,0,1,3.13,54.2,3.046,3.046,0,0,1,.737,53.131v4.932H-2.554V43.434H.522l.1.977a3.046,3.046,0,0,1,2.49-1.172,3.582,3.582,0,0,1,3.037,1.44,6.45,6.45,0,0,1,1.084,3.96ZM3.94,48.59q0-2.812-1.641-2.812a1.549,1.549,0,0,0-1.562.84v4.16a1.6,1.6,0,0,0,1.582.879q1.572,0,1.621-2.715Zm4.326.029A6.236,6.236,0,0,1,8.882,45.8a4.4,4.4,0,0,1,1.768-1.9,5.323,5.323,0,0,1,2.705-.664,4.858,4.858,0,0,1,3.74,1.47,5.64,5.64,0,0,1,1.367,4v.117a5.472,5.472,0,0,1-1.372,3.921,4.871,4.871,0,0,1-3.716,1.45,4.927,4.927,0,0,1-3.623-1.353,5.29,5.29,0,0,1-1.475-3.667Zm3.291.205a3.932,3.932,0,0,0,.459,2.148,1.529,1.529,0,0,0,1.357.684q1.758,0,1.8-2.705v-.332q0-2.842-1.816-2.842-1.65,0-1.787,2.451ZM26.3,46.412l-1.084-.078a1.947,1.947,0,0,0-1.992.977V54H19.937V43.434h3.086l.107,1.357a2.548,2.548,0,0,1,2.314-1.553,3.209,3.209,0,0,1,.918.117Zm5.508-5.605v2.627H33.55v2.285H31.812v4.834a1.234,1.234,0,0,0,.215.83,1.152,1.152,0,0,0,.85.234,4.828,4.828,0,0,0,.82-.059v2.354a6.074,6.074,0,0,1-1.855.283,3.448,3.448,0,0,1-2.51-.8,3.282,3.282,0,0,1-.811-2.432V45.719H27.173V43.434h1.348V40.807ZM39.956,54.2a5.432,5.432,0,0,1-3.936-1.45,5.008,5.008,0,0,1-1.5-3.774V48.7a6.489,6.489,0,0,1,.6-2.861,4.395,4.395,0,0,1,1.753-1.919,5.292,5.292,0,0,1,2.734-.679A4.574,4.574,0,0,1,43.12,44.62a5.43,5.43,0,0,1,1.289,3.853v1.279H37.866a2.372,2.372,0,0,0,.771,1.4,2.3,2.3,0,0,0,1.543.508,2.958,2.958,0,0,0,2.441-1.094l1.5,1.777a4.2,4.2,0,0,1-1.743,1.353A5.891,5.891,0,0,1,39.956,54.2Zm-.371-8.418q-1.445,0-1.719,1.914h3.32v-.254a1.63,1.63,0,0,0-.4-1.226A1.593,1.593,0,0,0,39.585,45.777ZM-18.726,81a3.716,3.716,0,0,1-.312-.947A3.06,3.06,0,0,1-21.577,81.2a3.749,3.749,0,0,1-2.539-.9,2.875,2.875,0,0,1-1.045-2.271,2.955,2.955,0,0,1,1.27-2.6,6.468,6.468,0,0,1,3.691-.879h1.016v-.559q0-1.462-1.26-1.462a1.03,1.03,0,0,0-1.172,1.158h-3.291a2.95,2.95,0,0,1,1.3-2.487,5.479,5.479,0,0,1,3.325-.956,4.8,4.8,0,0,1,3.193.986,3.429,3.429,0,0,1,1.2,2.705v4.678a4.79,4.79,0,0,0,.449,2.227V81Zm-2.061-2.148a1.836,1.836,0,0,0,1.021-.264,1.653,1.653,0,0,0,.581-.6V76.3h-.957q-1.719,0-1.719,1.543a.942.942,0,0,0,.3.728A1.1,1.1,0,0,0-20.786,78.852ZM-8.95,81.2a5.432,5.432,0,0,1-3.936-1.45,5.008,5.008,0,0,1-1.5-3.774V75.7a6.489,6.489,0,0,1,.6-2.861,4.395,4.395,0,0,1,1.753-1.919A5.292,5.292,0,0,1-9.3,70.238,4.574,4.574,0,0,1-5.786,71.62,5.43,5.43,0,0,1-4.5,75.473v1.279H-11.04a2.372,2.372,0,0,0,.771,1.4,2.3,2.3,0,0,0,1.543.508,2.958,2.958,0,0,0,2.441-1.094l1.5,1.777a4.2,4.2,0,0,1-1.743,1.353A5.891,5.891,0,0,1-8.95,81.2Zm-.371-8.418q-1.445,0-1.719,1.914h3.32v-.254a1.63,1.63,0,0,0-.4-1.226A1.593,1.593,0,0,0-9.321,72.777ZM-9.36,65.99h3.477L-8.6,69.057l-2.686,0ZM3.218,73.412l-1.084-.078a1.947,1.947,0,0,0-1.992.977V81H-3.149V70.434H-.063l.107,1.357a2.548,2.548,0,0,1,2.314-1.553,3.209,3.209,0,0,1,.918.117Zm6.3,7.783a5.432,5.432,0,0,1-3.936-1.45,5.008,5.008,0,0,1-1.5-3.774V75.7a6.489,6.489,0,0,1,.6-2.861,4.395,4.395,0,0,1,1.753-1.919,5.292,5.292,0,0,1,2.734-.679,4.574,4.574,0,0,1,3.516,1.382,5.43,5.43,0,0,1,1.289,3.853v1.279H7.427a2.372,2.372,0,0,0,.771,1.4,2.3,2.3,0,0,0,1.543.508,2.958,2.958,0,0,0,2.441-1.094l1.5,1.777a4.2,4.2,0,0,1-1.743,1.353A5.891,5.891,0,0,1,9.517,81.2Zm-.371-8.418q-1.445,0-1.719,1.914h3.32v-.254a1.63,1.63,0,0,0-.4-1.226A1.593,1.593,0,0,0,9.146,72.777Zm5.732,2.842a6.236,6.236,0,0,1,.615-2.817,4.4,4.4,0,0,1,1.768-1.9,5.323,5.323,0,0,1,2.705-.664,4.858,4.858,0,0,1,3.74,1.47,5.64,5.64,0,0,1,1.367,4v.117A5.472,5.472,0,0,1,23.7,79.745a4.871,4.871,0,0,1-3.716,1.45,4.927,4.927,0,0,1-3.623-1.353,5.29,5.29,0,0,1-1.475-3.667Zm3.291.205a3.932,3.932,0,0,0,.459,2.148,1.529,1.529,0,0,0,1.357.684q1.758,0,1.8-2.705v-.332q0-2.842-1.816-2.842-1.65,0-1.787,2.451Z" transform="translate(-9081.562 -6718.24)" fill="#12263f"/>
    <path id="Trazado_226576" data-name="Trazado 226576" d="M328.128,62.1a4.832,4.832,0,0,1,1.506,1.506,2.478,2.478,0,0,0,1.831,1.152,2.546,2.546,0,0,0,.287.016,2.507,2.507,0,0,0,2.384-3.27,6.274,6.274,0,0,0-3.908-3.908,2.5,2.5,0,0,0-2.1,4.5Zm.731-2.722a.848.848,0,0,1,.864-.212,4.629,4.629,0,0,1,2.844,2.844.859.859,0,0,1-.917,1.111.839.839,0,0,1-.62-.389A6.48,6.48,0,0,0,329,60.706a.838.838,0,0,1-.389-.62.855.855,0,0,1,.246-.705Z" transform="translate(-8980.521 -6528.093)" fill="#fff"/>
    <path id="Trazado_226577" data-name="Trazado 226577" d="M45.911,48.239l1.166-1.166L42.12,42.117l4.628-4.073-1.089-1.237L27.5,52.785l-4.015,1-1.671-1.671,1-4.015L46.681,20.988a5.623,5.623,0,1,1,7.936,7.936l-3.339,2.938L52.367,33.1l3.339-2.938A7.272,7.272,0,1,0,45.443,19.9l-6.271,7.126L36.619,25l.019-.019a3.3,3.3,0,1,0-4.662-4.662l-.556.556-5.924-4.7a.824.824,0,0,0-1.095.063L19.739,20.9a.824.824,0,0,0,0,1.166l5.245,5.246L23.235,29.06a.824.824,0,0,0,0,1.165l3.5,3.5a.824.824,0,0,0,1.165,0l1.748-1.748L32.4,34.725l-5.562,6.321L20,38.767a.824.824,0,0,0-.843.2L16.242,41.88a.824.824,0,0,0,0,1.165l4.915,4.915L20.1,52.17a.824.824,0,0,0,.216.783l2.331,2.331a.825.825,0,0,0,.783.217l4.209-1.052,4.915,4.915a.824.824,0,0,0,1.166,0l2.914-2.914a.824.824,0,0,0,.2-.843l-2.278-6.835,6.321-5.563,2.751,2.751-1.748,1.748a.824.824,0,0,0,0,1.166l3.5,3.5L46.545,51.2l-2.914-2.914L44.8,47.125ZM33.142,21.484a1.648,1.648,0,0,1,2.331,2.331l-.153.153-2.6-2.062Zm-8.095-3.56,1.3,1.031-3.694,3.694-1.166-1.166Zm2.267,14.05-2.331-2.331,1.165-1.165,2.331,2.331Zm-3.5-8.159,3.829-3.829,10.436,8.278-4.6,5.222ZM22.031,46.5l-1.71-1.71,3.136-3.136,2.194.731Zm-2.07-6.012,1.748.583-2.554,2.554L17.99,42.463ZM33.142,57.615l-1.166-1.166L34.53,53.9l.583,1.748Zm.805-5.467-3.136,3.136-1.71-1.71,4.115-3.621Z" transform="translate(-8701.598 -6490.885)" fill="#fff"/>
    <path id="Trazado_226578" data-name="Trazado 226578" d="M0,0H7.417V1.648H0Z" transform="translate(-8677.202 -6440.849) rotate(-45)" fill="#fff"/>
    <path id="Trazado_226579" data-name="Trazado 226579" d="M343.659,192H328.824a.824.824,0,0,0-.824.824v29.669a.824.824,0,0,0,.824.824h14.835a.824.824,0,0,0,.824-.824V192.824A.824.824,0,0,0,343.659,192Zm-9.065,1.648h3.3v3.3h-3.3Zm-1.648,0v4.121a.824.824,0,0,0,.824.824h4.945a.824.824,0,0,0,.824-.824v-4.121h3.3v13.186H329.648V193.648Zm1.648,14.835h3.3v3.3h-3.3Zm-4.945,13.186V208.483h3.3V212.6a.824.824,0,0,0,.824.824h4.945a.824.824,0,0,0,.824-.824v-4.121h3.3v13.186Z" transform="translate(-8981.456 -6648.756)" fill="#fff"/>
    <path id="Trazado_226580" data-name="Trazado 226580" d="M440,304h1.648v1.648H440Z" transform="translate(-9081.918 -6749.218)" fill="#fff"/>
    <path id="Trazado_226581" data-name="Trazado 226581" d="M440,448h1.648v1.648H440Z" transform="translate(-9081.918 -6878.384)" fill="#fff"/>
    <path id="Trazado_226582" data-name="Trazado 226582" d="M38.086,17.483H49.624A2.475,2.475,0,0,0,52.1,15.01V3.472A2.475,2.475,0,0,0,49.624,1H38.086a2.475,2.475,0,0,0-2.472,2.472v9.89H29.272l-.33-3.3H24.154l-.33,3.3h-7.99v2.073l4.806,3.433a7.713,7.713,0,0,0-2.227,4.3L3.247,21.735A2.053,2.053,0,0,0,1,23.778a4.1,4.1,0,0,0,3.493,4.072L16.7,29.734a5.778,5.778,0,0,0,5.725,5.055h8.241a5.778,5.778,0,0,0,5.725-5.055L48.6,27.851A4.1,4.1,0,0,0,52.1,23.778a2.053,2.053,0,0,0-2.247-2.044L34.682,23.169a7.718,7.718,0,0,0-2.227-4.3L36,16.333A2.467,2.467,0,0,0,38.086,17.483ZM42.207,2.648h3.3v3.3h-3.3Zm-4.945.824a.825.825,0,0,1,.824-.824h2.472V7.593h6.593V2.648h2.472a.825.825,0,0,1,.824.824V15.01a.825.825,0,0,1-.824.824H38.086a.825.825,0,0,1-.824-.824Zm-9.811,8.241.5,5a7.838,7.838,0,0,0-.9-.056H26.042a7.838,7.838,0,0,0-.9.056l.5-5Zm-9.374,3.3H23.66l-.21,2.1a7.68,7.68,0,0,0-1.45.7Zm.23,14.01v-.706L4.743,26.222a2.459,2.459,0,0,1-2.095-2.444.4.4,0,0,1,.133-.3.422.422,0,0,1,.31-.1l15.236,1.44a7.676,7.676,0,0,0,.533,2.45l1.272,3.18a6.906,6.906,0,0,0,1.9,2.656,4.111,4.111,0,0,1-3.723-4.08Zm31.7-5.646a.408.408,0,0,1,.31.1.4.4,0,0,1,.133.3,2.459,2.459,0,0,1-2.095,2.444L34.789,28.314v.706a4.111,4.111,0,0,1-3.723,4.08,6.9,6.9,0,0,0,1.9-2.656l1.272-3.18a7.7,7.7,0,0,0,.533-2.45ZM33.141,24.393a6.073,6.073,0,0,1-.435,2.261l-1.272,3.18a5.263,5.263,0,0,1-9.773,0l-1.272-3.18a6.087,6.087,0,0,1,5.651-8.347h1.013a6.093,6.093,0,0,1,6.087,6.086Zm-3.494-7.278-.21-2.1H35.02l-3.923,2.8a7.68,7.68,0,0,0-1.45-.7Z" transform="translate(-8686.598 -6960.812)" fill="#fff"/>
    <path id="Trazado_226583" data-name="Trazado 226583" d="M57,15h1.648v1.648H57Z" transform="translate(-8696.446 -6963.274)" fill="#fff"/>
    <path id="Trazado_226584" data-name="Trazado 226584" d="M53,15h1.648v1.648H53Z" transform="translate(-8695.743 -6963.274)" fill="#fff"/>
    <path id="Trazado_226585" data-name="Trazado 226585" d="M26.919,26l-1.1,6.593H36.007L34.909,26Zm1.4,1.648h1.774v3.3H27.766Zm3.423,3.3v-3.3h1.774l.55,3.3Z" transform="translate(-8690.963 -6965.208)" fill="#fff"/>
    <path id="Trazado_226586" data-name="Trazado 226586" d="M10.89,39a9.89,9.89,0,1,0,9.89,9.89A9.9,9.9,0,0,0,10.89,39Zm0,18.131c-.8,0-1.643-.932-2.279-2.472h4.558C12.533,56.2,11.688,57.131,10.89,57.131ZM8.076,53.01a16.7,16.7,0,0,1-.464-3.3h6.555a16.7,16.7,0,0,1-.464,3.3Zm-5.386-3.3H5.965a18.9,18.9,0,0,0,.4,3.3h-2.6A8.163,8.163,0,0,1,2.69,49.714Zm8.2-9.066c.8,0,1.643.932,2.279,2.472H8.61C9.246,41.58,10.091,40.648,10.89,40.648ZM13.7,44.769a16.7,16.7,0,0,1,.464,3.3H7.612a16.7,16.7,0,0,1,.464-3.3Zm-7.739,3.3H2.69a8.176,8.176,0,0,1,1.073-3.3h2.6A18.977,18.977,0,0,0,5.965,48.066Zm9.85,1.648h3.274a8.176,8.176,0,0,1-1.073,3.3h-2.6A18.977,18.977,0,0,0,15.815,49.714Zm0-1.648a18.9,18.9,0,0,0-.4-3.3h2.6a8.163,8.163,0,0,1,1.073,3.3Zm.95-4.945H14.953a10.036,10.036,0,0,0-.818-1.8A8.271,8.271,0,0,1,16.765,43.121Zm-9.121-1.8a10.094,10.094,0,0,0-.818,1.8H5.014A8.276,8.276,0,0,1,7.644,41.317ZM5.014,54.659H6.827a10.036,10.036,0,0,0,.818,1.8A8.271,8.271,0,0,1,5.014,54.659Zm9.121,1.8a10.12,10.12,0,0,0,.818-1.8h1.812A8.289,8.289,0,0,1,14.135,56.463Z" transform="translate(-8686.598 -6967.495)" fill="#fff"/>
    <path id="Trazado_226587" data-name="Trazado 226587" d="M23.877,7v3.647l9.26-4.63-9.26-4.63v3.94A21.492,21.492,0,0,0,9.245,14.633l1.389.888A19.8,19.8,0,0,1,23.877,7Zm1.648-2.946,3.926,1.963L25.526,7.975Z" transform="translate(-8688.048 -6960.879)" fill="#fff"/>
    <path id="Trazado_226588" data-name="Trazado 226588" d="M9.332,20.3l-1.461-.761c-.291.558-.56,1.134-.8,1.712l1.521.635C8.815,21.349,9.064,20.816,9.332,20.3Z" transform="translate(-8687.665 -6964.072)" fill="#fff"/>
    <path id="Trazado_226589" data-name="Trazado 226589" d="M7.769,24.2,6.2,23.693c-.18.558-.341,1.134-.478,1.713l1.6.378C7.454,25.248,7.6,24.716,7.769,24.2Z" transform="translate(-8687.429 -6964.803)" fill="#fff"/>
    <path id="Trazado_226590" data-name="Trazado 226590" d="M35.024,53.988V50.341l-9.26,4.63,9.26,4.63v-3.94a21.492,21.492,0,0,0,14.633-9.311l-1.389-.888A19.8,19.8,0,0,1,35.024,53.988Zm-1.648,2.946L29.45,54.971l3.926-1.963Z" transform="translate(-8690.953 -6968.631)" fill="#fff"/>
    <path id="Trazado_226591" data-name="Trazado 226591" d="M54.185,43.2l1.461.762c.291-.558.56-1.134.8-1.712l-1.521-.635C54.7,42.151,54.454,42.683,54.185,43.2Z" transform="translate(-8695.951 -6967.955)" fill="#fff"/>
    <path id="Trazado_226592" data-name="Trazado 226592" d="M55.794,39.354l1.568.507c.18-.558.341-1.134.478-1.713l-1.6-.378C56.11,38.306,55.961,38.838,55.794,39.354Z" transform="translate(-8696.234 -6967.278)" fill="#fff"/>
    <path id="Trazado_226593" data-name="Trazado 226593" d="M2.048,12.915a15.236,15.236,0,0,0,5.686,1.1h4.628l5.495,4.121h4L20.088,14.01h1.166A11.905,11.905,0,0,0,31.179,8.7l.138-.208V5.769H29.669V0h-3.84L23.357,5.769H19.465L21.937.824H17.881L10.464,5.769H7.734a15.236,15.236,0,0,0-5.686,1.1,3.259,3.259,0,0,0,0,6.051Zm16.358,3.568-5.495-4.121h4.676l1.766,4.121Zm8.51-14.835h1.105V5.769H25.15Zm-8.535.824h.889l-1.648,3.3H13.436ZM2.661,8.394a13.592,13.592,0,0,1,5.073-.977H29.669v.569a10.258,10.258,0,0,1-8.415,4.375H19.381l-.706-1.648H10.714v1.648H7.734a13.6,13.6,0,0,1-5.074-.977,1.61,1.61,0,0,1,0-2.99Zm0,0" transform="translate(-8746.834 -6843.26)" fill="#fff"/>
    <path id="Trazado_226594" data-name="Trazado 226594" d="M32.141,206.835H26.221a2.438,2.438,0,0,0,.152-.824V194.472A2.476,2.476,0,0,0,23.9,192H10.714a2.476,2.476,0,0,0-2.472,2.472V206.01a2.438,2.438,0,0,0,.152.824H2.472A2.476,2.476,0,0,0,0,209.307v11.538a2.476,2.476,0,0,0,2.472,2.472H15.659a2.457,2.457,0,0,0,1.648-.643,2.453,2.453,0,0,0,1.648.643H32.141a2.476,2.476,0,0,0,2.472-2.472V209.307a2.476,2.476,0,0,0-2.472-2.472Zm-16.483,0h-.824v-1.648h4.945v1.648Zm-9.066,1.648h4.945v1.648H6.593Zm16.483,0h4.945v1.648H23.076Zm-8.241-14.835h4.945V195.3H14.834ZM9.89,206.01V194.472a.826.826,0,0,1,.824-.824h2.472v3.3h8.241v-3.3H23.9a.826.826,0,0,1,.824.824V206.01a.826.826,0,0,1-.824.824H21.428v-3.3H13.186v3.3H10.714A.826.826,0,0,1,9.89,206.01Zm1.648,15.659H6.593v-1.648h4.945Zm4.121,0H13.186v-3.3H4.945v3.3H2.472a.826.826,0,0,1-.824-.824V209.307a.826.826,0,0,1,.824-.824H4.945v3.3h8.241v-3.3h2.472a.826.826,0,0,1,.824.824v11.538A.826.826,0,0,1,15.659,221.669Zm12.362,0H23.076v-1.648h4.945Zm4.945-.824a.826.826,0,0,1-.824.824H29.669v-3.3H21.428v3.3H18.955a.826.826,0,0,1-.824-.824V209.307a.826.826,0,0,1,.824-.824h2.472v3.3h8.241v-3.3h2.472a.826.826,0,0,1,.824.824Zm0,0" transform="translate(-8746.834 -7015.48)" fill="#fff"/>
    <path id="Trazado_226595" data-name="Trazado 226595" d="M335.01,61.4l-3.361-.84a5.777,5.777,0,0,0,3.185-5.153V53.965a5.921,5.921,0,0,0-5.593-5.973,5.769,5.769,0,0,0-5.945,5.767v1.648a5.777,5.777,0,0,0,3.186,5.153l-3.361.84a4.116,4.116,0,0,0-3.121,4v8.14a2.476,2.476,0,0,0,2.472,2.472h.824V94.141h11.538V76.01h.824a2.476,2.476,0,0,0,2.472-2.472V65.4A4.116,4.116,0,0,0,335.01,61.4Zm-10.065-5.993V53.758a4.121,4.121,0,0,1,4.248-4.118,4.261,4.261,0,0,1,3.993,4.325v1.441a4.126,4.126,0,0,1-2.748,3.88l-.549.2v1.694a.824.824,0,1,1-1.648,0V59.482l-.549-.194a4.128,4.128,0,0,1-2.748-3.881Zm8.241,37.086h-3.3V75.186h-1.648V92.493h-3.3V73.538h8.241Zm3.3-18.955a.826.826,0,0,1-.824.824h-.824V66.12h-1.648v5.769h-8.241V66.12H323.3v8.241h-.824a.826.826,0,0,1-.824-.824V65.4a2.471,2.471,0,0,1,1.872-2.4l3.289-.822a2.466,2.466,0,0,0,4.513,0L334.61,63a2.471,2.471,0,0,1,1.872,2.4Zm0,0" transform="translate(-9033.868 -6886.304)" fill="#fff"/>
    <path id="Trazado_226596" data-name="Trazado 226596" d="M39.968,20.121v-3.3A.824.824,0,0,1,40.792,16,20.567,20.567,0,0,1,56.5,23.269l-1.257,1.067a18.919,18.919,0,0,0-13.626-6.67v1.651a17,17,0,0,1,12.862,6.892,14.029,14.029,0,0,1,9.39-3.616h1.648v1.648H63.868A12.388,12.388,0,0,0,53.08,30.562l-1.437-.807A14,14,0,0,1,53.307,27.4l-.093-.128a15.361,15.361,0,0,0-12.422-6.326A.824.824,0,0,1,39.968,20.121ZM18.391,37.561l3.672.319A6.591,6.591,0,1,0,30.006,48.4l-1.013-1.3A4.945,4.945,0,1,1,30.8,42.2l1.615-.33a6.551,6.551,0,0,0-1.708-3.236l.853.074.143-1.642L18.533,35.919a.9.9,0,0,1,.078-1.788H31.726V32.483H18.611a2.545,2.545,0,0,0-.22,5.079ZM25.957,39.9a3.3,3.3,0,1,1-3.3,3.3,3.3,3.3,0,0,1,3.3-3.3Zm0,1.648A1.648,1.648,0,1,0,27.606,43.2a1.648,1.648,0,0,0-1.648-1.648Zm37.911,7.417h1.648v1.648H63.868v5.769h1.648v1.648H63.868v1.648h1.648v1.648H63.868v.824a3.3,3.3,0,0,1-6.593,0V57.207a3.294,3.294,0,0,1,4.945-2.853V50.516A14.019,14.019,0,0,1,50.939,31.2l1.52.637A12.37,12.37,0,0,0,63.868,48.966ZM62.22,57.207a1.648,1.648,0,1,0-3.3,0v4.945a1.648,1.648,0,0,0,3.3,0Zm.824-27.2v1.648h2.472v1.648h-3.2l-3.2.8a.824.824,0,0,1-.568-.062l-1.648-.824a.824.824,0,0,1-.456-.737v-3.3a.824.824,0,0,1,.824-.824h8.241V30.01Zm-1.648,0H58.1v1.963l.92.46,2.377-.594Zm3.3,6.593a4.172,4.172,0,0,1,.689.057l.272-1.626a5.769,5.769,0,1,0,0,11.378l-.273-1.626a4.169,4.169,0,0,1-.688.057,4.121,4.121,0,1,1,0-8.241ZM31.726,43.2h1.648V30.834a.824.824,0,0,1,.824-.824H36.98v1.648H35.023V36.6h4.945V31.659H38.216V30.01h9.169a.824.824,0,0,1,.824.824V43.2h1.648a.824.824,0,0,1,.824.824v3.3a.824.824,0,0,1-.824.824H49.4l-4.757,5.232-1.22-1.109,3.749-4.123H45.652l-3.746,4.121L49.4,60.5h.46a.824.824,0,0,1,.824.824v3.3a.824.824,0,0,1-.824.824H31.726a.824.824,0,0,1-.824-.824v-3.3a.824.824,0,0,1,.824-.824h.46l5.619-6.181-5.619-6.181h-.46a.824.824,0,0,1-.824-.824v-3.3A.824.824,0,0,1,31.726,43.2ZM34.414,60.5h1.518l3.746-4.121-.759-.835Zm3.746,0h5.265l-2.632-2.9Zm10.874,1.648H32.55V63.8H49.033Zm-13.1-14.01H34.413L45.652,60.5H47.17Zm7.492,0H38.16l2.632,2.9ZM41.616,36.6h4.945V31.659H41.616Zm0,6.593h4.945V38.252H41.616Zm-6.593,0h4.945V38.252H35.023Zm-2.472,3.3H49.033V44.845H32.55Z" transform="translate(-8600.673 -6734.464)" fill="#fff"/>
    <path id="Trazado_226597" data-name="Trazado 226597" d="M15.3,20H13.648A1.65,1.65,0,0,0,12,21.648V23.3a1.65,1.65,0,0,0,1.648,1.648H15.3A1.65,1.65,0,0,0,16.945,23.3V21.648A1.65,1.65,0,0,0,15.3,20Zm-1.648,3.3V21.648H15.3V23.3Z" transform="translate(-8748.944 -6602.68)" fill="#fff"/>
    <path id="Trazado_226598" data-name="Trazado 226598" d="M23.3,20H21.648A1.65,1.65,0,0,0,20,21.648V23.3a1.65,1.65,0,0,0,1.648,1.648H23.3A1.65,1.65,0,0,0,24.945,23.3V21.648A1.65,1.65,0,0,0,23.3,20Zm-1.648,3.3V21.648H23.3V23.3Z" transform="translate(-8750.352 -6602.68)" fill="#fff"/>
    <path id="Trazado_226599" data-name="Trazado 226599" d="M31.3,20H29.648A1.65,1.65,0,0,0,28,21.648V23.3a1.65,1.65,0,0,0,1.648,1.648H31.3A1.65,1.65,0,0,0,32.945,23.3V21.648A1.65,1.65,0,0,0,31.3,20Zm-1.648,3.3V21.648H31.3V23.3Z" transform="translate(-8751.758 -6602.68)" fill="#fff"/>
    <path id="Trazado_226600" data-name="Trazado 226600" d="M40.945,21.648A1.65,1.65,0,0,0,39.3,20H37.648A1.65,1.65,0,0,0,36,21.648V23.3a1.65,1.65,0,0,0,1.648,1.648H39.3A1.65,1.65,0,0,0,40.945,23.3Zm-3.3,1.648V21.648H39.3V23.3Z" transform="translate(-8753.165 -6602.68)" fill="#fff"/>
    <path id="Trazado_226601" data-name="Trazado 226601" d="M36.629,27.3l6.947-5.557a2.462,2.462,0,0,0,.927-1.93v-.032a1.65,1.65,0,0,0,1.648-1.648V16.483A1.65,1.65,0,0,0,44.5,14.835V4.945A1.65,1.65,0,0,0,42.855,3.3H41.68a1.655,1.655,0,0,0-1.424.818l-5.291,9.072H24.694c.018-.274.03-.55.03-.824A12.362,12.362,0,1,0,0,12.362,12.23,12.23,0,0,0,1.085,17.39,9.1,9.1,0,0,0,.391,18.7a4.839,4.839,0,0,0,0,3.813,9.082,9.082,0,0,0,8.358,5.511h6.015L17.4,29.669H9.89a1.65,1.65,0,0,0-1.648,1.648v8.241h-3.3A1.65,1.65,0,0,0,3.3,41.207v8.241A1.65,1.65,0,0,0,4.945,51.1h8.241a1.63,1.63,0,0,0,.824-.229,1.63,1.63,0,0,0,.824.229h8.241a1.65,1.65,0,0,0,1.648-1.648V41.207a1.65,1.65,0,0,0-1.648-1.648h-3.3V31.317a1.693,1.693,0,0,0-.017-.172l5.067,3.167a1.993,1.993,0,0,0,1.054.3h3.445a1.99,1.99,0,0,0,1.407-3.4l-3.2-3.2h7.033a3.306,3.306,0,0,0,2.059-.722ZM13.186,31.317h1.648v1.648H13.186Zm-3.3,9.89v1.648H8.241V41.207ZM4.945,49.448V41.207H6.593v1.648A1.65,1.65,0,0,0,8.241,44.5H9.89a1.65,1.65,0,0,0,1.648-1.648V41.207h1.648v8.241Zm18.132,0H14.834V41.207h1.648v1.648A1.65,1.65,0,0,0,18.131,44.5h1.648a1.65,1.65,0,0,0,1.648-1.648V41.207h1.648Zm-4.946-8.241h1.648v1.648H18.131Zm-3.3-1.648H9.89V31.317h1.648v1.648a1.65,1.65,0,0,0,1.648,1.648h1.648a1.65,1.65,0,0,0,1.648-1.648V31.317h1.648v8.241ZM44.5,18.131H37.91V16.483H44.5ZM23.043,13.186H18.108c.015-.275.023-.551.023-.824a15.593,15.593,0,0,0-.569-4.121h4.687a10.658,10.658,0,0,1,.827,4.121C23.076,12.637,23.064,12.912,23.043,13.186ZM5.769,15.468v3.487a.825.825,0,0,1-.824.824H1.77a3.21,3.21,0,0,1,.136-.433A7.424,7.424,0,0,1,5.769,15.468ZM8.289,13.2c-.016-.281-.048-.562-.048-.841a14.013,14.013,0,0,1,.634-4.121h6.973a13.986,13.986,0,0,1,.635,4.121c0,.274-.03.549-.046.824H8.748C8.595,13.186,8.442,13.2,8.289,13.2ZM12.362,2.2l1.319,1.758a13.916,13.916,0,0,1,1.545,2.637H9.5a13.942,13.942,0,0,1,1.545-2.637Zm9.014,4.4H17.013A15.619,15.619,0,0,0,15,2.967l-.87-1.16A10.723,10.723,0,0,1,21.376,6.593ZM10.6,1.807l-.87,1.16A15.619,15.619,0,0,0,7.711,6.593H3.348A10.723,10.723,0,0,1,10.6,1.807ZM2.475,8.241H7.162a15.593,15.593,0,0,0-.569,4.121c0,.358.016.717.041,1.076a9.076,9.076,0,0,0-4.38,2.477,10.7,10.7,0,0,1,.221-7.673ZM29.669,32.624a.342.342,0,0,1-.341.341H25.883a.343.343,0,0,1-.181-.052L13.3,25.16a.233.233,0,0,1-.11-.2.236.236,0,0,1,.237-.237h8.39a.24.24,0,0,1,.167.069l7.589,7.59a.344.344,0,0,1,.1.241Zm-6.524-9a1.9,1.9,0,0,0-1.333-.552h-8.39a1.887,1.887,0,0,0-1.885,1.885,1.859,1.859,0,0,0,.658,1.412H8.749A7.437,7.437,0,0,1,1.906,21.86a3.2,3.2,0,0,1-.136-.432H4.945a2.475,2.475,0,0,0,2.472-2.472V14.967a7.422,7.422,0,0,1,1.332-.133H34.965a1.655,1.655,0,0,0,1.424-.818L41.68,4.945h1.175v9.89H37.91a1.65,1.65,0,0,0-1.648,1.648v1.648a1.65,1.65,0,0,0,1.648,1.648h4.945v.032a.822.822,0,0,1-.309.644L35.6,26.012a1.656,1.656,0,0,1-1.029.361H25.889Z" transform="translate(-8746.834 -6599.163)" fill="#fff"/>
    <path id="Trazado_226602" data-name="Trazado 226602" d="M56,26h4.945v1.648H56Z" transform="translate(-8756.683 -6603.735)" fill="#fff"/>
    <path id="Trazado_226603" data-name="Trazado 226603" d="M56,10h4.945v1.648H56Z" transform="translate(-8756.683 -6600.922)" fill="#fff"/>
    <path id="Trazado_226604" data-name="Trazado 226604" d="M58,14h3.3v1.648H58Z" transform="translate(-8757.034 -6601.625)" fill="#fff"/>
    <path id="Trazado_226605" data-name="Trazado 226605" d="M42,36h3.3v1.648H42Z" transform="translate(-8754.221 -6605.494)" fill="#fff"/>
    <path id="Trazado_226606" data-name="Trazado 226606" d="M48,36h6.593v1.648H48Z" transform="translate(-8755.275 -6605.494)" fill="#fff"/>
    <path id="Trazado_226607" data-name="Trazado 226607" d="M42,40h6.593v1.648H42Z" transform="translate(-8754.221 -6606.197)" fill="#fff"/>
    <path id="Trazado_226608" data-name="Trazado 226608" d="M38,12h3.3v1.648H38Z" transform="translate(-8753.517 -6601.273)" fill="#fff"/>
    <path id="Trazado_226609" data-name="Trazado 226609" d="M32,8h8.241V9.648H32Z" transform="translate(-8752.462 -6600.57)" fill="#fff"/>
  </g>
</svg>
